<mxfile host="Electron" agent="Mozilla/5.0 (Windows NT 10.0; Win64; x64) AppleWebKit/537.36 (KHTML, like Gecko) draw.io/26.0.16 Chrome/132.0.6834.196 Electron/34.2.0 Safari/537.36" version="26.0.16">
  <diagram name="Page-1" id="S1dePM8PydaYRyT93CxU">
    <mxGraphModel dx="1803" dy="1065" grid="1" gridSize="10" guides="1" tooltips="1" connect="1" arrows="1" fold="1" page="1" pageScale="1" pageWidth="1800" pageHeight="900" math="0" shadow="0">
      <root>
        <mxCell id="0" />
        <mxCell id="1" parent="0" />
        <mxCell id="NBEOzvU_pRrIGNWXIiWT-1" value="" style="rounded=0;whiteSpace=wrap;html=1;arcSize=12;dashed=1;" vertex="1" parent="1">
          <mxGeometry x="320" y="80" width="1400" height="760" as="geometry" />
        </mxCell>
        <mxCell id="NBEOzvU_pRrIGNWXIiWT-2" value="" style="rounded=0;whiteSpace=wrap;html=1;arcSize=12;dashed=1;" vertex="1" parent="1">
          <mxGeometry x="40" y="320" width="240" height="520" as="geometry" />
        </mxCell>
        <mxCell id="NBEOzvU_pRrIGNWXIiWT-3" value="API Gateway" style="sketch=0;outlineConnect=0;fontColor=#232F3E;gradientColor=none;fillColor=#E7157B;strokeColor=none;dashed=0;verticalLabelPosition=bottom;verticalAlign=top;align=center;html=1;fontSize=18;fontStyle=0;aspect=fixed;pointerEvents=1;shape=mxgraph.aws4.endpoint;" vertex="1" parent="1">
          <mxGeometry x="401" y="411" width="78" height="78" as="geometry" />
        </mxCell>
        <mxCell id="NBEOzvU_pRrIGNWXIiWT-9" value="" style="group" vertex="1" connectable="0" parent="1">
          <mxGeometry x="360" y="260" width="160" height="120" as="geometry" />
        </mxCell>
        <mxCell id="NBEOzvU_pRrIGNWXIiWT-5" value="" style="rounded=1;whiteSpace=wrap;html=1;" vertex="1" parent="NBEOzvU_pRrIGNWXIiWT-9">
          <mxGeometry width="160" height="100" as="geometry" />
        </mxCell>
        <mxCell id="NBEOzvU_pRrIGNWXIiWT-6" value="" style="shape=image;verticalLabelPosition=bottom;labelBackgroundColor=default;verticalAlign=top;aspect=fixed;imageAspect=0;image=data:image/png,iVBORw0KGgoAAAANSUhEUgAABDgAAALQCAYAAAB118BaAAAAAXNSR0IArs4c6QAAAAlwSFlzAAAOxAAADsQBlSsOGwAAIABJREFUeJzs3emXI1ed//nPDSmX2pes3RvYYGwYlh7bGGjohm5659e/7v4xM7+eOXMOf8s8mGdzzsyTfkz/Ghq8YMDQ2A3eXcYub5RdXsq171WZVbkvSiki7p0HUoRCUigrF4WkUL5fPuXMSmUpVklxP3Hv9xrnnBMAAAAAAECOeb1eAQAAAAAAgI0i4AAAAAAAALlHwAEAAAAAAHKPgAMAAAAAAOQeAQcAAAAAAMg9Ag4AAAAAAJB7BBwAAAAAACD3CDgAAAAAAEDuEXAAAAAAAIDcI+AAAAAAAAC5R8ABAAAAAAByj4ADAAAAAADkHgEHAAAAAADIPQIOAAAAAACQewQcAAAAAAAg9wg4AAAAAABA7hFwAAAAAACA3CPgAAAAAAAAuUfAAQAAAAAAco+AAwAAAAAA5B4BBwAAAAAAyD0CDgAAAAAAkHsEHAAAAAAAIPcIOAAAAAAAQO4RcAAAAAAAgNwj4AAAAAAAALlHwAEAAAAAAHKPgAMAAAAAAOQeAQcAAAAAAMg9Ag4AAAAAAJB7BBwAAAAAACD3CDgAAAAAAEDuEXAAAAAAAIDcI+AAAAAAAAC5R8ABAAAAAAByj4ADAAAAAADkHgEHAAAAAADIPQIOAAAAAACQewQcAAAAAAAg9wg4AAAAAABA7hFwAAAAAACA3CPgAAAAAAAAuUfAAQAAAAAAco+AAwAAAAAA5B4BBwAAAAAAyD0CDgAAAAAAkHsEHAAAAAAAIPcIOAAAAAAAQO4RcAAAAAAAgNwj4AAAAAAAALlHwAEAAAAAAHKPgAMAAAAAAOQeAQcAAAAAAMg9Ag4AAAAAAJB7BBwAAAAAACD3CDgAAAAAAEDuEXAAAAAAAIDcI+AAAAAAAAC5R8ABAAAAAAByj4ADAAAAAADkHgEHAAAAAADIPQIOAAAAAACQewQcAAAAAAAg9wg4AAAAAABA7hFwAAAAAACA3CPgAAAAAAAAuUfAAQAAAAAAco+AAwAAAAAA5B4BBwAAAAAAyD0CDgAAAAAAkHsEHAAAAAAAIPcIOAAAAAAAQO4RcAAAAAAAgNwj4AAAAAAAALlHwAEAAAAAAHKPgAMAAAAAAOQeAQcAAAAAAMg9Ag4AAAAAAJB7BBwAAAAAACD3CDgAAAAAAEDuEXAAAAAAAIDcI+AAAAAAAAC5R8ABAAAAAAByj4ADAAAAAADkHgEHAAAAAADIPQIOAAAAAACQewQcAAAAAAAg9wg4AAAAAABA7hFwAAAAAACA3CPgAAAAAAAAuUfAAQAAAAAAco+AAwAAAAAA5B4BBwAAAAAAyD0CDgAAAAAAkHsEHAAAAAAAIPcIOAAAAAAAQO4RcAAAAAAAgNwj4AAAAAAAALlHwAEAAAAAAHKPgAMAAAAAAOQeAQcAAAAAAMg9Ag4AAAAAAJB7BBwAAAAAACD3CDgAAAAAAEDuEXAAAAAAAIDcI+AAAAAAAAC5R8ABAAAAAAByj4ADAAAAAADkHgEHAAAAAADIPQIOAAAAAACQewQcAAAAAAAg9wg4AAAAAABA7hFwAAAAAACA3CPgAAAAAAAAuUfAAQAAAAAAco+AAwAAAAAA5B4BBwAAAAAAyD0CDgAAAAAAkHsEHAAAAAAAIPcIOAAAAAAAQO4RcAAAAAAAgNwj4AAAAAAAALlHwAEAAAAAAHKPgAMAAAAAAOQeAQcAAAAAAMg9Ag4AAAAAAJB7BBwAAAAAACD3CDgAAAAAAEDuEXAAAAAAAIDcI+AAAAAAAAC5R8ABAAAAAAByj4ADAAAAAADkHgEHAAAAAADIPQIOAAAAAACQewQcAAAAAAAg9wg4AAAAAABA7hFwAAAAAACA3CPgAAAAAAAAuVfs9QoA2Bycc71eBWDDjDG9XgUAAAC0QcABoCtmZmY0MzNDAxG55JzTzp07NTY21utVAQAAQBsEHAAyZa3Vu+++qx/92480Pz/f69UB1m10dFT//L//s77xjW/I8xjhCQAA0G8IOABkxlqrM2fO6Cf//hNdvHiR3hvIvcd++pj27dun+++/n5ADAACgzxBwAMiEc042tHr++ed17tw5Oeca6nBQkwN50BzKXb58Wc8/97zuuecejY6OEtoBAAD0EW4/AciEMUanz5zWsTeOSaoHGs1BB9DPkuerc07GGB07dkwfffiRjDGcywAAAH2EgANAJnzf1w9/+EPNzs7GDUMag8ir5Dk8Pz+vH//4xyqXy/TgAAAA6CMEHAA6zlqr3/72tzpz+owkyYlgA4Pl4sWL+tXTv5K1luAOAACgTxBwAOgo55yuXr2qZ595Nm78GXGXG4PDOacwDPXMM8/owoULvV4dAAAA1BBwAOgY55zK5bJeeOEFTUxMtDwG5FnyHDbGaHZ2Vr/9z9+qVCpxfgMAAPQBAg4AHWOM0ZUrV3Ts2DFVKpWG4ozAIEie02EY6p133tGZM2eoxQEAANAHCDgAdIS1Vr7v64UXXtD1a9cJNzCwkuf25OSkXnzxRZVKJVlre7xmAAAAmxsBB4CO8DxPZ8+e1csvvSyJYAODzzkna63eeP0NffTRR/I8PlIBAAB6iasxABvmnNPCwoL+9Yf/qqWlJaaFxcCLznFJWl5e1k/+/Seam5vjnAcAAOghAg4AG2aM0bPPPqvTp0/3elWArnPO6fz58/rNf/yGWhwAAAA9RMABYEOcc7pw4YJ+9atfKQgCam9g00ie42EY6tlnn9WpU6c49wEAAHqEgAPAhlQqFf3ud7/T0uISd6+xaRljtLCwoGd+84xKpVKvVwcAAGBTIuAAsG7WWn3yySd699136b2BTal52tgTJ07oxIkTzKgCAADQAwQcANbFWqvyclkvv/SyJsYn4gYd4QY2m+ict9ZqenpaL7/8subn53ktAAAAdBkBB4A1c87J8zyd/OSkXn75ZYVhyPAUQNVaHG+8/obef+99ZhICAADoMgIOAGtmjFGpVNKPf/Tjhq74NOawWSWnjXXO6YknntDi4iLBHwAAQBcRcABYM2utfv3rX+vs2bPUGgCaOOd0+fJl/ezJn/H6AAAA6CICDgBr4pzTuXPn9MLzL8R/B1AXvSZeeOEFnTx5ktcIAABAlxBwAFg155zK5bKef+55TUxMSFJDt3xgM4teA1HtjdnZWT37zLNaXl7m9QEAANAFBBwAVs05pxMnTuj48eNyzjEtLNAk+VowxujDDz/Ue++9x2sEAACgCwg4AKyKc06Li4t68YUXdf36dYVh2OtVAvpaGIaamprSiy++qKmpKUIOAACAjBFwALitaIaI48eP67333mt5DEBd8jXhnNOJ90/onbffYdpYAACAjBFwALgtY4zK5bIef+xxLS0txT+jsQakS04bWyqV9POf/1xLS0tMGwsAAJAhAg4AK3LOyVqrxx57TFevXu316gC5NDExoX/7H/+mMAwJBgEAADJCwAHgts6ePavnfvdcHHYAWL3odfPcc8/pk08+oRcHAABARgg4ALTlnNPS0pKe+c0zWlxcbOh2z11oYGXNr5EwDPX0L5/W3Nwcrx8AAIAMEHAAaMsYo48++kjHjx9v6LlB4wxYneaCox9//LGOHz/ewzUCAAAYXAQcAFJZazU7O6sXX3hRMzMzcUONcANYm+RrZ35+Xi+9+JImb00y3AsAAKDDCDgAtHDOyfM8vffee3r33XdlrSXYADrAWqsPPvhAb7/ztjzP43UFAADQQQQcAFJNT0/rZ0/+TOVyWRLTwgIbkezF4fu+nv7l05q8NdnjtQIAABgsBBwAWhhj9Iuf/0JXrlwh1AA6JCrS65zTjRs39NRTTzGjCgAAQAcRcABo4JzTJ598oqd/+bTCMOz16gADyVqr3/zmNzrx/glCRAAAgA4h4ADQYGlpSb/8xS9lPNNwd5lGGNB5T/7sSc3Pz/d6NQAAAAYCAQeAWBiGevutt/Xhhx/KOcfMKUCHNb+Wzpw+o9eOvqYgCHq0RgAAAIODgAOApGqX+ampKb3yyiuan59nCksgY9ZalUolHT16VOPj4wSJAAAAG0TAASCeFvYPf/iD3nnnHVlr42KINLqAzopeV8YYWWv14Ycf6tgbx3i9AQAAbBABBwAZY7S4uKhf/+rX8jyPRhbQJVG4+Nxzz2lqaopZVQAAADaAgAOArLV67LHHdPny5bj3BoDsRb04rl+/rscfe1xhGBIwAgAArBMBB7DJOef00Ucf6bnnnov/nvwKIBvNr7WjR4/q+PHjvVwlAACAXCPgADYx55xKpZJ+/tTPtbS4FNcFANA9Ub2bpaUlPf7Y45qfnydgBAAAWAcCDmATs9bq2LFjOnPmjDyv/nZA4wrojuRrzfM8Xb16Va+++qrCMOzhWgEAAOQTAQewSTnnNDExoZdefElzc3NMCwv0mLVWCwsLevWVV3Xl8hWCRgAAgDUi4AA2oWg6yrffelunTp1qaEjRqAK6q/k1d+HCBR07dkxBEPB6BAAAWAMCDmATMsZoZmZGv/71r7W8vBz/nMYU0BvJ1165XNbvnvudJiYmqIkDAACwBgQcwCbjnFMYhvrpT3+qW7duMWsK0CeSr8WpySk9/tjj9OIAAABYAwIOYJMxxujEiRN64fkXBraQoVN9GI6L/t7VP07OVb8fZE6SerCPq4t1A93wt9bqtdde0zvvvEMvDgAAgFUq9noFAHSPc04zMzN66mdPDWy4IUlKNnxtKNPFdrAzRvI8SdWEwxmjQWyexr0NjJFsKHWxSG11Hxfq6zGg+zgMQz35xJO67777NDY2RtABAABwGwQcwCZijNGxN47p7NmzDT8fpDvhyS0pOCd/6y75xeEudKdwMjIaqizJK83LFWpvr7UG+CBJni4m8GV27ZXdtqtLSzfy/GVp8oasTHXfDtA+ds41BBmXLl3Syy+9rH/6b//Uw7UCAADIBwIOYJOw1mpifEJHjx7V0tLSQNbeiIZMSJIKRV286ws6deRBhYWhrgwXMc5pTL7un76kHSeOynlFSa6l0Zpn8fliJBNaLT74VQXf+ntp7yG5rvSjcPKCikbff1VDrz4tVcpdWGZ3ReeLc06+7+uNN97QQw8/pLvvvluex8hSAACAdgg4gE0gapS++eabLdPCDoo43DBGktP4gU/r5JHPq+QVGrscZGjIWS0eukfHvvIn+tryorafPi43oA1SY62W7/qsjn33BzpofR32fdniUFcijqAwrOAr39GO6QkV//CqBi1ESrLW6vz583r99dd1xx13yBgzkNsJAADQCYN55Q2gxfj4uJ555hn5vj+QvTeiLhpOkj+yTZcOfqYabnSJkbR1yxbZ3WPynXTq4b+V3bmna8vvLie7ZbvOPvRXKntFTcpoqVKWcfU+HCbjP854Kv9PfyyNHYoDrEE6n5Ov0TAM9cLzL+jSpUuEGwAAACsg4AA2AWOMnnjiCY2Pjzd0fx8ULv6/UTHwNX7g05rYPtb4S8Zk86emKKfi2AGVR7aqYEPdGjuiiQcejRukg7C7o00wMpq598u6ceSzKoSBSl5RE6GTwqA+y4mU6f6WcyofuEeVL31DsoFkBu/jLPlanZyc1FNPPdXrVQIAAOhrg3dFCCAWTaX59ttv68UXXpTt4kwX3dJQd8NZhVt26MyRB6sFKCNZ3PV2riG12Dk6qvLuA9WHjJGTdPFzj6qy52CtNoXL9bSx9SFAnoJtu3Tp899Q4BWrM5rIaNoMqbS81BA0ZBKiRUM0jJGMVPriN2UO3iWFfnbL7APOOf3+td/r6KtHB36KXAAAgPUi4AAGmDFGMzMzevyxx3u9KtlJNPQ8z9Mn9z2s+eGt6sK0KbGtNpQ5dFd1tpaY0dyu/Rp/8GvViT5qs33ksVkahRvOGJkw0K37H9bkvrsbfsf3CrpmPRWXFyQ19rTIbsWsgtHtKn37+zJD9X0/iI3/aJt+8tOfaHJykqEqAAAAKQg4gAEWBIFeeeUVXb58ueHng9gANM5peu8dOr/vU5INs11YYv8VrNX23Xu1uGtMzjX2kLHG05XPPix/3xGZMGz5t7lRW2djreyuPbr8+W/ILzTWNzGSpoqjmlpeVsGFikKOrLbW1P5vQl+lT39J4YMPS4PYQ6npfBm/Ma7nfvecfN/v0RoBAAD0LwIOYEBZa3X16lX9/rXfq1wux8NTBjHckKRgZItO3/F51QYq1B/I8k63c9o+VNTykU8pdJKpLTcuhumcZrfv1aWH/1oFKZ5GNU9HIK6pYYwKNtTVh/5ak3sOy7j6ttYZnfe2KCgtdWU2lWgFrbNaevgvZXaP5TNAuo3oNWutlbVWr7/+us6fPz+wr2UAAID1IuAABpBzTtZavfbaazp58qSstQPXpd0pWfRSurXvbk3u2FdreNe2Nattrj3vsJyG9h1UaXRrvUdB7fFo/bww0On7v6r5z35FhaBSXbc8NUxr6+oFvkqf/rxOfvHbMjaoP25MYuYUp+WhEd0InExQST5J59fL1Pe1sVaVsTvkf+Fr8bHJ0y5ejajgqLVWFy5c0MsvvaxyuUzIAQAAkEDAAQwgY4yuXr2ql196WYVCYTCnhZVqrVijyug2XTxwnyrGqzelMwk3XFxc1EjasmWrlvcckFfrHRM1uOPvJTkjKQh06pG/VbBnv1QbxpKHIxGvo3Oy23bp5KN/L985mdoD8R5OhBxFG2qiMKylSjl+BueUTeKQCDlkpNLnH5X2H6mtWT7rndyOc06FQkFvHHtDFy5cGLjgEgAAYCMIOIAB45xTGIb62ZM/08TExMD23qgW7DTynNWNg/dpsnla2CwZoxFj5O3dL394tOHnrd8beTbUrb1HdP0L35SJalfkIWyKhqF4nm597hFN7L9bhTCoFhuVUrfXSfKNp5uhpMDvasjg7zmkype+Kbmwuj45Leq6kqgXx9TklH7+85/L9/3BCy4BAADWiYADGCBRN/Y3j72pY8eOxT9Lfs275LSwngu1vH2vzh66X0FXpoWtfW+ttm3dJn/P/voiU/5JsoeDlXTpsw+rtP/O+lN2fi07pl57Q6rs3q9LD35NVlpx3yYfmfSGtLhcij9kGqbz7aRE7xHJqPT5r8scuVcK/DjkGBTNr+Xjfziuo0ePyhgzMK9vAACAjSDgAAbM3NycfvSjH8Xj8wet94akao0LY+QZ6dS9/7PmR7YpbpJnXHdDMtpufenQnaoMjaQ83vhvqvu/+mdhx5jGH6zViejjHgZxGGGMPGt18/5HND12hyRT36Z221v71vcKumwLKpQX5Uz1o8ZleGyqe9gp2LpTpT/7b/IKheqGGNOX+3gjokBjeXlZ//rDf9XU1FSvVwkAAKAvEHAAAyQMQz3//POanJqU59Vf3oNydzdueDsnz4aa3P8pnd9zZ3emhY16jdhAO/fu1+L2PTLJ2hsriJrYTkZX7/0jLR+8R8728TCKWrjhrJW/96CufO6rCqMyqrc7l0z99+aLI7pVKqsYFSV1LtNz0UkyQUWLd39BwVe+Jdmg4dgNguT+8zxPi4uLeuaZZxQEwQr/CgAAYHMg4AAGhHNO58+f19FXj6q8XJ8WdlD5o9t16o4vxEU7u8Np58iwFu+4V3YtU9HGj1vNb92lSw/9pYrGqze8+6gB7hLrVJTT5Yf+StM798tE+3mNvTAuFbeosrTYvWljjaTA19IjfyXtOxzv2/7Zw53jnJPv+3r99dd16tSpgQkyAQAA1ouAAxgAUXf1o0eP6vLlyw0NnYFq9Lj6MJQbBz6tqW17GgOOrGpv1IxKKuw7rKXh0bjBv7YlGhkb6NKnvqiZBx6RFwbZDanZCGNkbKj5+76k8/d/VcaGWsuWRr/pSVr2hnQ1lOQnpo3NqBZHtHRjrSq79qvypW/KFIu1SVUG53XQ/JqeGJ/QKy+/osXFxYEPNgEAAFZCwAEMAGOMrl65qpdefEm+78c/H6RwwyW+lkd36PKB++QbT2uNGNYrnhZ270F5tQa/iR5Y5b+Pvgtk9PHX/l52516pHxuk1kpbd+jMV7+nsleIf7zqPV2rieEkFeR0qziixUo5MVQnG8mirpLT8gOPyB64S3Kmez1IuiT52q5UKjr62lGdOXOmYWgaAADAZsOVEJBzUTf1J598UvPz8wM3a4qUnIGjOi3s9UOf0eSWXfVfaFf0ckMLdQ09RkaMkdl3SEGhqMZwY7UJR72RXbBWU9v36doX/0Sm1iB1Pa7F4RSdM0bGeJp44FGN771DxbBa26FlWtjbSYQcVkbj1shW6r04XBa1MeKirpJkFOzYq8qXvyXjVYvS9nofd1ryNV5aKumXv/ylKpXKQL32AQAA1oKAA8g5Y4xee+01vfXWWwPZPT0ZbsiFKu3cr/MH71NXm6rWatu27Srv3Nv0wBpDlajRb4y80K9OG3vg7vrjvWyYunofmdKBO3Xxga9VQw/jrT3ciCT+zYw3pPlKuSs9KeJlOKfl+x+SvedzAzltbJK1Vu+/975eevGlwZw5CQAAYBUIOIAcc87p5s2b+tmTPxvIcENSQ8Pb8wo6ffeXtDC0pf54xnU3JKPtLpQ9cFh+caj2k40v10ha2L5XE597WCoOS6YP3o6NJ3mebt7/kGb3HLr9jCmrecra18B4uuE8mfJSPF1sPbzqsMSxCUa3aflrfyMzPCLZwevdlGSt1RNPPKHr168P7DYCAACspA+uqAFsxHO/e043btxo+NngNW5MPC3spbG7JZfxtLANy/W1a2y/lnaOdaTBn+zFERpPlz/7iJaOfFoKq7VTenHs4mWGgcr7jujyZ7+qwCvIRcNqOhAiGUmzhRFNlpY1FAZySoQcGTJhoNI9X1D4lW/J2D4t6roBzefLrVu39B//8R8D+B4AAABwewQcQE5Za3Xq1Cm9/vrrCsNwcGtvSJKz8rfs1Cd3fkE2OaNH5r03nPYMD2v+yH1ydg3Twt5O7d8bueq0sX/0XRVVDT1UqxXRLfF5Y4yKsrr80F9pbvvudU8L28IkC3waXShuVbm0IC8ZbWSwvfEwDWOkwNfiV/9abt9hyXYrHOue5GvfGKO333pbH37w4eD26gIAAGiDgAPIIeecyuWyXjv6mq5duzaQDZmG2hteQZcPf1YzW3Yp+3v+daNycofuUmloWEbrmRa2vbgUZhjo6p0PauqLf6xC4K/4b7Jj5IWBZu9/RJc+/RWZMDFLTEeX4lQpDOlq6El+ucPPnra8Gmflb9+jylf+RGZopPqjAQoCk6y1unnzpl5+5WUtLS0N7HYCAACkIeAAcsgYo7NnzurVV18d2N4bESenxe17dXn/p+Qbo0x7byTCE09OW7bvUGnXvnha2CyW6zlXnTb2q38vf+xQD3oYGMlZhTvH9Mmj31PFePKymN2k9m3BWU0WRjRXrsS9RLKsxVEdYuPFBUfDOz/T+eX0geRr31qrN4+9qY8++kimyz2CAAAAeomAA8ipX/zyF5qdnY27pQ9aIyaq/eBJunboM5od3a7u9d4wGvE8aeyQbKFY723R0UUkZlSxoW7tGNP4F74pzyt0t06EkTzPaPKBRzS+54gKNuxo7Y36cqrPaSSFxuiGPNlKJT6imR9Z5xTsHKtOG1ssxtPzDpLoPcBaq4WFBT39y6cliVlVAGCNBu2aCthMir1eAQCrF33gvvTiS3r7rbe7MuVmLxlntbzrgC7tu0fOZdlzo8ZFy3Xatm2HlnbsiX/c8QZ/9HzOScaoGFQ0fuheHR4alueX1eE4pf0qSHKFIc3uv7vaU8Vku5+jS8Y5M6RZf1m7R0brj9XCuo6KgqTawpfv/aJG73lA5vR7UmHwPgKdc/KMkbNOH374of7lX/5FP/jBD1Qs9se2Rsd3szYeBjGMHigu/l9nZP55Fa3roFwNZPvaWMuzFwoFFQoFAmIgh4zjkxbIlZnpaT322GMaGR5WoVCUk5NRry6as1lm9Kw2tPr/Jot6z22p/zSri43E/ttVLGj43gc0O7pDJprvI6MhMc5VL00rMvpeZUL/MPVBdeiGMYlkZdVPp3prXrI2VBAEt/1nxhi9NPagHt/2KVXPqIwCHUly1ed3kna7UA+OFuUneslE69P5xUbFVD3tm5/QX1z6vYaM62ZJl+5JhDqe52n79u3asmXLuvdr9Tzq0NCpTjcgV1pMlzjn5Ky9/TKdq52HOW8wZbAJPX8Z1s7LMFz5/XLVn7PGyNT+ZMr2fM91VNZb46xVaK2CMKgG6iknslP19Xzo0GF9+Y++orvuuqtvAmIAq0PAAeRIpVLRBydOaHZ2diALi0ack4pG+s+JZf0/l0vyk5c9GQccI87pyJ336Pq+I/HFbDYXqfVww0raLun/Nhf1GVNSaDZe4NM5J79SWdV54kkaN6P6v4bu01UNVWd0UXYhR/Jj5/6C076RIZUTl5qZ7O9asCJVQ47vLF/R15auKEwmQgMiuf820sgyxshaWz2POn2pMCiXHsbIhuGa3o/tgDVKB4OTtXbF47iey+XotZdV2OE24blU3Y2mGsW32fzkY8mhe0EQyFq7qmNpjNHWbdv059/9rg4fOUxPDiBHiCSBHLl586aWlpbiwqLJBngm3fu7LNoGI+lqKdSPrzeFG9ktOP66b8d23Ro7JOtctvdZE5sVyuj75pY+o0X51sgYt+atTh5/55wC31cYhrc9J5yqAcsht6TvB+P6f4t3137SHWdDaU8YyCsMdSVmMJKcs3p9+KA+VZ7Ufn9Rzpgsbkr3TPO5sJF/66/yPFrjQuKhWXlnnZMN19a7hYCjt5J1q6KvyZ4bzZ+l8d9dreG8uoUkzu/6u0sUdJjEY9VfNXFvzNs+rSRn1Ne9N1YKH5oZmVW9+Ta/lyWvgZKFqtOW7Zyrhxu1/Zx8nzOJ4aLxehmj0tKSTpx4X0fuODIQ11jAZkHAAeREqVTSxMSEKpVKaqOl+a5t3iQvHqyTnr1V0Y3A1e+vd2GbdhQ8uYN3qmQ8FaLwKKNlRUcwkNH9Kuv75qZ8Z6qbuYY8/8sWAAAgAElEQVQeHGm9TMLaHeXk3cPbPIl8Gf15OKHfF/bqLbOtcahKh0Wjb+SksowuVpzuHbWqGC9enyzqnZhaLw5P0pIp6t2Rw/pueF6es3Fvlfy9cjoj+Z4SfR+FZNHPNvS+kjY0JRqukaOd3vzeaxOzWEntX2tp+zeP79N51dzoTd7Vbx6WknZcnHNxwLGq45YMSGTqje/EsTfGi3/NJRvnLU9lmn6n+r+G865pmRvR7Y7dVq4hrHG10CfudbdCcLEaUVCb/LuTk3GmZd8qcXyiUOT0J6f0wIMP6p577iHkAHJi8MrIAwMm+uCdGB/X9NRUahfaljsbOety37z+ZxcDvTrjK1AXwo3asouStu7eq9mtOxvDjYyno90pq//FTKqgtdc4SDvKNgwb7iiv5WLMSvrH8Lr2Kqj34cjkYrceJBQljTujuSCMP5CSF7WdXWy9NkVRTmeHd+tycWf9cZe3V052wjBUmHiv4aK+VfIOsrT6fZRs1DJKOHtRONEsPdxY4XnWOedT2tA755ysDVc1XCL1PGn+J6s491z0n1v5TyclnzcaAhSGYeJPoDAIFITVelFBECgMwnjYl6vtn+QxTM5q1tojplE0LCUpDjXkZF36/k/+bGhoSK+8+JIWFhZ4HwRygoADyIFyuayLly7Vutc33glKldNrZivJt04vTFV01bdd67lhJG0bHpbds1+BSbwtZlV7I7HcR8yivqx5VVxh7b0IUrrsBkH9jvJqLsaSywxkdG+4oEftnApK1ivNJuSINtRJuh46yXaokOWKi62HHIumqA9G9iswBblNfOGa1vU7DILO9jRo9xQ53u2DXAdp0FXDhcb3m+p5vpqgYO1aXkOJngNRw99at+pcN/41Y9p+TrUEF26dK3+b566vfz24CMJaWBGGcXgRPVb//WibXcNnWUNokZhePPmzFfZIzCaKiSY1f8LGQUfKc1SHL4VaWlrS8T8cJ5AEcoKAA+hjUXfIT06erFb/Tt6Zz3PLICHZ7XbYkz6cC/Tb6WrvjS4sXFL1jXDr7jEtbd0RP5R1/Q0jaa9CfVfT2qZQZoNXnk7VIQXOrb/RZSQNyeo74aQOu0p9jTK6pkvu4xlrNB/U90NmvTianBnarYtDuzTkwniZm/0SNvCDzhcVHQDNw0zW1NjJ+RDCvEo7RmEYtIRTqzsmUSK7/uNXbaA3Pp0UnU921b06knWj1MGeGC29LRI9LpK9LJJ/6r0x6sGFs8lgpTlgUENQkQw0Vt8LqjHoaN7cKNxoeDNveO70YUhpQUe0HZcuXtS1a9cIOYAcIOAA+tytmzc1Pj4u328qt2kSFwZRRfEcM5KMM/r368uaC7uwLfFFitGuoSGFYwflm0K8LllPC+tL+ppZ0Be0WFuN+t2qVT1T0x2voGnGlLU0opovOO+zC/pTOxPX4MgubDDxbg4kXQukorXx8JhqOyKboSrRji6bgn6/5U6FppDhce9fzRfrge8rtOsb4rTONVBeupwl90X0Wlttw6xtB5ZNdr51U0u9BFctJlqdHrRurUOLNnrIjKJeCY3nTvR9Wq+O6mPxZiSeqzUgaBcY1MOPKLyohRYpwUXc2yLR48I1fb6kLivaljX8zsr7Siv2Uom2q/nvQdAYbsRFROO/Nz3WvP+djYevRM83Mz2tDz/4oKGeB4D+RMAB9LEgCHTp0iWNjIy0vWsQFcxKqxre75K9N4pGevp6SceXwuSg5awWHH875ELtOnREs8Oj9d4DGQ5NiQps7jdWf6cpFaPmvFtdr5Fq7bXWRul6w400npy+Hd7SPa4sq+xDjuj/0zK64QcajeK61pt/nVtq7XkLcrpa2Kbfb7lTXrTATdKLo/k8iu7SRjre+E67g5qDfKN6SiRmbGj6ftUaenEknhwdlXZ8nHMKbdDwmZPV1K3rEa9HHL6Yhl4d1aEd0TCT+jljlVbbohpS+EEg3/er39e+Vv9E4UWtxkWyzkW0LqvsXdEyvKTp32cpraeKtbYlgEhb7/rAl1oQpuoHc/TOnww6osKyxhiNX7+ha9euMTwN6HMEHECfcs7p6pWrWlxcVKVSafh5UvMdmobn6PeWQ01B0oXFUI/dLCsugdGN2hvO6eDOXZrac7CxR0SGy3ROsjL6vqZ0t5Zlo6WtvutGw19t09ClTggljbllfT+cUCExeCbrs8lIuhwaBb6vQsbLipYnSQVZHRs9rGvFndWQYxNIr7vRhRookZV7i/eZ5tdcY++p1Vpd5QBsRGu9BVXvxtuwsefDhj9fskpe673LGjufuHjISHNBznZDRZqDi+STrtjDYk2r250wo1lasLhSQdHm75v/7mp3GNL6UEZBRxAGml+Y1wcnTqxuGBGAniHgAPrU4uKibk3eqg5NSdyFut0FSMOHbk4+fyvW6Vc3y7rhd3eFdw0VFR68S4vGSxsW3VGudqfayujLKulvNdkwb8qqem+06Yq7npkc0iT3QSijr4eT+rqbU5hxCzRaZU9SRUbnAqeiS+ydLC4koyJ/teWWjae3Rg+rbIrxMnPy8lm7lP1ZrbvRo1lT+nhHN69adFdd2mC7rk96DgyS9Hob4aqn8u0fpun0SDTEE6FFyyw+ahoylRJmrH4N8rCf6m4XbjT87DZDZNpO9VzrLXP1yhWdPn067uUBoP8QcAB9yDmn8ZRpYdt98K50IdKPzbSoy3fkzGKoN+cCudrwjW5c/BfltGX3Xk1v3dE4LWwm6mO+t8rq+5rUkMLGSvjrEPh+y7joDUs0/I2s/im4oV3Jdc1oRpVo6E5B0oTzNOOHKmQ4h0ttsfHzF53T+aGdujy0q+E86L9Xz8Y1b1MYhE11N7Jcen4aTZJawqDk1Lkbads0nGM0kjasbTHRDRRdThcN2OvGeRyFEol339qQkHiGkZRAY+Vn7F2vi05pW3MjYeXPwobKo22fNxkKRcNYollVXn3lFVUqlVyFQMBmQsAB9KHl5WVdu3ZNQ0ND67r47f9eHPWGq2+dnrlV1tWgW9PCVpe9bXhU/p4DDVO23q6Y2bqX6OqXxF/Xgr5gFuTHnWFXV1i0pe5GEHS07kb8PNUni6eNvcsu6M/stLzosQzThijk8CRdC9UQ3qRV4+/MMmvTxhqpYgp6b+SAlk2xa7O4dFvqmPWguWhehq/BNnem88A21xtYz2supcs8jaT1S58xpNoIbR6a0YmaG0b13njdkNaYj79G297mvXEQwoykjdTcaHg88b7T3Isj7XorrVirnNMbr7/eep4B6AsEHECfcc7p9KlTcVGwTj1nv0gWeRsy0ok5X6/PdWVS2DhpKEraumdMpdFt3Vho/N2YQn3XzGhItv7mu4prz7RikGGHzo32TLyOfxJO6i5XTkwbm/0V/pwzmgnC7tXEqC3mUnGHzgzvUdHZgZs2NvXO5xobBx3VsKj+28tpjamNGoymZn9I+1yL7rC7puFWGxpNlPzXWY9lbLcOxshZ1/zDTXM+tRt+tLaeG51bF9/3de7sOd24fj3z5QFYOwIOoI9EQ1NmZ2frd2dWySSKk+WBMVIldPrpjbJmmi/csuScdo2MyN+7X35iLG42d7mqU/x5taV8Q/P6nFts00G23eqmFBXN+KLONK3YnXZJ37Izcd35asO/o4uMlxxtSijpeiCZsD48JrNeFYmGQsV4env0sMreUD1cGaCQIxJ167YpBQgzl7aYPt/B1tqN995oMiA31nsitciks/E0sJE8945JbkdD74Xoc6t5H/TRjYxOaldQtLm49nqPdXNMdLvrrqjga6m0pJMnT2p5eXldywWQHQIOoI/4vq+zZ87E1dDXLCfXN07SiJF+NV7We4tZl7CMFlrdOUPOasfBI5od3lpfbmbT0Va/BJIOKNDfuVsaairZudLFVNpjnSwqupIo+qnWxXD6TnhLd7qKfGWdo9VDp1kZ3fRDjSQqyWR9inuSrhe36Y0td6rQlxVs1qclKGt+j+nq3WCT8n1/NUTbDQ3IYmrR9GEWaCe9wVstJprJ8vrhXSB5jjjXZ6+W7gpXWVB0Jc03hNbz7met1YXz53Xt2rU1/1sA2SLgAPqEc05Xr16VpJYxpat1u7GkvRatU8FIZxYC/WSiLOclGq2ZBQ3VJXjO6fDuvZrac0Cm48Xnmhfp4robRkbfd7d0h5YVuvaNp9vJpKjoCqJrQCtpryvrv4c3VFC9CGlW51i0XE/SRWsUBn7Th1U2vTiiZy46qzdHD+lKcVdc6DTPvTjS627UGwgb7cK/IX2Yb7Tsr0TjstPnfL+/Z/eTdkGQtWHL8KEsgqheiqYmTtsul/yTSa2i3kg73mnDMzvTm2ptvTik6vtopVLRBydOaGlpidcv0EcIOIA+sbi4qJs3b6pUKm3oedpdMPf6wze5/HLo9MuJimZCl30vioQdQ0X5h+5UaV33a9YnkNFXtKQ/01RcWHQ1x6Llwi4I1terpwOigqOP2Cn9sZuTn/neM3GY4MvojN88bWxWS61/rcjondFDWjZD2SysR9JmHOgPXazcuEbdDBWRLr3eRm0a2KbjM2jHyKUFbIlAtuX3u7ReWWpXcyMMw4bju7Fp0Rv/7XqeKwxDXbtyVefPnWPaWKCPEHAAfSAMQ92cuKnS0lKmy+mXD9/35wL9fs7v6rSwQ5K27t2vqS075GU+xKNeSHW3Qv1vuqnhhqlW1VIwbqUwynagS+66JS6kPWf1vwbXdEhBU8HRLJZb/eJJuuU8TfuhislpYzOsxeEkDcnp3NAunR3eU3+8T14/a3G72XcoBNEorXdVN943B7Fh3intiolaGzQUE81KL/o3bXgmtBy+V0VWCjeSj3e+9tTa65g552Sd1bE33tD8/HxH1wfA+hFwAH2gVCrp0qWLHZtyrN+6PUfrYCWVQqffTlY0FXapy39t2dtGR1Xec6CxfkUXFv9NzekBN5+YFra2WkpvOPXbTBfJXg2hjO60i/qLcDLzD4/q9H3REB/pSmgaxth349wpm4LeHzmgRTPUtRogndTaC6i1tk9/NKlrSafrj7VJ6sTMKS0a7kB3/ukHSfp7ZGsxUak774s9CTtq52BaCJa2NoN2SqXVJOvYtOgt+3Pt107RrCpvvP4GISXQJwg4gB6K7g6ePnVKxphsLqbV26EqyeUNe0bHZ329Oe8r3tIsLwhqyx420ta9+1Qa2dJ48ZfBsqvHtHqReYcC/YWbllR7szWmYZmrqcXRraKiKzG19Y6GqnwznNS9bjnu7ZDNOVWNNqI276KTbgW2YdpYl8V0tbVGRPSs14rbdGZkLHczqqT2Agqb6m70y8V4vBr9VT+gufdGxxpVbZaFRqnhRvPsGbXzOMtz2ZnEe05D1JnNMWuZPUVKH/5gjFzKdmfeuy4jbWtuZBRupD2fkVnzDaJo2N+lixd06dKljq4bgPUh4AB6yBij69eva3JyUr7vZxZw9ErzxUHJt3pifFmL3bjuSlSc37llq5Z37VN0mVTtHZDd0JTomb+lWd2txpoqJvkLahzf3ywMgoZeC/3SIN3nyvq2nVJRiRoqWRUcjZ5e0g1bnf2jYQ6BjOtxBPL07shBLXgj9cX1eciR2gsoEZT1x3nU7t5z79atsWEphWHttZlJA9q0fMtsKnXtiomGtvs9kFp7bRhVa3lmv/Rk7Y20c/C2PThycj6lD0tprTvVi/eu1bzbRwVHP/7wI5VKJV7HQI8RcAA9VCqVdPHCBRWLRVlrO/rhvdJzdb0Xh6QhI/3s+rI+KnV3/P8WOY3uP6zF4dGMC5rWe26Eku50vv7MTddDgMRMFQ3dYFW7eG16tjAI+qoYZHIbjJy+Hk7rfleqF06VMrqYru+ZRWc04VuNymY/ZKR2jhg53Sxs0Rtb7mz8wMzJ9asxRmHQOstEf3J907++WtuhHpJmqU82uS+kDt1zrqWYqNQvQV1nrWeGLRO/L+fzXGrXczEOGGu6dbxN7b/aX1bNWqsrVy7r0sWLBBxAjxFwAD107do1BUHQOC3sAH4wFox0biHQ4zfLst24Rol7b1gd2LVbc7vGsr/gSDx9KE//VZM6rOVVtYOda2wvu14WFV2l3a6s74U3uzMmvXblbiRdtUaBX1Eh+XjGx9aT03sj+3VlaKcKLvNoZWOai4r6fsPQlL7R7rTp0W5t7r1hE0WAM58zqEOzQgyElmzDKbRhSzHRXu6nOKjOeBVc4oNhzdub/P2cXVO0FEJWF453czqU7Dq4yt0XhqEqlYpOnjypSqXS2fUDsCYEHECPzM7Oaqo2NKVBRr04Wu4MZdySSC7PD6UnJspaSC6yCxeoe4pDKh+5R0vGayiWmQVXe25fRg9pSX+hSQWpfTbS1sPFF3TOOfl9Gm5EvTikasHRR8MpfcvONvbiyGq5tSf3JX3sGw25MPNeHCbuxVE9rq9vuUMVrxg/3m/Nhmi8fvx3axvPJdM/51JVyrqY7GobtNN617zeeyOqP9NpfXUY+kDa8BznXEsx0V7Vjml4B89o8Y0FsE3LTFsrat4nKb1g+knUU+d2szw118TIipGRSQw58szam0fGGIVhqIsXLujMmTOSqK0D9AoBB9BlrtbddmJiQgsLCy1jTLNedv0vXVqOpONzvt6e82W8qNtn9oVFhyRtGduv6ZFt8V33ZAO9wwuN/79Xof67G28ohpl2QexS1sVZqzAI5JqGK0UXgv12rWTl9M/hVR1SomhsRsNUot3hSZqSp6nEtLHZLVdxcFOU06XiDp0e3tuwzH45JGmNw5agrK87sEeFKKRez6Zi19Kw7JDo/N5sDaJ2dUdsbaaUBj1Mhbr9Sk/ul/4KJTfOyaVef6SFG119y2ro9OJWvEG0kqGhIb391luan5sfuGMH5AUBB9BlxhjNz83p+rVrXRkXv+IHbMbXbFbSTMXqPyfLmrK1i4Su3I2Rdm3d2jItbJa1N6TqG+pfaEaf02J9Wti0KveJAqjJnwW1uhtO7S6oXM/DjmQtjlBGh+2S/jKc0lC8hvX/d3zJtV1ZNE6Xw2qX4OaeMFkt1qm6ve+P7Ne8N9I3wYbUrkBftWZBvTs9F9pp0mabUa1uDvusN6y1DcWVpXqdiZ5pE1Jn9T6wrpnPmgNz1devn96vVhVumC6HGykaanFodSFX9DleWlrS0aOvdvUGFoA6Ag6gB86ePSvnXNcK/7X7kM7irlRc9V3VwqLHZnwdmw/UlS2tBSjDxqiwd7+WRuqFRTO7VorGSEu6SxX9mZuWSczzkRza2/ZuZa3mRmitbO28sLcNMXp3yZrctlBGfxxO6rNuqf7TjFYtXq6rFhydDKy8xPmWzXIbz5yrxe06PTwmL15m//TiiIRhGNdwcerjhnramPfm77us4T25iyli3x6jLrM2lG2eKaUP9k1qvNLBhGM9xUVTNe+rxJTX/dA7qF1B0ZZwo0dalm3a/Pw2rLW6fu2aLpw/3xf7HdhsCDiALok+5K5fu6aZmZnW2htZMokLtJQibp2SDDeMpEXf6hc3y4onTunC0BRZp11bt6m8a0zR/f2shqZENQ+iEOPbmtURlevLqy1zpekfwzCs9kRoukPpnKt207ZW1qaHHfXeHNHzd/FCqrZ9RtJ+t6zvhlMakZNXi82yuairDlWJtvRGKAVh0HiXMovlJo5NKE/vjh7UbGEk3tZehhypU8L69a79/dA4XLMeNQiSjay0IWSd1u7YDHqDqPE9qy4Me1BcckNcJqeIs642RCJ6m91YgdGGkL9H51a7z8B+CjfS1iF6548Kvt7utRk9HoahSqWSjh8/ruXScnYrCyAVAQfQJcYYlctlXahNC9v9qVrX0eV1A4rG6Bc3yjpbttnfkU1sz7CshvcfUqk4XF9shnU3jKpDcT6lir7lZmQS+9msEGxEvTZW6sUTj8tXNeyw1q547JyLLiTXvDFr1nzD/Y/sjB50SwoaHsu2HseSjMYDq2FnuxJyVJfuNOmN6M3RO2Rcz3tRt/B9v+v1AvKqeRhAbxparcvph0ZeVtLev9KKiUr9ux+yHixT3w/J/n9rZJrehRM9OWofFOtev7Vqd8z7MdyIJI/xWtYrLkxd+zo7O6tz587mZJpuYHAQcABdYq3VhfPn5ft+d3tvrEKnA4+ikU7O+XrqVjkxriD7ixfPOR3aM6bZnXu7Ni1stTeB0T9oUgdUrl1Mqu1dfeecwiBQGIZr7pbsJFnn4qEsK0QdK/Ya6TQnaafz9b3wpgoNXaKjRzut3jPnmvW0HAQqZLSk1qVWp409MbJf54f31IvJ9uDOaMsMBH5TYNY/7YUVJFay4T2iywFwj+5s91GbLnMt+9gYOWdlbeN7Ya9mSlmt+J232iWi889fK3DZ0XOyj3oFRYXW+zXckNT4ttQ0k8tqe3FYa7W0uKiTJ09qaWmpr44BMOgIOIAumZ2djYemxEM5ujzGu7loViclt6UUOP37+LJmujEbQWIRu4eHVD58j5a7OC1sKKOva0HfdNPVITFRRcoUNgwVBoFsm+Oe/Gn1gqr9XaTojrO1KwcZ7bqDd0JyjaykL4fT+m44o0D1/Z9lO7W6/6WzvtOQrQ/LyPqs8yT5xuj3W+9UyRuq11jJeLlJrd37w5aCdv09a0pNu1XMOp/si94bjfqukddBqbWHaudsc7iRF51a04ZzMYPPzMzrUK0gbXr6fu650QnN23Nr4qZOfXJqc6WZQI8RcABdEASBrl29qtnZ2YZGSLc/2F3tv+yev3oR9daMr/cXgvr2ZbmdtXECw3Lavu+QJke7MS1sfWjKboX6gcZVlK2WFm25SWlqdRF8hbY+lCK6S5l2DjSMAU78TvLfVP9Ew1dae3WkPW82ZTHigeIycvo/wys6KF+hsr2gjmpxeJIm5emmH2o461ZxohZHwTldKWzTx8P76iuk7oQcaT1/wiCMX9v9fge8Vcq6Zrj+za+D5LSwvS1w2LNFZ6r9LD9hy3tdf2uMCpxL/mwDz9qmd8BG90eyrlOWn4XtpIYbfpCfQCtxj8Ez9ebSWtbZOacgDPTmsTeqvTgAdAUBB9AF8/Pzmp6aVrFY7JsK4Z2q2t7cO2C6YvXMZEVzrjuF+uSqGcfOrds1v3ufvGTRycymha02JQuS/lozutMt1aaFTSn4mJj6NfXZNpA6OLUe02qvDttmzG9zUdKNN8jrPTWcQhntsiX913BCQ6oXA80oWYlDjiFJF0NPlcS0sS6rceaJIMNIOjGyX9OF0YZx7VmGHGnni+/7si7HY7zTXqYZ7cTmYVPV10J13/W6sRUd2m4OL8tS6nY4JxuG8T6vPp6PQC6LvL5hHyXflzt1/JsKjjYtvDPLaJJ23KPix7kJN1TrAZd4TUbru9bXp3NORkYvvfhi9VpgAF7bQL8j4ACy5KofbmfPnpUf+HGjs5cfcGsZS7oWTtXaG69P+/pwKbjt73dmodX1H/Y8FffuV2loJFHyI/sO+veorD910/JlWt5MrbUt44wjnbqwa93CeuO7oVdH3LOjdZhLdFG98XOhujbLKujRcEoPum7crapvT1nSzcDKdLGhbyTdLGzRx8P7JWUZ5rQ3cN29M1//xgZWsvdGrxseyRkzcn8cUzjnFNqwIYyLeqLlz8ZXuqUnUaK4aKbHP5nUdPicX6mgaJ7CjUhDsdE1HvNkWOUHvi5fuqTz5893dP0ApCPgADLiXHXoxLWrV7W0uNgwA0Y/fbg3j0Vf079taCxIcxWr30yWtegSP8yYcU47t25Veefe+vCMzJZWnaHEU3VIzLfcnA6r3PgbtQJqaUVEVxw6sIGQofE5U2p1RD07ErONpK/COpefWKwxRrudrz+10xqtDtrJtOGf3PSboRSE3ZlRJdquUEYfjoxppjDaUHA0i61Nq7sRBF0KE7stowKOSdX6NTnu+dKn0u/g25aZUvrpc3B1XJvvO/TsWdWsSkxZXl2QS/+agTyHG5JaLiYabhDd5hxI61158uOPtbCw0NFVBNCKgAPI0PJyWR+fPNn2Tn6vrHSBsaZGbu1XraRRIz11o6xTy13aztp6jkoa3XdYS0PDkrINN6LtDSXdp7K+oxkV5OI7OytN/Xq7i7oN95+I7oRGQUPaMuKgo32Yst6ipPEYb+dk5PTVcEr392Da2BuB1RZZRUcg63vyRtKtwhYd23KnillWuGnuXW5dS7iRq4bDbbnMD561TUVZ+2D/xauQ1RCrjKXewa/1ZhtMGzlGiZsLyTow3ajkk8G53nzsrXPyB2xIRkMvjjVuVhAEGr8xrnNnz3V2pQC0IOAAMnTh/DltGR3t+4u75PjS6O9rMWSk92cDPXazLNeNNkLUE8ZaHRwb0/SuxLSwRhldvNXrLjjj6R80qX0qyyq6O5kyi8UKhUTb2XBhueg5Vlhu1KsjrNXqaHe4k2HHas6JZCG77c7XP4QT2qp6XYrsrnNN/P8bVir51WljI5lcYCf2bdFZnRjep7NDe1TIYNrY6hCjxp5Wub4rejtRcZUOb1Nzb7V+2X9pi3ZSRjWEspM6U4q1ClOCpHyer3H6FH+/3pd5axgQRbKm1u8tY86tXJ9jTU+VXnMjDIKG583rcW9e741cK1UqZZ05dUpTk1N9ddMLGDQEHEBGZqanNTk5pVKplIs7GGsenpL4/Xnf6X9cX1Yl+QtZXcjE3WqlvaMjWj50t8pNI2WzYiT5MvpTN6eH3awCV53qMK3XRr9cyDWHLFH4EanW67DVGV5ucw6spWdHKKMvhrP6SztdK8AaP8k6tmL1AhmdCaSizX7oRnKGglDSa1vu0oI30tAM2rCU/RWGYUOjsV/OtX7W0qCMXq990ejq/LC1bkp/X6gWE23oJWMG4Vw1LdnARrkoPZdkjMtuZOftnngd51p6zQ070AFscy2OtbxGrbWamJjQ6dOn5Hk0wYCs8OoCMlCpVDQ+Pq7A93u9Km11rtCldHSqohOLQf36qQsXM6NG2rL/sKaGt8jLuhFQe34r6ZAC/UA35EkxxAAAACAASURBVLlQQcZFRDuteb2a17KxMGn751kp6Ghs3Fv9Y3Bd97iKovlNsjpS0aYVJE05o+t+qCElao5kXIujIKdrxW06MXKgo8tsfgZrrcJgs4QbTlmcMdEQLZNBkUXU6xA1z+yTfdnnnGroWZTxsjrUa6OdaJjmoIYbkY1sk3VW7733nqampjpU4BtAMwIOIAOzs7O6fv26QttaaLJfraV6QHKK0Ztlq/+crGhZ2dc7SKyBdmzfrpnd+2WSM0hkvFQjo7/TlA4E8yoHaywi2kfiYSxtVIew2DjsWOn3Vgo6rIz2umX9g52oD93IUm1kQ1HS5dCoEoTxh1w3zk0n6YORfZosbG34WecW4OT7fpaVPvpLNvmGXBffM9YjOclFP7+ftB2aELbWXejn7ViLLLbCNhQXzc9+SusVVQ036j8blOPerKHP6Bq2MXrN2DDUiy+8kJtrBiBvCDiADrPW6vKlSzLG9H3tjYYP1uYihm1aFslww5P0+nRFp5bD+m9n+WFdW/ZWr6DC3v0KCsX4oWT9h84usr4nPuOW9Q3/lhZt47SwnbhISU4h3LVQLDF8pd02uIZaHemFH5vrdMQ1QCQty9OjwaS+7BYbfj+Djan+V9uEQEbjgVMhcRe5utwOL7tpv814I/p4ZJ9cVCpwnTOqpJ0Hvu8P7p3R5m2JW/nSRo5Z83mZ/Lvr9FiDDUibCcllW7hmQ9pNBxqGrYVvB+k87US4mDZzmWl6/8pU86wqjSt323Mu7b0pCjcaFzM4x11K6wEZvU7X9pkd1VAav3FDZ86cyc1NMCBPCDiADok+pK5cvqypqamWbpp50LC+bRqy0UOepPHlUM9MVeoTpXYh3DCStm/fodKOPY3Twmax7MQyR+T0HTul3a5Sv9AZsIt3qf1FabVWh1PoVjcLS7TvPEmjCvXn4S1tl+1KLY7o/JywRkvNIWNGi422y0r6aGRMN4vb5EXNoXWGHElBEChM9jwYsPOuPaNO3dWOZhGKn7lP92Fj1tF/69i2mGhKuDF4Olz41kafqT2+Vmg+Viu8vzezKbPkDOaxV8Pb0Ua2MRoi997x41pYWMjdtSLQ7wg4gA4xxmhxcVFnz55VoVCoj/Huc9FdiHZ379spGOnn42Wd69a0sDVbjeTtO6TlwlD9h5nsZxfXyg9k9FlX0lftdLXGfe3O74aXmrJ/++GOZ2ph0oRoFpYo6FjNpdkX7Zy+ZBcUqF63IpuQw8RDVcqSxn2nIVuvxZHZcqN9JWnGjOjNLUcaz4813uFLsuEgT7OZ1OHGY/N+zOF4935a33Z3qluKiYp6G201D+lJvnt2e5c11+NYx+dOFG4MbM+yNG2G4Kz1tWqt1dTkpE6fOsWMKkCHEXAAHXTu3DkVCoXcNUaMTHyhdduZNFSdFvaDGV+/mqzIduNaJlona3Vg75jmduxu7L2RyTLr34bG6L+EN7XXxX1VOrLc/mm6tNdysWpMvPFx0GFX7tUhVaeN/Tt7UyNd2Ork7CYTzmgpCFSUGkOODBXkdHJ4r04P71PRbfzCNQgGeGhKUupmde5ouRw1IvJyiMMwaC0mmniPGFzr61mUPJsbZ0/pgx3W/P6dUl8labMUFE1qDu42EuRZa+X7vs6dPav5ubm+CjOBvCPgADrAOaebN29qcX6+ZZx836tdpxnXfnxp8qsnadF3+mG3p4WVtG9kWKVDd6uSvKzIsO6GkVSRpz+3s3rITsczgeSm9dFBca8OpV/URWFHu+lmQ3l6IJzT39gp+fLiXhxZ1eOIVjGUdCaQhmyQfRHa2nlRHc4jvbz1Li0U1jZtbFrdDbuJGhCN8ZSiLjfaaNDRHMD1435MrlM/rV+7YqJpjdt+Wu8s1DcveU6u7txsyQ9sH1wntKt9k7BZa26001KLY4O9OG7cuKGTJ0/KGENPDqBDCDiADXK1mQ3Gx8dVWl5uqoieIw29VV3r36PvJb00VdHHpbDr08KOHjiiyaFRFRK1MbJkJd2piv6P4KqSF7HZDIjJl+bGTPXv1e8bp5uNjpWTk9M/Btf1KbdcD4uyWr/a14KkORld80MNNdSYyWaP15frdKswqvdHDsqa+tCYlZbafHEcBkHueoN1TPL0WEe+0dIgp+GwLqnFRON6G3l719q4jdXKaKxx1Tc3QlaYOrZtzY1NGm5EGj77NvBZ5pxToVDQxx99pOnpaXkezTKgE3glARtkjNH09LQmb92qpe99ctGyQe0uvq6VQr0wnZgWtgsXNp6kndt3an7XvoZpYbOqvREpSvqb8JYOuVL2vTeaesrkRUvQkXgs2avDOqdQRnvcsr5nb2lUWYcN9VocBUlXQqNKGGT/oVfrPOIkec7po+ExTXpbb3sJnHqHdLMU7ksV9aGKbKwreLImUt72Y6/eE9o2bpvrbWyCnhvpol6Ot9/2tHowfWuFYxnX3Gj49c147ButpxdH9HthGGp5eVlHX3118wbaQIcRcAAdcOnixWodgqjx3c8XL+tUHU5Q7b3xYSnsToxT249bCgWZsYNaLg41d2DPYJn1Lw+4JX0rnFSZknmrVA+BmvdXNINFyUmPBrf0R3Y+83Moea5UZHQtcDK1egGZFjlNfDdVGNGHo/sVypMzZlUzqrTr/r+pbCDfSBtOEX3N037s5aq2CzdaionmaH92Qqc+CZJTF/fFPkwpONp8Blgb8r7URvN5sZqQIx7SWPtsvH7tmk6ePJm7mxxAPyLgADbo8uXLmpubi5N3t85q5P2g3V0Ip+omXVsO9dyULz+u8JnhdiZqfmzfsVOL23fV1zOrZSdqb2yR03ftlHbKry+vEzOnRItK+VnfXOxuRLSPmmZiiR+WNGp9/XkwoZ21fjFZ1uIwRnK1XhW3rLQY1BtomYUcpj5TjJXRR8P7ND60XV40m0si5Egb3x4EQS6mM81E201d213RiE3UhMnDfmxcx3pE1602T7uZUsK0mVJysD+zUJ95TA1fVys5jXZfNWZroUba+3G15gbHP6n1s239NXTCMJTv+3r37be1uLjYkfUDNjMCDmADlpaWdOb0aRUKhfhng/Shn7zIGZL01I2yrvj2/2fvzZ5kWe77vk9WdU/Pes7MnDlztnvuggvgLiAAAhfESpDERlHUQomWFbItKcIv/jv45Cc/SxEOKxzhcDgUsh8k2WGS5gKKIgQKFMGLuwD37Gf2fZ/prSoz/VBLZ1VX93TPdPV09+Tnxrkz013dmZWZVZX5zd+Sv/WGUe54aL3hOQUgX3Ej+n4NfE6f8cvqMGmKm0N514Gsa+ItdcKvyOPkRn1eIgdBn9YRbPkaVzUskPIUOYLS4UQU+avxex3lXZBSJsyUR+l+chUMk7iRpp9V1mQLG1prpPTRWZlSLBciCi46SIJ2K2ELQIaWG1mfsTS4TLDR6LPVapWPP/qoKfWuxWLpDitwWCwXRErJ40ePcBynyWxzmEn7qWuCtLB/tV/nTw/rxqZi/hMzVyluzS9wMnUTI59eDiUlrVVKwN+RO8xoL8cyjdJHZOy0Q4QWMNEAKmnJ9/1t5pApb4T83EYEsKsFR76keMlwgd3gonnqTvOTwi0KUbkdZiawhCOjg85qZ70x7NdY7rfbjObRWqHSCy1hxQ0tssZSh+PLCC46KGOyVT0iVznp27gQrUinRL7MtaGUol6v8/zZM/b39npQO4vl+mIFDovlAkRpYSuVykiJGxFCiET2i6O64n/ZqHLWj9OM2lJrFibGKS8+wMu9zMb01EPwHX3I59URKhVPIbfiR2z8tCKdGONNdcr3/T083Pi1vFUHBSz5UJCNtLH5FGkGq1Vse4p/VXyFQ1HCyShRa42fSjF9fReSrc67u54a2oxWfaZlMFEpEzJgkCb6uo7J9rS7hZvtO2jBRTOtdtD40sfzPXzpByJHC4uCyPLjujzDMknofxe34oDgujs+PuLRo0cJgdZisXSHFTgslgvgeR5ra2ucnp4mY2+MCKb5vqPhT/bqPK+q/qSFDTf5SwImFh9wWByPb1R5Tq0FIIHb+PxjL0gLq3scd6NVudcJM56JRvN3vQ0eUiWSG/K6iqIh6wAnCNY8xRg5ultFBkdAzZdsSdgUJf6kcBsHgUYkriPf9xOLn+srbhDeA0Tj94gOslVEpDNaDWt7BvXO79mSGW9DBfE20mmgLQGNJ0JkkXZO8NrMNKxX557SSpQQQqBUEAsiEjSizY7IusyXMhYO0/W/rkJHUyyOC7qqRMf6vuSDn33AycmJve4slgtiBQ6LpUu01uzv7VE+O8NxnKFNPdgKMwCaAFYqkj/cr+ML8k8LG0Y4ExrmZm6yf3MhES8hL/eUKLBaAfiv5A63qKEQiD5M1q7fdDBEaxSCaer8E28jmTY2JzcVEY7hIrCkHKq+JIqeY477S2MEEXW0YtvX1BCMa8kPnXleOlOBFYeRJtDG3UiRGYW3zeEt03AOTpyDy9DrxWOr71NKolVguzbM8Uv6Q+Rq0uaIVEDRRpvmXrnMurQaQ0pJavUaXmiRmtXnAoFWChladaSDjqbLuU6CRzJV+sWEwehYpRSOI/jhD3+I742ehbDF0g+swGGxdEHkk7q8vIzneXGmg1F8AGlA6SAt7EpNnXt870qFyYKLvnWHquPkb+EQdp0CPqfLfFPtUSMq107scyO0jKnh8GW5z5fVcWNNm9vl1LASkcCakTa2Z6TSwFZ9ybZqpFzcFkX+zF2gjoMOFwxm3A27mAzpohnSw0UpFS4qh78tzeGQ59iIgoma2XvyLnNU6LSJrmKeoDk/gKjnebGwEX8u6/iEIYqO08ZKKVFt7qOx2HGN5HwzBexF+t33fdZX13j06JG9Bi2WC2AFDoulC4QQrKysUKlUEoHCRvEB5IjAeuOPDj2q0Yv9CCwKTM3c5Gz6ZtIQOOe0sDdRfE/tMaN9w2JkFJZIg4dI/V7Uku/5O8wZaWPzyjJjuqrsKcGZLw1D88uXG31aEQRSXfc1tfg9gQJ+7M6GVhyqaWFhyeKcqzCV0rphvaGHMmN33kJGerw1MqWYwQRGw/Ilf1pfu4n21I3sKf2inVWalJK6Vw9d49qLvNnWHI0ylFJIX8bprVvez/TViDxXwWUdW4N5JXz44QccHh72qFYWy/XBChwWSxeUy2WePH6cCLg1SpPA6JwUMOEI/u1WlfV6nyYkumG9UVi4S93NOS1siCA431/Wp3xZHhIsQ8k99sZ1x+xXDbwjj/lyOm1szq4qHrDhawpahtJK3PsXQ+tYKCkCp3WfLS1wiLz1g/d3KfD7hbu4Xh1fqfjdUbqX9JS4WSJnsgatrDdyE0WHmMbiMopvIlA6cDmw8TYuhhCtNdFkLAYVv9aP9m3tiqLwvDq+9JvqGNVNGNmugjdoOsYUwOLXdCCcmEFJg/ea6zaSQkdTs10sFkeElJLjoyMeffJJDypnsVwvrMBhsXSI9H0eP3rE5OTkSOco18CYgP+4W+ePDv3GAzvX2BtBW7pKMXdrkaOJmTj+RV6trHUj9sZNJL8ld5gkdBXoo7gRTfbMzDXXBVNIGkPym/42d7QX90t+zdFwQNrTgiPPZyw2oL745DuqtwAc5fNYNixDdBg4UwMOmh87N/iRezsMdBp88nr1frcIoyENMqwRYLRi20S33sssDJOfC4VsKVGpINlW3OgOrSNXhPTryb5qJAfLb3HfLu6Fil1RvEQw44YIkQqUmfi99ZhIuGIYV10UlDQIWKoy7+WjFqtDRPeo6O8eXEu+7/Hi+QtWV1eb3McsFktrrMBhsXSA1prdvT1Ojk+o1Wrnf2AIiSYYDnBQV/yrjWr+6VmDguOfCxPjlG/dpZ73bqIRRNVD8G11xGfUaSItrKW/KASvq1O+I/fwMGKv5DzxVcCyL3Cld7neN+pZ0IoNT3GKk5kBSAA+8H+OP2TfmWikjR2BSX5uiNRPmndFZRx7Y9S43P0wc8Erg0wpxhdbceMCxMl+2gbATVrP9Lqd2wcPVXh+EGMjyxWlZV0yXm4nQrSyTAncnyRStk41ax477EJHYN2S+vsSKKXZ39/j2dOniUDUFoulPVbgsFjOQWtNrVple2srNuscNdJ7x7+/U+dZv9LChkw6gtLdhxwXSziGAJEH0S67BF7D4x/ITYSRMvSqpvnXcYER+3KHP3/gb/OWruCH+4Z5TXfNWBzHCJY9RclcAHQ50TbHTlVK1mWQlUfHZTWsRjRQQPPCneCPSw/QxqN4uKf3V4cG9AjtcCZdBxqvd7sAbD4+DCaaWuxevztP/9BxW/dP2JBK4vn1wGIj47o491lzwRtRWuhIx+oIsq+0j9Ux9EKHacVxSTeVqC0++cUv2Nzc7EXtLJZrgRU4LJYO2NnZYXd3t30ArWFGN9xHl8qSPzrwwOnfYktozdyNm+zdvN2X1KxA6Cog+K/lJgu6GqSF7UvJlmZEHAvlhq7x33prhstIjmWGHe4CL5RD2ffjh2JXZRtjNkoLW+9gNI1pxZ+N3eZl4QbCuqh0SHMcDsBm/8ggK5io7zfvotu2ypcouGgYuqI339nKYkMHFhuBiGAek4qXcd73J1fpXZMoJ2XVEFl1+L6PVK2tOoZV6EjPJC57fUXt8J/+4keX+h6L5TphBQ6L5RxqtRobGxvBAmyEdggjogmEBOpK84e7ddY94zz7EHtjplikvnCPujGpyiu4qDlhek+f8FW1Tz1yibBm2leCCONTCKCOwxfkAd+Uh0Sz4jwnuVE8PVfAsg9CB2bAotNydVKYqPiSnfDy0SKa3CZsloN4K+Gfx8Llh6U71EQxOEpboaNBlp08TdkYtNYJ642RuYZbWHGcR3amFBXG2zDusfZ+1zPMNk+MTZUcp70oI+t7tNaBK4rXbLERBfrspq/N+9alxkh4Xxckg5JGKBladWSkKI4Yulgd5wQb7fYOHwiTPnt7u/zsZz8bnnawWK4QK3BYLC2IHiAry8ucnJzgj2BgUTMgnyvg6ZnkL449YkecfgQWBSZuzlGZmE7GK8g59sZNJD+QuxTPSZGXN1mT4uuMQyC2/UBuc1vXG2/k0j7BTFQjcDQcasGxr3DMKWi7cg0xQgNFJdkwrDfajWDT/eb9wixPCjcTqWrtaGhDqmFHUXiG9Gl2dj/MDjCpgvgHKXHD0muyY1DA5cSk82Js+L5P3au3EDYu3s95jJBW9dFKJzKwtEtdOwwL/LZWHBeoehQM9sMPPuTw4OCStbNYRh8rcFgsbTg6PGR1dRUhBEqpkZ4UFrTg327X2PLDp2+fznW6WETPL+I5buPFnMSNKPaGAt5TJ7yrToLiwjJHt3cHH1PU0sDr8oyvy8N4Myxa+OdDMDYksO5rkBIVv9O6XFPcGENz6El2dIfjyBhvh6LIH5XuIYXxSB7wCXxfaNGQ2sikkl7sjOo9OnFaLXbwM+NtqFQwUUuPSIcNznhs6csJ2J0FD/WQGf3bk+ugy0CjXX11K6EjjNUhfWnE6sj+joEXOlpYcVx0puH7Pmcnx/zsZx/g+/5gn7vFcsVYgcNiaYEQgidPnuA4DlLKRDq0UcC03ig58JcHdX507Pdn5zhqQyW5Ob/AycR0/FY/licTaL6r9pigMTG86mXRqC7MukEYP8dQfFvuMavzD+xrtvyRFhz5kjHDjeS8a0IAjpQ8l+ljO+tTgeb9wk1+WlykZAS7HY07zWVJtmHTEn5E7scdETZFp2cspWoKvGrdUnpPqyCwlxmbrT5pChutLJd61r85X1pNAUlT9Y5jdcghDUraSpi5YCpyrTVSKTbW19jd3b1k5SyW0cYKHBZLBlpr1tfXqdXreJ6XeD362c2/Qd6NdYDDmuJfrlX6mxYWzd2JccoL9/ATm2H5xN2IrDfqCL6vDnhHnTTmH3bCPziEfaGA19Upvy134xgpmrwWtCJO76eBZSkoyloyM2m6XOPvolYse5JTRMPNqpMhZRwkgX8z8SoHznjDRWaA7xt9I2HZHedkCP4f7vbGh47gdZzMSNEcw6BVPAYpfSN7hxU2eo3IWL023yIia8jzx+Z5c4YoDkOWsBH1ba/7WItm95o8xlD6+xv/RRVJuq+cJ3QMiuCRbitHXHzJFbmoKKXY29vj0SefWCsOi6UNVuCwWDKoVCqsr61RrVTQ4c7BZbzio4XZoAgg5kNRafh/duqs1HVf08JOCUHp3qscF0o4jXlgrkjgTV3nH8hNY5/86q03LA1MUUEB3/O3Emlj88YBThG8qGnGwgViGNeygREjwwEqUrKhHIrhcWZa2POIjiqgWRNj/MH4KyjhNKXPvd6IxI+IUY290Yr0bTkzqGUsbtiRkyftndZIuKecdydo11NKN2JsmK4oeQoOcRlX9WRMBek0aXZfad16jTlWPtXsiB41oWlB7DgOz54+ZXtry4qWFksLrMBhsRhEO4LbW1scHuxTr1XxfQ8pfaTnIf3gn5KBX7OO/l02OjpcieAhgOdlyR8feIgoLWwfHpgumtnZefZu3AKdd8aWRluOAf9EbXBL1xq7wXaCMHjEVhyCae3x33hrTKHiuBh5Xh+aIPDtsnY4833crJ3axB+KdV/jE87LuxA3gDgWRxDHQ/EXxQWehwFHg+9vI4pm/iP5b0RRxi7tdbROyLbcUEjZ7NJ13dqmn7RqWVN8OzeGRFZg2DDdq+dlx9iA/vWrmQGlr2S4sESiS+y+EgUlbSt2Xm6D6jKkRSLTiuOi80alFPV6nR/96Ef4fv4unBbLMGIFDovFQAiB53msra0md8UiK47wn1ISJSUy+ud7+F49/OchfT8WQZRSXS/IzrX4uARm7I2a0vzRXp0VT6H7MYEJy54pjlFfuEfNePznVrqOrAEEX9fH/Io8iLNcDAJxf9od1yYE4CH4gtzn1+UBOuc9xUibCLxVBCs+CHNxkbEYKXs+e6oRHPWyHIgC/2HsDhWn0Pa4tI7R+Jf6r0t3uoH8l8z/EZx/uKAREB9zbRECpYJnUfLl6yf89I+saz7LdSjbHKHVc9wUNrIW7VfWp1d4eTWdc4Yll5QyEINki4C6+gpjdaSHwCW7L9qIOzw44Kc//Wn8msViadB+BmWxXENePH/O2elpC99ujdbC2PRP/h3EeWg2i0xPU4RwEE7jqRflnO903nKRh5kQIiFuCODjY58fHXkNf/+808IKQVHDxNwtjsancI265Jk5BWABn78ld9CR7UZk4tv7UjuqVxN2IRIT9Y8GHK1RCH7gb/EzZ5oNMRYIELmMVxFev+CgOdSCfV8xOxbUwew1BZSU5IXU+FHsjYvWJ7LiCMfFTwuzfLEwx3u17XC0msv7dBnxFZQ+ldFEgFI6cS+LfhkakSP2uOm+k8z7eIT0vabXrLCRL8mrMqLZZQh0Zp81fVLrOJhmU1lX3Jc62iUYhMsrNrxsWHIIIYI66kDsUErhOMEcKyvuRb+vFUGy/x0cFCp+XSC6vl9HQs5P/8t/4dNvvsnc/Hwvq2yxDD1W4LBYDE6Oj1kL08Jm016EEE3HZPt/aq3Q6Y0GI21kJHhEW8oiEaTsYg/j9ENdKc3v79XZ9rVpW58PhpXCRKmEN7uANAWGnFxToqWfAL6ijnlDlRPLwauaNg7CPHGY0MBdVeEb8pB/X7iN0oHYkJvIIXTs7bEp4YaUaLeQiIsRpIX12dONAKiXrUn0PcehFcc7tV1KSpLXiEnf59ouuHO8WGKz8w6K0miUlI0G7+RDg0Z0O7xkv0bWhNnuKo2GsVpHf+kmNozSKrZASHPVwobJINXFpLlewU1BKQUKlNA4jkA4ouX9zXR1y7OeietU0BA3LvF9juPwwQcf8K1f/VUKhcLA9pPF0m+swGGxEO6e+D4ffvghoLvwa+xs8tj6oWMIIIa1QeZuj+Grn/CJjcWPpK9qKzQw5sAf79b5zyd+XxcGjlLMzC9wMD7VeDEvcSNeRATWG99Ve5SQfYsz0hHWrPR8RGBV4WrNt+UeP3Vv8lKUjGuhF9JCU6EgAoXjRAsOfMVtV+OF01EB4Pu8kPmU7qD5uHCDvyrd5TvlZepG0NFekr7PtF1wD8hQVTKMM9GuPiIl1rRovPiYTAOY7ndV+2kV1k7cSB3Zs9tM1/FlRhgd3h+aXtfNr7eOlxKIGwkHrHDhOnAL1QGrThphWNglrFW1QkpACRwhAsuOFm3bD6EjWd+Ga103QkdstaI1nuexvLzMpzY2ePjwYV7VtViGDitwWCwED7S1tTXqtVoqLexl18JdCiChyNEwv4xrkhRAzpm0Bikv46SCCKdhpukIwW5V8b9u1qh2dS4XxLDeeDA5wdn83TggY35lBj8EUMPhe/KAN9VpYt454PM1C8YGfdhx91WZ78td/kXxVca1bLyXQ2dGZWtgRcJt38MpjAWuKVqy5CnOcHCj43tRByHi68UD/v3EQ75Q32NWlkOD5t4UNBhGD9ECpItPKI30/YZLXZuv7qe7SmyBYmoiqV+a2lqk3jGOb9YRAsFNhM+TYGHcItZAjmjzYuyAgVuk94HzXVECaw3ZxsrjOrZbL2g25hCJ+YcKY1eIUOhwnOwwhP0QmCKB4yJlmscppTg9OeHxo0csLi5SKpXs+LFYsAKHxQJA+eyMtZUVqtVK/ACEfmz0pwQQkdTxRdNsWYeiS/sdiCgye/z4DCfDmiBDxP+16bFR1/lnTjEme1MCxIPXOSmO4SqFjjSdPBYi4Qa8D7yua/wdtQVEatWVJb9rYkA2xQcaAUEA3HA8f8ff4U/cBZ6KcYqoIEZFjpYwAqggWKpL3nQlNeFy6knWtEMBc1Hbm1EVCSsusCFK/N+Tr/HPTj7pqSgxGOP/nHusTt8ZNL7nGbusZrc3BIC+EW3UCx3H9Uls6qd+6dUI1YDn1RML6YT7YjiAGm6NhmAimlsoz8XQoAY+7MU5NywGTIVVo1Xrc/Z9vynVaz+tBnrBsNS3YeEqwi7SoEOrCa3jAPGR0JE+n6yxe9lzTrupOI7Tk1TXgzzapgAAIABJREFUSikeP37EZz/7WV597bVLf5/FMgpYgcNy7VFKsbG5Sa1WAwb9wd2dRUgUeCvaLXCAx2XFnx750Me0sI7WzM7fYndmHkdJQCD6MPcdA/47tcGM9oKMLTnt9lv6gwZK2ue/91b4H8c+TV04fUkFVgQ2tMuiJ5lwNSuyUZ+AHg4qIRDh4r6E5MfFW3y1OM9b3h7qGg3e9O3B99LuGMI4qs/iRqoWphVGR7WIFlzmZ885PFJzlJRJIZvLCgnhM6VJ/Gi2JDGFlGRSi1Yn3q+Ngu7opr06mQ8EYlt2ho6GK4rMFLkGe76RzdDVuWkghz91OiipE2fQykKHJr29Ovte3rMEgr/88V9y5+5dxsbGhq+PLJYeYwUOy7VG62BX8OT4KOHPPJA+sB1wXp018ElZcSrD3YT+VIv58RKLd+4yLRSO2592VcAt7fGudxLGThiQ/sxhZ+h6EPSgD3xWHvP22Q7P9RiFPjkjaODA0dQnpzhmLLQsyVcvE8CZcHhUvMlnvAOui81Pc5aQIC13q2Ou5PLpseVOW4xzVTra8RXxwhqa7yHB62HAXGgzdEJ3xyaLmYuRrEc7gcMQVmLhWbQUiZoC4vap0zsSQ4Kdgjh1MTQWzukYGxHDds+PUrUOqlVORxjiRbpPgqCkKj7PlrE6jOvkIn2YjA+icYRjXNMXI0obu7u7w/b2Ng8fPhzaOazF0iuswGG55jRiXpgPg1F5MJg7a0HqS5hwgp/xpDln95QxRzB96zaTUzNMFospz9N8EBoUgiktUHUn3hEP38259PYM8fTw6tDJ3qtLzebqEseyj72pNc7UNIevfQbfCS3+4xrlh0Awrn0EGpV7aVdPU+BTmZ1hIsmQtUp6R7lDIvP66K/Eey0XNFkxPbqn0/gb6RSpjc9ejLRg0vpxlbZEaX1sK0uUyxFE7IncH1oFD02WP/ikY0WMCuZ5pUWHSDCIRI52sTqiz3dZeOal1K0oYR6vlMJ1HLx6/WJ1slhGDCtwWK45wUPA9/2mHcJRI3rcfWXa5c6Yzwuv7eE9KDBwkp+amORkdpFdqbhfhBoif7cCEYg4x2KM90uLfLeyhOyhaellSMxthnk37ArQQMmBP9hTLNcaMWTy7lcNuEoxsXiX9cIYQqlcM0pEo0IBs9rjvfoe4grdMK6KKLsVunkhkj4uen+U0UonMii0WzT3ui06Ge/5auaBgNCDkAVAVvuYYkfKBSeKZRJ7IjU2DgJLyCD2huf7sRgnotgPRllDOT5bLMZHgaxNLTOrSRQfQ0qJ67qx4NEkwmqdsA45t9yUaBRZcXSTQcesQyTIlMtlCsVi/NpQjjeLpUdYgcNyrRFCUCqVuHvvPsfHR6iqQg25m0o7FDBfEvyTWwX+p3UPXxhzl16dq7HTVwSmbt9lr1hiVSkWvTpOcSwZMDGPNg4tNgoo/qp0l894B9zzT8JQgDqvGXhnVWvxu6U9GnAFvCxr/o8DBSJcUOXpahUtHrXm3vw8+9NzaBVEwrh8hqVWRUYTbFDC4XcrKyzIM/wRlzeyhAvp+U2vG+7zycXGiDaOef5pU3ZT5MgOOtpf8roezDTolytDx9dt83i7TDpdgZTmWB1Oa40shtol5QKIqO9S3ZYISiochJM6QDe7vbTr+5ZCCe3nnunrPBI3tNZ87pd+iVdfffXcsi2W60A/4rNZLAON1prbt28zOztHoVgc7t2WcxCA1PCtuQJfn3ZyMiAIv1QrFm/OcTozj9KaOoKnvsY1osjn7qpCYDHy4/H71ESxb+V2zDWbPF4Ec8Ffk/DvDhQnfW62G6US8s6rlHVDZMg79oaP4IveId+sbCBHXNzIQvp+ywwDsZOGef2M6qUUuRga7ilNoo8Y3alcPs9hEbulZv0zy+7kOB3G2mgwGuJGmhE7nZY0WUMZryml8KUfWP2GwkIreh3MNotIeJmamuK99967doKUxdKK0X0qWiwdIoRgbGyMh6++hpfaMRzFZ4UGXAf+2Z0ii4X8Fk4zxSLOvYecOS4QpL3c0Q4Hno+b92okdEcJrDg0Lws3eDY2mzjXQejaQajDIGNefwL4uKz467Kxu5XnjDssvChg6tYi+6UJHBpiS16WRxBYWt3UPn+/vERB+b23sho0UjdaJRXST7oMturzUVtENhHrxbql4CNEsh3sIqcVomfjxWxjM/XrKCNaxKIYVWIhK2PMRLFWfN/Hl37LQKGRddV5aWfNmVin1hu+HwgtjuPwzrvvcntxseNzs1hGnet1t7JY2rCwsMC9+/eZnJw0rDiuuFI9JD4nwNfw+qTDb950jSVbDybF4QPY0Zpbt++xPT6Nq3X86C4IwYoUSCkbj/O8JuOGyOEheL94mzNRTKRctAw6jQV/TcGfHmn2VOTznPPFGX7/1MQk1dnbEI7j3MQNzHgigm/Ud/mUd4gUUcwaMbKKWMJtK4y7IcLrN71bTovXos+OEgmx3YgN0GRBoPsRieb60Gp8ZWHu4qfdpUZhPLZahF9H0tY7cWYZpZF+IHYkYrCkaCV0RDihJVbWcemsUVJKPM/DdV0WFhd5+513cF139AVfi6VDrMBhsRi88+67eKEiPpKEDz8HqGv49bkC75QcBBp07x6Ms5OTnM7dDlLvEoaHC/2eKwj2fRWLDHkLDtFZrRemeDo2hxMtFXqUFvHCjMDkN0+0MT4KwAenip9V+hRvISy75DhMzt2mWhyL65JbzBjjfB/ICt+sbhK5gjfeab0bOIw0nYvWSM+P26PdWWb5q4/S5L4pVa4Mdohbt4rOED0svSY9ZpXKWIjq9PH9ql1/GKV70EXJin0TxcPwfR/py5Zt1MqqIyvVc9ZxUmo8z8d1XQquy5tvvsnt27dH6v5nsVyWEV3FWSwXY2xsjLffeXdklXCR+v1uSfC9WZfJaGv6MpOW8LNjjsPYrUVOC2O4RllmcMAtSRCUzXgtl1mg0YceDn9dukPZGYtdDa5c5LBkktitAk6l5t8fKk56lEHhnMKDn0oxMz1DdXaeyAA97zuCAFw036xv88A/IYhc13qSPMxkBhUN02tGdH4Pbogdw94uWQSL5vYm7i0/Z8kNpTQ6zH7RnuHthywrIktAO0syqUL3FV+eG6vD/JxzTjydwMLNAzSO43Dj5k2+8PnP22vdYklhBQ6LJcWdO3eYnZ0fSYEDkpNiR8A3b7q8Ne70RGAQGmampqjfmI8tN8JCMQ1cTxHseooxrZIiR05EC8ctZ4KflO43rDiukKsuf9DI2q3SBDEw/mBf8YsqhsKQ07VpdMq4EIzfvke5UGq8mOM9QQASeFVV+Xpti4Lp0601ImPAjNKkVvoyEXfjvPtvwloht1oNBoE1S/ZZppupOeDoqLfO1aHDa7SdO8GoMqrzo4uQGZw2/F1rFQcClbK1VUcnKKWo1+voUNzQWvNrv/EbTM/M2P6wWFJYgcNiSVEoFHjl1YdMTEyOrquKwa0xwT+8VQgCHcDFhI4404Vm6tYdysXGojDrsSuAFe1Q9bzYyuPCZZ+HKeig+c+lRVYKNykYVhxXQdq09brSbte9IOBlWfFvDjSyL/O3hvXGK7cWOJqejdNG51ekjmNv+MLlb5dXWfDLpI1VdAtrjquX6i6PUgrp+xf/Am3EGBLhCyNE+yCW6V3ktKtKbtW6dqSz9mjDPSXLvSDx95COyaysMpZs2rWP6b7it8kQBWRacUTiRvBl4Lou737uc7zxxhvXev5gsbRi9FdvFssFmJ+fj1XxUXp4ZC0mfQ3v3XD59RmnsS7o5px1Qyi4NzvH0Y35eFHYFJBRiFjx8IHnPhRkY2GTZ0tHi0iJ4M8nXqEiCn0pN1mJbDPz6zRpNC01Wl1b0UTwpFLnX+9K6pjGGzm3lYbZ8XHO7r1KRTfKzauPonFZx+Gr9QO+Ut3ER4RGTxllpttMt/bVHkhaxd0wuEhbN2JyDL+8keXXD93dK2w8jt6SzmAhlWwEfu0kBowe3n64Ts+nnpGVUtgIPhsFCe3EqkMphed58fc4jsPU1BRf/8Y3rt38wWLpFCtwWCwphBAUi0Vef+MNxicmKBQKI/EAabmY1BqlFf980eVOIfOQdl8a/3pjbAzn3qtUhNN2MRq94gL7OOz4Eje14Ok5qbSxq+4Un4zdSpTZj6nncE5vL08nC3Ad7uJ79Tq+5yF9n78503xQE40EIn1ICzvmCKYW77FXKGHmGMqzTAUs6Dq/W36Og8I0QsicwIar+Mx6DfAgywoc6vt+0+Lx8gUN72IyoNEGKiV2tPzECDyjhgVTdEozksJSC/e4kTm/PpAWOSIi67XIqiNq0+h4rYKsUibFYpEvfulLTE9P515vi2VYsQKHxZKB1prZ2Vnmby3guu75HxhgdIvJvtZBZH4lFb7S3B93+K2bLt1qHABFYO72HXZLUx0IFCJep7rAmhR4RtrYvKdMGlAIPhxb4NgtnXu85eKcK2pojZIS3/PwPC+e5CmtOZXwozOHsz4qTwKYmZqmcmMezAVMHmtHo10cBN+q7fDQO8Zv2IwkgwI3LWCzszMEriy9rmw+SF+i5EWCijaOH82FfaMD25myn8dILravgFYZbVqRGJNpg6sh7AdTlhzJy61PiPC/+O9IxKBh1RH9i0Raz/eaBOC5+XnefPPNoZ+bWix5YgUOiyUDIQSO4/D222/jOC6FwkWW/VdP8GBsnlBJpROmkQKoKs2vzzp8thQ+gjudiGnN7NQUJ/N38LUylmfnI4Aygl1fIfpkxRGx4U7yuDiPGJS0sSPEecKGCs1zvXq9yUxXI3AF/KwieL8mGrEocp1YaxCCMcehOH+bcmEs9XDM1z3lvqrwreo60iwpo8gskQOtmw7VDN7ualNMglTcjYsKFcmMO82Lh2EnCmTZiZgzKuc86MSik5kerAVZT5VBuzbPJeFl6oQ/R1VczJ+moKTGe2asDq9eb8oqNTE5ydvvvMPc3Jxtf4ulDVbgsFjaUCgU+MxbbyX8Hweddu4AWoMvFTpjV9ABbhUF373hMBH5/7ebiIXvjbsuxYW7nDrF+IbSFHujicCKI/r2HQWebATSi3Y0eo4hckgE74/d5tgdj91X+ilyaK2HZky1Ix1To1W/aa2Rvk+9VsPzPFTC97ixkyXQVCX84YlDFfPtvDKnNAKLzkxNU7sxF2cACi6DHMoNx5kT/vtmbYc7fjnh2tWq1KyFRZRGtEnoGJCAFFlZJry615PvFsJYZZob58O2iAwx622arHd6Pon2IDl+rVvB5VFKEl9UOm1n1WCUrGcS52jEkbBcHiFE5i06suRIZL1zHKanp/n85z9/LQLgWyyXwV4hFksbtNbcuXOHO3fv4jjOwC9IWy8uA7PawPQxeUzaN/RrNxzeLhniRqYdfMPyY3rmBpXpWaLH9PniRlxyfFgZwZYnKRhpY1uWfVmigHDArjPOT0r3cDAWh3bi1hGdLJaUEVejXqs1xVswvi3+rQD8/pHDEy/hoNGTOrdj3BGUFu9TcYtGsfmJGwLwEbwmy3y9uokRdKMz66cWQkfWZwdqMdKjoKKpLw2/uskf4JLfe7VcNINPc+rYDMsfy4VQKnrOdWfBMCqpZDu7O1kug5QyzpwUjRPHcSgWi/zGd77D+Pj4VVbPYhkKrMBhsbRBCEGhUOD+g1cGPm1sK4sNpVRmpG5zgSQMc4rZouDvzrmIDuZfJcdh7NYiFddw4bnAYkUAW9qhWk+mjc17CuigeX9sgaXiLM7QJvLrL53E1YhEDTOuRitMP+SCgKc1wf975vRD02gIdUpxd2GRo+mbCbet3BGCv1VZZV6WGy9d8ivTIoc2F/9XMMCb4hf4Mml23YtCTCOOARehuyFyT4HLnpdIWRRc4quuGVkWNRfJZDMq2Kdkb0nfH6P5mkBAKovf2++8w2uvvTa04pjF0k8Gd7VmsQwIQggWFhaYuzWP67oDN2lp7Y4SxNmIdpw6RWr46g2H700L4gAIWfExlGJhbp7T6bn4sItJGwEe8FxCQfmtD+8RZj3rOPzH8QdURSG+IdrpQ5KO3E+kTFhqKKUS40YYlglm+rzoEAHUJPzbY4djUw/J63IzLJQWJieo3nmVmk44m+dTLMEpecLhW/U9vlrdQl7iJLPuR5HLSnPZ/RU5mibvkRVZiBCiJ+0s4jQ7yTKH+TrurTvJMLfE1ZG1+Ixf73DYtnNVsQvV602697VOZkyJYqEVCgXm5ub56te+Frw+YHNQi2UQsQKHxdIBruvy4MErlErjA/NwaTcBDoKIhsHpwteCtUQqL7tBbM0BaAH//E6BeTO2amrRdLNYwLnzChXTpP4i1hvhRxzCtLF1SYEMQaWXGHUuoFlxp3k8Nh8UF5Z5naeencTUgCBQZBQs1Pc8lFIJq6Cm8SaydpIbLhs/LQt+UWu4LuUaeyOkKASTi/fYKxRx+pgWdk75/OPTZ2DKGxe8t7S8rjOsNuIApDkP8GZ3EXoSVLQViaB9Qxr/ICHOGNfeRdoqazwMa7sMAkpdvD/aHT9s/WCDi/aC6B5sirEaz2vEJTLnY77n8c677zAzMzN048ViuSqswGGxdIAQgrm5OW7dvn3lqbmC52L2Q04pje83gogm1oldLNukhsWSwz+adxnLeL8A3Lxzn+2xCZxLm/SL+MMFYEUJ6n4jWWYkOPScUOSIAlu+P3abfXeiL7E4BnWScu6usQatNNKX1Ot16vV6Kljoxdn34Y/PHE6itXcfxA0BzN64wdGNW6m0sPnF3oDgwfuD6joL/gkyegx3GHvjPLLiLYiM/ulrphUNnuf1rbxBvb664TLpYdtjRY5OaLa26E1/tLK2HHRs7I3e0RwqSON7SfE3eha7hQKvv/EGn33rLSsuWSxdYAUOi6UL3njjDQqFIsVi8fyDc6BV2lcVWmwEk+LU+12YgZu7BlWl+fZNh3fHm3eFb05Pczp3B9mjRWG0lhVAFcGWr8GYUOY9/RPAljPJz8duYbZwXuWamRGufHLboaWG9H08LxA1fN9riGjn7BS3KRbTeuOvyw5PveyI8j0nPNfxgos7v0jFKcSxX3KdPoaeFG/IM75e3aQm3K7SKndcTDr4KEAfA5Cmv9P3/WTmpj5M0hPxhYYQ1aMFdfO12ZOvvVZEqTuhN+Ppyu/5F8GOm57QJJyhM2OkRbFeSqUSb739tk0La7F0iRU4LJYuGB8f55c+/3k8348Djl7lrqTWxMJGVhDRy85mZwqCH9x0uNEwsmCqUKB06w5nbiGZFvZSNAJNQpA2tuanY3Hka8XhC8FHY7fYdycbN8ZeuqoM4KRWtzm/RFyNet0IFpr9iW52lyJxA4KeP/YFf3LmUIm+Ok/rjcjiSGtmZm5SmZ4lqk1QbH7WG46GktZ8u7oVBBY1XHd6TXD9Q7937DODihpxN5I1yrUmcX2GYUGZCGapG/fzPBY11lWlPa1ib2S91zlDvjjNOG07drqjaY6GaA66bAizhUKBO3fv8s677w50gHuLZRCxV4zF0iXz8/Pcv/8gdlXJU1VvFwchsNponx3lIphWHAJ4b8blrYlgZ90RMHVjlvLMbOP44EMXLq/xPY3YCzUEm76moBppYwPjlXxEjqB82Bfj/GT8HgWMdLU9KjPrW/pqchouss+LraGUwqt71GuNuBommbE1uq9M/P+SgD84Frz0zPfzFTcASq5DceEu1TADUN7iBoAksN54r7YdXF9a98w1JQvzmjLr0xSXo8OYK+fRtAupVELc6Od4T1ZF5HLr6BVNopDRZr1YRGa3uRU5OkFrMheg3RLFwGp8b/OO/SCjzbRqQ67VXAVZ/ev5Xsux5TgOvpR861e/TaFQGPjxYbEMGoXzD7FYLCaO6/Lw4UMODw7CLCWNyOq9mryfl4bTDHgW0cuFQ+wDCky58DtzLr+o+Ei3gDO/SNUpAjqHRaGIv3dXO9z1PcbHSuTljZ4sFVwUHxfneac4z5veQSP8Y7gQHTaaAz1m+39HJti9iqfRUd0AF/hFRfCHZlrYPjSzozWLt++wN3mDOK1qzuIGgCMcfrO6yg1VC8ZWjuKGSXBv0Eb3G4FOMv1W6LofshZsvp8cT1c3SU+YBvX2m3t8TpEI2W0Z593/o3t6q787qtslz7Uf4lav+0OppPVRL78/PWdI90/eXPRcHOEgkecf2AMGZWHf6/4w544RGh3HOnEchy9/6T3uP7jf03ItluuCFTgslgtw4+ZNFhYX2Vxfx/PqfRE3tA5Nl7tM+3phhEBojQJ+acrhG5Pw/sQ8lakZ4mVbjnMwCSz58K7ro8Jd9gusu7pCAB6CH40/4K48Y0J5jZgcOpx8DIHO0cmkUKkgGG3k3pQlmPVyXDfqFn4/UFXw744dyj0t4ZyCtWZuYoLawn3quj9mjALwhOBX6/t8obZ7qbSwl6mFEOmxoUE3j2mNRmS83g0yjLvRT7/x5jGcr2dY1nV22fPV4fV43ve08tnvoqSEyHHe5y9yrpevY3f0uj+ijYS86hzfCzPEpqtoq6gu536mb0aH3dcxr/Iv0x9ZLk9SykS/m9/tui6zc7P8yld/JfdxYLGMKlbgsFguQJA29gFbGxtA7yYjrR7oUrUWNvJ6+EVWDRpwHfiniwWelxZZxsGNJY4c/MPDMh3gAIdNT7LouPh57naHYo4mSBu76k7xcXGBr9Q2EofpcOf70ouYDhcVF/3edu+rcOeoKUuDCFwa8txFNKsnCAKLflRrxEHpR+aUcUcwfuceO4VxHJ3MNtRrTNeU28rjH509o6AlMtynuxKZo2kx1RjTyVc7H+tNLhaeH6uRflMsnfwoFAqp+sQjq+ckr5Pg2vF7YAGVNltvheM4uK7bVbaVrIV08rXOJGTHcZBSJlxpelXHXtFpHduhlEKq6GrNB03QBw7gFgpX0lZCiOxnQoqoPy/TphdFCBEI8rladCS/23HdxDPxIs/rVuKG+V46xbXruvzyl77M9MxM12dgsVgCrMBhsVwAIQSzs7Pcf/CA7c0NypXypXYK0xPyYOcxOemIH4J5mzGkEIDUgjtj8PecI/4l0/lmuhACES6uXIK0sfPSRxTCzDV5uYsYIoeD5v3SAm/W95jV9aaFQS+EiX4IG1G9VZgFJcvfN55kRcmEc98tCso78uFPTkXDeiNvcUMIUIqZGzc5mVlAaNUoLcdzjtxfflDZ4J53TCXKnHKFu3Lpvm/8Hlp5EI4Hobu+3pQfTN63trd48vQpp6dnYZk9q35LZmdneeett5mZmQnPR2cu6i9L+vuq1RqPnjxmZ3unswVq2mKmS0FGayiVSrz22qvcu3s30Z+XcVVp1dXp811dW2N5aZlavd7yitVoxsZKvPrwIffv34+/N68d6fRYXltbY2lpmVq9diGBQhv/zx0NbsHl3r17PHzlFRzHyc2CDpr7c3d3l5cvl6hUq236MxAQ79+/x8MHryS+K+86CiHY299neXmZarWa080k3deCmZkZ3njtNSYnJxP16jyYdsoqB50QfOPrNuWacv+VB7z56TcTx1gslu6wAofFcgne/PSn2djYoFAo4Hnd71Q2T7yDv5UKfH+bFtXQ34VRaOMt0FRx+Krc58fuLO+LqVCE0DktTEVsI+Ih2PQVDxyFcpxg8ZWbyBGu6YADZ5wPx27zjcoKjhA4qfISEzDoa7+cu2CLYmqo7Aw70Xf0P+hj2KsaflJ2eOaFZectboTnPzU2hjN/h1qUAYm8JpCh9QOgELzrHfPV6iYVUQiumwGZtDYLHWGcDiFiC47wgMwx3hxUVKO1Ymt7h//047/E87y+Rv8/OjqmfFbmvS9/menp6eYFe4/vG9H5/+yDn7G8strXcz09PeXo6AgBPHjwIGHy3o3IER3fapc63ccbGxt89OFHeL5/bjmnp2ccHx8DmgcPHiTKykPg1Vrjui5ra2t88OFH+B3UcZA4OTnF93w+9ak34n2MPK38hBDs7x/w0ccfU63WOnI5Ojo6QvqSh6/kJ3Kk63h4dMRHH3+M53l97c+zszNqtSqfe+ddSqVSV5/NcjnyPC/zWFPcGB8f5913P8fNmzcvVmmLxQJYgcNiuRTFYpEvfPGL/OxvforjnG/iGXGROBtXMVETgA4DFAoNU3h8R+7ywi1xLNxQbCCXtanpqrKjBPNSMh4KHPmJHI0dVAn8vLTAZ+t73PZPkcLBaSEIBIv2q/GZNt+PrDV0B+bG/Y2NAFG7CmDDgz89E1T7VzgOMHVzlup0Y+KYWwvohqHVFD6/Vt1kVlUxnUAGetkVWnM0VdJ4PWs8SimpVqp89HGwuIxcRvqF4zgcHB6ytLzMu++8AzQWD9Ab4zfzvF3XZWlpifWNTVzX7fs9WkrJs+fPWVxcjLN6RXXsti7CEJXTokdErVZnaXkFqVRsZdCO6H60tLzMrVu3GB8fv1QdW5URn4MQ1D2PZ89fIKVMtMkwoLVmfWODhYUFZmdv9tyVsema1fBy6SW1Wj0W5zqJwbG+scHc3BzTU1OJ93o+/kMXt6fPnuL7ft/7U2vN8fEJG1ubvPnGpxKuJW3biWZxI+2ql/V5x3FYvHuHT3/m0zb2hsVySWyaWIvlkty6dYvFO3cBc0e09fGtFqpKRYvTwRA34rKN/wN8UR7xZX2CwoidkIcpr2iYy9cQbPkKoWRjU7n3JSaLBw6cEv9l4n4Qc0QbmUZaiAdap6c2mQd1XIdItGgnbiil8D0Pr17Hq9czXVHi1L/isuldL4cmSAv7hycOS14f6mC022SxgJi/Q9XpT1pYAUgEb3snfL6+GwhyYZmDNm1N+IDHv+m4ziJ+haRlh4H0JUpKlpeX2d8/wHGcnruGnEd0raysrnB8fBzUITKlgcAypUd1EkJQrlT4+Bc/T2TS6hfRAujw8IgnT59ewHpEtP0zXVZkGXFwcNB1XY+OjllZWcV13VzbyHEcnj59Fli25OCalCdRXSuVCsvLK7lbA7lO0J87u3tdPw87w4mBAAAgAElEQVTK5TIbGxstn4O9QiBYW1/n8PDq+jNwd1rn7OysrWVT8kPJP2UqNk+6vaO4GxrNr37724yPj1txw2K5JFbgsFh6wKuvvcb09LSxC5J9XGaAN8D3ZcOVIFwAXfVi1MRcDM7g8Vtyl0mMAI25zTuitoBt7VD2fNz4HboSCzovstHeLpqPxhZ4VlqgqFWwQBICpXUipWqij84RJDqtcauMAFFZUkrqtVogaoR1ESLcdReN483PXh3BuRQFfFIR/H9lB+Vg1DWnukXfrySLC3c4mZiGXNIbZ+MK+EFljWlVD+szeOJGRDy2RDx4YsskjUCbFRdp15Qgxsvp2Skvll5e+b3r7KzM48eP4wW1IKxLj3dFHz9+zMnJaUe7370mal/XdXn69HksKnX++Szxs/F5cwfZcRzK5TLPnz/vbpEZjietNS9evuT0NL+2chyH/f0Dnj97FlvTDMKzs1Oi+jqOw8bmBru7uz23WDD7ulwp8+jJk8z3z/s8wObWFscnJ4nv7AXmM/WsXGZldfXK+7NarfLk2bNzj9M0P/t9GWw4nNdOruvy1a99jXv37g2VMGexDCpW4LBYLonWmqmpKebm5+O/k+83dhbTSKmQvhGRPJyED4qPfhYSwZvqhO+rA6IQc9FCKA90aCaigBdS4EovLjOvaUDCbR/BDydf48wZC3a0QzN9DYk4F031NqwvOnEv4bzjtQ5EjXqdeq2G73lNu0LxYo7Bmdybp1KW8K+PnGCI59mBUcEaUJrbk1OcLdzDC8vLrVjDgsfD4Vdru7xV30cNrKzRhijuBoBWCJV4q/G70nh1L7ScWOPsrBwe0/9JurkgX11fZ2193bAaaJj7X6Ru6c/t7++zurZKoVC4MnPyRp00T589Tfj4d3qOphsEZMff0Frz+PETqrVaVwJFJEI7jkO9XueTR48T33nZMWJ+3vM8nj17FjwXevDdV4FZ708+eUS9Xk+816vv1lqzvLxCtVYzjJu6G7/1ep2Xy8tGmJ7e9qeUko3NDer1+pX1p3k/2d7eZntnp307ZVhuKNmw7mr1WcdxmLlxg29885uJci0Wy8WxAofFckmiXZdXHr7KzMwNCoVC6gHV/GBWWuPL5oVxZLkxiCRrpfn7/gavU0diRq7Ir1wHOEaw6SkKusVqq2eFNtxvXBSb7iQ/m7hrnKPxm9Ztg3m2IzHpbPG+kgrf86mHLijKsNbIMnUdPBpn9qMzh5/XwxgOkH9wUWDcdRm/+woHThHHiAOSB6b71B1V4x+cvUBguAvlVG6vyRpbWa4pWmt8z0MgODk5YXllOduqqc8IEWSg+vjnH1OtVkPxrzffHfnTv3gZxC64SqI2dl2Xvb19tra2Eu93cj/qZNd+a2s7IRZ107eR8Oq6Lpubm2xsbOQST2Jra5u9/f3Y6mEw74XtMXf5j46PWVldTbzfi0V+4NZ0yMbmJsUwRs5F2spxHPb29nLrz+PjY7a3d+K/r7o/hRBBFpdaI3KUWed0/aWRDva87x0rlfja178Wi6UWi+XyWIHDYukBQgQpxRbv3sVpY1aqdWC1oaRKLMyHx5w2dI9AsKBr/CN/izEwgvfl83COmiZIG+tQ9WV888p7OqCBopZ8VLrNTmGq9XFdCh0dxdXwPDyvjpR+y+MHeeyYVd72BP/hTHD+lK93OMDsjVkOZ+ZAGy5VOVNA8NvVNW7LU2Rjj7QPJfeYyOUpRjcsYwhSwqpwh/7ps2echSlhr5JoQe04DoeHR7xcWmqILsYx3ZC2lNrb32djczPx2lURna+UkuWVVWrV6gXuia2F0mq1ysuXL3qy8NJaB+lIK5XEa5elWq2xsrqSdNUbUqK6FwoF1tbWOD095bL3DlNE9zyPtfV1arXapeoX8eLlS8rlcvx6b8aJYm1jnWo4Tq76+oJA0Dk5PWVrazvxfpZ1SZSWPet7srj/4AGvv/HG0I9di2WQsAKHxdIjhBC88cYbuI7L2NgY0aQkirMhlW4KNjV0iMaPGoKvyz2+rE8DH33ISW0Qid88YN1XoIylco5WHFG5h06Jj8YXUWEcjuShSbPutkJHi7pqrZG+n4yrkbbwGaLJjw4HRHS2//lM8Mwz8ojkar0RlDJZKKBvLVITTrKkPNoxXkQI3vKP+VplgxpGucPTdQlaRQ1RvkRKScF12dze5OXS0sCNT8dxWFpa4uTkJHghXoRd/JYhpeLZs6cXXiDmycHBAZtbW4mU1p1ZcTS9Ev+2ubnFweGRcWz3fZy2TNjY2Ei8fxHLN/O7t7Y2OTg47Lpeg065XGF9fR1tWCxepq0cITjYP4gtIy66oDb7s1KpsLa+3taaoas6Og57Bwfs7OwMlKtuJGRsbm4mBLqs4zrJmALBud68eZPPfe5zTE5ODtz902IZZqzAYbH0iGiy8Mtf+hJ1z8NxggiHSmmkn1ysRq4og7z7noUZnNEhcN/4vr/DTYIHen6xOBoZVRxgXwvO/MbeeG7lGq4qGnhcnGfLncExYi1gTPZMTKHDrJtOHSOlxPO8IK6G37DUaOV+MgxjxhQ3BLBVhz8vG9YbeYoboYWBA0zenKM8OZO0ochJ3IjOdVJLfq26wYT2Gg9YMbjBRdvRyvfd971gEi8ElWqVjz76uGnReZVE14jWmtOzM5aXl1Pn0nkAGPO8XNdleWWJre3tngdXvAxRHZRSvFhaisWXZHyN877D/EuHi9cqq6ursSvlZc7VrOPq2nocqyUusduYIeHftXqNpeXlntRxUIjGLsDm1nZDoAvptq0ipJQsLS/HsT160Z+O47C9s8PR8fGF6pjG8zxePH+BlPlmaOkG85l7Vj5jfTPbLSctbpz3rBZCsHjnDm9++s3cs+ZYLNcNe0VZLD0iepjNzc/zyisPYz9wM4K2cfDVVLIHmItEDbytT/iKOonf64fI4SPYkjSnjc3ZkuPEGeOvJ+4hMAMwNsSOVpMeaVh06NA31wtTu/qehzJ8dc3vGEYRLKDRDwXg909cVqVhvdGH5f5UsYi4dYe6cBsl5ixuaOBz/hGfq+8nBLBh6z3IXqAEMTf8OHAeWvP8xQsODg8HOvbByuoqh4eHl17QnZyc8Ojx43xubz1ACMHpySlPnz69wH0jeazruqyuriYyZfSsjqenrK6uNGcJ6aJdo02Cp0+fcXJyOpDj7jJE51OtVllaXs4U0LvBcRxW19Y4ODzs+WK6VquxsbGRGWz7PNLnsbKywvHJyZVkJuoMwcbGZtN1obXGb+NKmsZ1XUrj43zjW9+kEMZCsVgsvcMKHBZLj9Fac//BA0rjE8278AziA7t7zB3xCS35rtxjBpV7PAzTYH5fC048nwLJ4I75lq55OjbHs9ItXN3d+Sql8Op1arVksNA0Q+3CZKCJ0sI6/KjSpzEfWb9oxfzCImcTU8SjIucqaGBKK75b22Ja1ZNWI0NG1hhUSuH7yZSHR8fHLIeLr0H2Hy9XKjx7/vxSsTe01jx5+oSzs0a8gUE630DQCBayyysr7O3vd1W/tAXOyclJU5DLXrKytsbR0VFykdjFHVUIwf7+PisrKziOE2ePGjWEEGxv77C7u4vjOBd6xgkhODs74+WLlz19vph9t7O7y9HxcdOiv5vvOjk9ZW1jY4DFjYB6vZ6I7QOELqXm+ba33AD4whe/yJ07dwb2PC2WYcYKHBZLjxFCMDs7y/0HD3CNjCpCiKG23GgiMjkG3lbHfE8eUA9jDuRnxdEQMSTwUgoKvpf/tNboNw/Bn069RtkZa9xAdev0rpHZauSCIqUM0gNLee6O1zCKHVGVHaDsw/9+JDjtbN7Xm4K15s7UFKcL96glmi9f6406Lt/2dvlcfc9wxRm+6z1rxEWZfKIJfDTWl5eXOTs7G/gJuhCC5ZVVVldXKRRaB4Fu9/md3V2WljOsDgaI6BLwfcnTp08T5vLd3ks+/vkvErEGetHH5nfUqjV+/vNfoFTn9TLPwfd9nj59hh+mWdfo4VQTO0BKySePHlOv1y/UD1prXrx4SSXMKAS9Fw/qdY+XL5e6rleElJL19fVEatxBJRCdtgNXNceJhd/kMa0/67outxYW+Oa3vjmUz3iLZRiwAofFkgNCCO7du8fU1NRAT4gvQ3KHWvO7coNPUSOaUuf12I4mDg5wimDNkxQTQdhyKjf86aLZciZ5f+JeUJ75ZgrpB+ld0xHVlZJxjA7f95EZAUlN/3ndRkAZJNKBRX946vCsbuyr5hl7I2TccRi//yrHTjF+wOW1/jbFtvu6xt+rLgNqKK034vGV9tv3ZeZC+fDokNW1tfi1QRQ5TDcNrRUffPQh5XLFeK319WS+V/c8nj9/ju+3TtE8CER1cl2X/b19No1ML9D6fOPXNQjhsLGxwebmZi476Wbshq2d7TjNaHTXOLeOIZtbW0OfFvY8zLY6Pj4OAvka77drKx25TgrB/v4BW9vbOfenYO9gj7W19YQLTKf9eXR8zM7ubtP3DhLmde84TijwniaCwHZyb9BovvIrX7GuKRZLjliBw2LJASEE09PTPHjwAMdxElHtR4rwvCSCGV3nn/obTJjSRk6xOCBYXLrAinY583wc01El54CjJS35qLTAevFGUJvEKQeBQyOLjaa6hEPB3PGJ4nL4vjw3zexgix2hiwiwVocfngmkMEWgfK8DB5ibv8Xu1CxCmztq+VhvRIwBv1tdYVZW4rSww3TJt4u3IWVzYt8oLWy7bAKDhuu6nJyc8vTZM5QRyLcTN7HtrS22d3fDwNGDj9YapTUrq6uUy+X0m60/KKBarfDi5cu+CPMFt8DLpaVAdGpzjab7o1yusLqyOsD3wd6itaZQKLC+vsHh0dH5HwgRBEE7V1dXmzJ75IEjHF4uLXFyel5MlGSfKaVYX1/H87x8K9hjzsplNje3ElZI541H13X59Kc/Y9PCWiw5YwUOiyVHXnn4kKnpaQqF4lVXJRfMneo6gi/Jfb6qT4w97PzL9YE1CZiCQa6lB+UeOSU+LC3iCRcIFkrS9/E8D9/3Wk50TLGrOfJ/YNURuLFEYkfregzSBL+xCSyQGv7jmcN6IrBo/oVPlUrI+TvUNX2zotDA5/0jvlLfjl20+lNyb8gaPkoFLilZLlSu67K6tsba2vpAxqLIIhIyisUiyysrHB4cgGgt7Jj4vsfzly/x6vWhWJCY9Ts8PGJtPUjJms4+EpGOM7K+scHR0XGufWt+90mYNraTNKPR6xsbyYX+oPfJZTDbqlarsba2lhAdW1n+RZ/Z29tjb3+/6fvyqmO1VmVlZeWcOjZ+dxyH3d1ddvf2cq1jLzEtwHZ2dzgrnyXebzV+hRDMzMzwzrvvMDU1NfDnabEMM1bgsFhypFgs8oUvfBHP90fWVcXcqhZo/ra/zSJ+vrE4RCOjigAOteDYl+S+nBbJtLFPx+ZYL8ygfI96vR6keVWqaRWRnMgIzMVv2mIjljp0JHYEu+idWHVcFY2iBQLNal3wn8pO7K6Ue1pYAmueqdl5yhNTfU0Le0NLvlfbYEzlv0OaDymXFCmDeBsZ4ylawHzw4YcXypgwCFQqFV4uLyXEw1ZCR5AWdoWdnZ2hWoxEdZVSsrKyQrlc7qj+p2dnrKysxvekPM85Ep2U1qyurXFyctrRZyqVCsvGAnqY+uWimJZG29s7HHVoxaGUYnl5ObaMyLs/o5+7u7scHp5fRyFEkBZ26WWmpdgwcFYus7W93dGxxWKRh6+9yqfefPNajFuL5SqxAofFkiNaa27cvMHrb7w+sgJHtIiMFv5vqFO+oo4SqTPzclWJpgg+sO2DkApt+tfn6KoCcCYK/M3YYsNiwwg20TrFq25ac6tzrE8it5fYqqNF1a4iXkcUdyPwLNaMC/jhiWA7ofPkK24ATIwV0bO3qYePtbzFDWhYb3zWa4x348Del90jWo0R6Uuk336h8eLFS04GOo1jNuYicX19g8ODQxyn8Vq6LRzHoVwu84tPHie+Y5iIzuH58+eJ50+6/zWBe8Ha6honJ2HK7z6ca1TG6ekpa2trTRk40mPUdV2eP3/RsWAzSkTnW6vVWFntrK1W19Y4OLhceuSL1NHzfTY2k2ljs+oohODl0hLHxycJgWQYiOuLYGdnl9Oz06Y+MXEcByEE7733FQojOhe0WAYJK3BYLDkSPfDe+NSnKI2P9zz//KBgihxFNN+Ve9zWfv4iRzzJgAMEh75PoR8L+yjQGJrn4/M8mbpHgXAylzTQyPioQIjmcdBuRzwSSmKrDv98qw7or2WHBgoC3i8L/rxinF8f5quuVswv3OVkfKJhxZOz5YYAprXiO7VNxvXw+I5nDgdNZryN9GLj8OiIpaUlisXiULhrpDEXiY+fPEm8BslFiVKKX3zyCZVKeWjv21rrMG3sKtvb25mxoLTWOEJweHSYa1rY81hdX+Pg8LBlXBTHcdjZ2WFldXVo+6MXRO2wvbXVsh2iNL/PnnWfGrlX7O3vt01VLITg8PCQtfX1oQ+26fs+S8vLbV1TXNflV772VW4v3h5g6dtiGR2u71PCYukTWmvGx8d58MorFMfGhm5R0C0aeF2d8n21Tx8SuDaCdgJrUuDIxmIzP+uRBhLBX868zklhAqF1aMyQbd7f+D37u7ox+zetOqIsLK1ONV+hI/heBzjx4X87dEmGnszZekNrbk3PUJ5fxO/jzLEuHL7t7fBp/xAVWxM11K0BCY2SIBgDKX94pfA8LzH2TEEt+lwwiV+iPESBRVshhGBza4uVlRUcx2lacMTvr65SKBSGWsyJ+vHxkydUa7XM46RSPHr0mFqtdiXigeM41Gt1Hj16jJQys60DUeopSqmh2+3vNUopHj99RrVazXyWSCl59ux5oj/73Va+7zfF4ki87/msrq4lgp8OW3+a4/Dg4JCt7a3Mc3Ach4XbC3z5vfeG8l5isQwjVuCwWHJGCIHjONy/f5/x8fGmhcOokH5k/5bc4jPU8Gm4r+RSbrRhD5wgWK4pilol3AhyKTf86aLZcyd5f/pVzFa4aLlZIkd6nDSZJ0eBSVX7LCy9dl8xv0UAf3YieOGl08Lmy5TrMHH/VY7cYu6BRaPz9RC8qmr83coKjuGyMshkBhOVCq9FvA3zNUc47B8csLa2Fo+fYZ+kK6X44KOPmt0ddLCYfvb8eV8yT+RJ9KyJFmBRwNH0MWtra2xtb+O6bt/7Nqqj67rs7OywGrpfpMfk+sYGBwcHiXO6biSCs56csLS8nPmg2d3dDfrTca6kP6Ofh0dHmRY3Gs3+4T57B/sjI1YJIVhdXaNSrUavxK8XCgW+9e1vx/M/i8WSP1bgsFj6gBCCqakpHr76KpOTk0Pnv94xUfwL4Iau88/8dYoYC8AcA45CcENbxqHseSS8XHOMxaGBAoqfT95hq3QzEejULDXpe+wYvzfH6mglcpjHCSGC9jY/q5uzsLTisvE6TGMAAazVBX9adsHR+aeFDesrtObG3C22JmdxotcgN/eUiCLwDysrzMkyiuyzHKRLO8tyQ0rVtIBPW27EnxXw7PlzKpVqi7gyw0NUd8cRnJXLPHn2LBHYVziwsbnBXpjVYdgX02bdV1eDgKNm/5YrFZ4/fx5YslzRuZoix4sXQYwNMyVvpVJhZWU1cfx1JTp313VZX1vn6LiR8UZrjed5LEcpdLmatjKfUc9fvOA0TBsbjTslFWtGWthh7k+z7pVqlc3NzfC10LLRcfjMW5/l/v37I7WhZbEMOu7v/d7v/d5VV8JiuS7MzMywvb2NV68PbRaC8wkW/hLBXV1ly5lkSUw03s1l4Sswt++VhjkXtMg54CSNGCO+cNA4vFI7wDXiQMTVSrioOOdmAWi12Eh8D8mWTB8fxezQOtJCzm+DziebjQCFdQV/eOLwfk0EkUj6ZMJxc2ICcfchlUIxs517h2mlIfi6t89vV5cbgUWFMfiI+q7x91WROaHWgfm4MkzH24kWruuysrrCkydPMHclh5lgsRWc28nJMVJKisUivuexsbnJJ588olavD72Yk6bu1amUK5TGx9FKcXJ6ypMnTzg4OIyPuerz9XyfcqXC2NgYWmtOT095+vQZB4eDU8dBQSpF+awcx7CoVCq8fLnEzu5ufMxVt5VSmtOzU8bGgrg91VqNly9fsru7N1LWG9HParUaiHUFFyklU9PT/Npv/Drz8/NDf54WyzAhtJUULZa+cnhwwF/95Cd4nje0qdHaYca9EMDPnRv8i+JrbFGIX8tHbAhiUAgCS47PFODGWAFlREfIM/AkwKTy+M2DT3ilutd43xA5zNttvV4P324WJUyyfOLbTZSiz2eZeZvWIu0nW6JtU6VjmzyqCv7nfZf1aDjnbb0hBAVg4c59Tm/fx8tbyDL6eE77/A9nT3jH22+8L0TYHlEgWHnlAkcrtxPpN1v2tByDQlCrVvnzv/iLOHPKsFs0RCRccBwRW9adnZ3h+3JkFl8R5vmWSiVK4yVq1Ro1Iy7HVZ9rUx1LJWq1warjoGC2VbFYYLw0jud5iTgrV91WyToWGRsbw/c8auGzL+Kq69kLzOeuEILx8XHGxor8/d/5HX7nd36HQqEwEudpsQwL1kXFYukzs3NzvPLwYSJY2ihhLjIV8Gl1xrfkQWxt0Nj3///Zu9PmOK4zX/D/czJrw74DJECAIChukrValqiVlChLVMuWLS/y0mtMv7jzSeZ+hLkRc1/M3I7omIi5fdvTcd093tqW1JZkS6JEkRQpiiJBEPu+1pKZ58yLrMzKKhSAAlBZqCr+fxEQRKCQeXKryvPkOc9T/jV7y3cATDluEs6wc3EE+7DrMorPmvrhiPwycMXWLbbJgB9UrCzsdnHpTdNYCv6ucApL8UVtPXVF+/8R0Nl9/rtVialKBTey35vicdjtXRULbnhLftxaxIi9nPt9IIBVLYodN6UUbMveMbhRsCB8desrLC8v113ug/wpYRqrq2tYXl6B49Tn+3JQOp3G8vJK1QUOgm1Ip9NYWclvI+UE95Vl2VhdWyuaRPYg5bfRwvr6el0GN4DA5252c9LpNDo7u/DKK68gEonUzXYS1QoGOIgqTGuN4WPH0NrWhkgkctDNCYXX2RQCiMLBeTWPvkBNldDGjQXycSxpgWXL8XNxiNBWnB0RAbds7K1YF2429iKinU0jHYI3OcVKNgZfl5dIdJdBjmLLCgY9vM6qG+zILzlbLCiSF+zIRjg0NGJC4/K6wDtJAeXPlwnxRs7LO6IctHT1Yj3qTn0KcwqSv3wALdrB+fQkYtr221Ntt63FRu14wQ1dcC4Wu+kOHuulpSXcvjPqP32st5v04LUhpYSUchejnGpL4XbJKt3OwnbW6/Eoh1rYV7XQxnJx7wNy2/TXf/3XaG1tZe4NogPAAAdRhQkhEIvFMDAwAK31gZTlq5hs1dQ+lcRrzjzSQuY+/oskPizzqjGuBIRt+f8Os2xsbms0/tQ0hOVII/wClNtUzSk1yed+ghwePxkddF4cIq/krONsW242WBZ2yQb+cTl7/oZ7ON19qDWgFA61tGCjrRuOt19DXKe37AwkLmSmMWivQlddWGPr88i2bNjW5mSiWy3D4zgOvr5zB5ZlhVxmmIiofhiGgZdffhmPPf4YgPoZpUJUS+q4Z0VU3Xr7+tDR2QlpGDu/uAYVfqSfc+bwoE7ml40Npc+Uy7mxDoHRjEK0wmVjF80EPmoeggpUSylcb37S0eI3QJtGU2wR5NjtNgnknjTljRQpGNWxfRUW4FerErft3LDc8Oqz5rawyTQQPXwUK9KoSFlYATdh7ohK4uXUREG60eqwVeDMtuxNeX5KCW5IITA3P4+pqakd/46I6H4XnMLX29eL7775XQaFiQ4QAxxEB0AIgUQigcOHDyNiRup4FEcuF0eTzuBv7HE0Ij+nQShrzS5cApiAxKplo1JhJA3A1ArXEz0Yj7XnlY3Nm6IiDZSyF0oJcmAPQY5iyy5MiKqUW0rUUSp/egOA2xmBP6zLMGeGbCKh0drZg+mGFoiwy8IilzMmBo0fJkfRqpJ+0tqKbvg2iufb0LvPtxFcJoBbX99CKpXa1d8REd1vgtM/I5EILly4gEOHDh1wq4jub/XaqyKqekII9A8MoKGxoX6TUIncNxsC33AW8Zxagsp2+8N+vuGlhbhrawgnMEw/jCcrweAAgIwwcLXxMDIi4q9TI9hZLH0PlBrk2Ku8+dDF8jIEEpM6SsHSGu+uC8yowBZUoGpISywOq6MHTiVKLGePl4LAY/YyHs3MIgNZNaM2gO2DG4UBqVIq72itYRgGJiYnMD09XZ/vSUREIRBCYHh4GE8++SQMw+D7J9EBYoCD6ICdOfMg0plMXX4YBp+uCwApSLzmzKAPVq5jHGLiTw33TW4FEgu2AxnM2RBykEMAuBtrw714R9468xM9lv4WHNZ0lbx1BNaVnwQuOxJHa2il8NWGxsdJWZngRnZ/RYRAor0La9F4LnGsl3Q0hHV629ahLVxIjUND5z4wt0wuGgxahXc9b5UTw7Ed2JYFFI4aKnEfSSmxsbGBz69cgeLoaiKibQVHb8Tjcbzwwgs4cuRIHY/KJaoNvAKJDpAQAm3tbTh+/AFIWZ8R/2CQQwmBfpXE884iTATKxoY0V9VbvgYw7QCOKigbG2KQQwNIiQg+bzoMS5pFXyrl7o53ydNVyrhZ7jpzC9Qa+M26mRu9UYGRGwDQkEjAauuCkzfpJwSBsrASwBPWAobtlbypKQd5le6Ub6OU3C5bLU8rjRtffonV1TUY2Rv0enxPIiLar8L3xuHhYTz73LPMvUFUBRjgIDpgWmsMHR1CS2sLjGw5xnrjbZHUGgYUXlDzGNCZgo5qGMGG3MPrVUgsWg7MwNP58KfIaIxF23CzoQ8RXSQY4bVjFzdEJQU5UL4gR7A6bFQAnyYNfJyu0EdHduUmgObOXmzEEv6vwr5KFIA+lcaL6WlEtVNyQtNK39sW5tvw1lXt9/gAACAASURBVL/b9xEhBGbnZ3F3bAymafoJ84iIqDjvs9s0Tbz9k7fR1tbG902iKsAAB9EBE0KgoaEBIyMjO86Vr2l+iVKgX23g284cFAQkwq6okkt0ek8JwLbyO6khjeLwKAAfNA9hNZKALNzIPR7qokGOzUM59rbwTXJlYdds4B9XTaTyW1Om9RSuNtt+pdDX0oKN9h7YYScWzQa/JIAMDLyUmcFRexl+xo+S1hlSGeIi01KUo2Bny7gGlZxMNPB3lmXh1te3YVnW/htLRHQfEEJASomXX34Z3/jGNzh6g6hKMMBBVAW01mhrb0d3T0/RuZsauQ6O1sH/L/jyXrvd13Z/H+KX12F1JzwIvKjm8LDeQCavbGx4NwcCQBICo5ZCVOdKZ4ZdNlYCWDZi+FPzMLTwQhzub+UucnBsWn5hkEPnVzpxf7a/kRzB0RsA8P+umZh0AlM0KlAWtjESAQ4NYUWIvBwYoawW7iZZEDihNvB8ejKv4k9J4Y0yn1De9VrIsR3Ytp33MzdvSqnL1Xnfp2dmMDs7l1fukIiINgvm3ujr68P33/o+pJR83ySqEgxwEFUBL0HVocOHN1VUCQYHsj/ZekHea7f7Cn1iRhFeokORG03RoG38xJ5AE5T/hDy0YEN2dxoApiCxmrHyRlOEM3gkF7iJaIUbiW6MxToK3nRziTz38uRnc5CjWPLJ/U9XkQC+Tku8mzQAUbncGwaA9s5uLCSaIAO5MUIRSECbgMaPU3fQqNJ7KAtb7glQhUErN7jhOE7ez3dzY114jti2jdHRUVhWhsENIqJtBN8fY7EYXnrpJXR0dHD0BlEVYYCDqIp0d3ejta0N0Wg07wlBmPJHhxSMBtlqVEiRUSBKKSil4JTwpZRCWmmctBfxsjOPSiSpzG2vwB1HQDt2bq0h35gIuGVjLzf1I2lEUc5OcFhBDh2YN5RSwO82DCzrynZ8WxoSSHX2wVKqYmeIgsBZax6PpGdhHWBZ2GIjN9x8G1Z+cCOv2s1u16FhGgbG7o1hZnaWgQ0iom0UvkceP34cT599Gmad5k8jqlUMcBBVkUgkgtNnzsCybQgp3bKcCAYV3C+VDSiUEkzY8ctxtv+542z+Upv/RmnttrfYl1K5Ly8gojUsDbyamUa/TodfNtb/Pzfh6LytIILrCikXR7AGyb1oG0bjnYFfC79U7H5ujkoNcpQqGNwAgC8zEp+ljUAuCv8/5Zdtd0wIxNp7sBaJ+R9UYefeAIAencGF9Djs4PbtWDml2L7dezt1kZFWW+bb2PNasmVhk0lcv/Gln6SUiIi2J6VEc3Mzzp8/j0OHDjG4QVRlGOAgqiYaaGpqwvEHHvBHUDiOkw1mOP6XygYUypEbI5jYVGSfBlfky91cdOkkXnLmEMntglCDDZ5pR8BycjkMKrHejDBwteEwUjLqd1/LdV9USpCjlJwcweCGAmBr4A/rJhb9Bvv/Kb9A4xoaGpFp7UD+asMLbrhlYTWeycyh316D9o5bCWVhdRlHthTNt+GoLfJt7H69eWVhtcYXN25gfX3dnT+OvS2TiKjeFU4dPjZyDE+ffbpo3jQiOli8KomqSfbzc2RkBM3NzZs+OMMINISVsHFHgY7jU/YCRlTS72iGGWzwbEBg3laQheVbQ1mv901jMtqM642Hti0bu+fV7BDkcH9d2lo13LKwHyVNfJqp7EdFTAANXT1ImtHcD0M5T3PBDQWgX6VxNjMDQ2t3dE8JwY3N9j5dpFhAyrZtOEWCG3tdR3AZs7OzGBsbg2EYnD9ORLQDL0dRY2MjfvSjH6GxsZFBYaIqxAAHURUyTRMjx44hGo36QY6wP0Qr/iEd6FB1qRRedmZRiVwc3ho0gCklYNt23s/CXavbkb7UNIDFaBMktD9FpWxr2ibI4VdFKTqFxf8LAG6CzwVL4J9XDaTz11DO5gYbmv2u0NXShrWWTniZJsJLLJpbviUkXszM4LC9lj9qpATBXb6Xy6jYofCCG8rJnzpSrus0lUrh9p07+SNDeJ9ORLQl7/33woULOHPmDAPDRFWKAQ6iKtXV3Y3W1jYoFeiM1sGH6Vad629mZvENZw1W2GVjAx3EFAQmLIWocspe+2LTagPfV2QMf245CreKSu6mqVw3S6Xl5Ngs+BIB4N/WTExUsiysBpoME0bfADaEEVhvuFNTMpB4wEni2dRU7vjvqipJ8f8v7W+L5NtQCrZlQ6uCfBtl3A8zMzOYmZ0NZdlERPXEK58tpUR/fz++++Z3WRaWqIoxwEFUpWKxGIaODqGtvS03VaWGP0y37GRrIGPZiKQ38HbyNhLQFQs2SAATMLCWsWDkNzaEleYCBSYUrsV7MZbohAhUrCnnzVLpOTly5VE9XlnY3ycN6AqWhZVQ6OruxUyixS/jG1pMJfA9Bo2/2vgazTo3VmU3693rYSuab8N23OBGwXSS/Zwb+aN4NCzLwu07d5DJZJh3g4hoG4UV7S5evIjW1laO3iCqYgxwEFUpIQR6e3vR0tJS0yXItgpseAlULSsDrRzYQmLEWsTLmWnkdS9DHsUhANxSbtnYSvBGp2hofNo4gKQZhwzp0O4Y5AiOHAkkF11XwG83TGwEGx0yAaCjsRmrHb1wVH4Z1LILJtqEwPnMDM5Yc7BQmUBi0WvCy7cRLAGL8o+sME0To2NjmF9YcJ9Khjgxi4ioHnijNx5++GF888lv7jvoTEThYoCDqIoZhoGTJ0/CMAwYhrHzH1SZrZ5wKMeBbVlw7NyTaneqgMDLqQkcczagQ+5VB0dxrENi3nIgtZvvoBLTYyQ0xqOtGE10AULmygGXfZXbBDnytjHX1f08ZeDTtERBV7vMLfMbBACIGRJmVw/WC8vChkgD6FcpXEhN+FOjwrZ1vg0ntHwbweWtrq7iq69u8ukjEdEOvPdgwzDQ2NiIF158AV1dXaycQlTleIUSVbmmpiacPn3aTYZZQ08Mthq1YVsWbNsu/nsIdDkbOJ+ZQgwql4sjjKfMgVK1gJtwNG3nuvRhdv+yA17dsrGNh7BmxBHszle6ukrQhgLe2TCwtNtMm3sRCG41NTYj1dweflnYwNSXCIDnM7PocdahRG70RsjjN/L/pTVsy4ZS4QY3vHVd/eIa1tfXNw27JiKinML3yFOnTuHs2bM1+bCJ6H7DAAdRDTg6PIyuri6YpnnQTdmW13HeKreAlckU7ch55WoF3I7nY+k5jNjrfhLIbJKK8jc40JndgMCcrSCD0xe0Lv96s9vqbpvGRLQFN5oOI6LtcNbnrzZ/SG3hcdJwy7P+ecPEZUsGuuHeUSmzwLpNIRDt7EEqWxY2tOCG1vBn4wDod5J4OjPjVrMJMZGve1g3XxeO48DKWGXNt5G/3uz1CDe/y/T0NMbG7kFKw18XERFtzZue8oMf/gDxePygm0NEJWCAg6gGaK0xcvw4IETVPj3YakSAVsqdjuIUjEARRTpY2X836wzOZ6YR2TSWIdxpI7NaIGNb5V/HdjRwrWkAy9myse7PKjN9INjplgAWbYF/XTcqm5VBa3S1tmG9qR3K2+6wSyIDUBA4Z02jw0kWaVL59kCxKimAG/Bz7HDzbXjLFBDIZNL4+vZtBjWIiHbBMAy88cYbOHXqFN8/iWoEAxxENUAIga6uLvQfPlx1cz+3SyJqWxYsyyo+aqNgVEDwXxrAo9YcHrVXYGV/E8iBGZo0BMYthYhy/Bwg4Vdy0Vg1Y/ig81RumkSItpquogH8YtXEuJMfhApF4HxpiZgwegeQFDLcqSGBsrA2BM7Yq3gqOb11YG6LURdbvbb4z7e4LrLJRIPHotw3zsGqKVprTE5NYW5+nlNTiIi24Y2i8yqbHRk8gu+/9X3mLSKqIdU93p2IfJFIBIf7+7G4uIiVlRUopfwP4Wrg3Qx41VFUQTUI7zXB71suC0DMyeB7G6O42tyM9Wzn15+yUmZCuJ1UAWAaBroyFlrjEnYF0k5qAFIr3GzsxUhjL4ZXJ6CFrNhx1dotz3o9ZeLdpOHui4qsGTC1RntPH6YTTRDZIFiYe9wduQEktMJb618jbm3AEhIye0ObPz2kYKrSjjS0FluO2AAApRRs24Eucu2Gdby963H07hiUUlUXICUiqkZSSkSjUbz55pssC0tUYxjgIKoRXtnYe/fuZcurWn5JyeDH7kE+l3UcB45tQwoBuc98IRoCxzLLeD0zjf873g9Tq53/aM8ERHYvSgF8rQQedWzAiGQbo8s/bSKY5FS7OSBuNg9gOL0AUzmhT9MI0hr4JG1gA4FzKbT1Z/elUmhvasJK5yE4SsGfeBXSer3tcoTES/YMvuEsYSMSRST4IiHygh17Ibeo+es4CtAKpmEAIU8z89qutUY0GsXHn3yChWxZWCIiKs03v/lNPPHEEwwOE9UYBjiIaszp06fxX/73/4LVtRVEzAi0Um7SygN+uqCU2lTmcr8c5aDPGMXhM69hqrkbwksG6WahLOu6vH0oNJCExETaRl9MQhtGLghR7g6if8w0AImV1RXcuHEDUjmVSsORXbvAYuwwdKwL7hgHEU5QB16GT42olJDtXdgQJmS2RG14MZXsyCEh0LO+gMHr/45LqWVoIXLJRYO8KVQCuyoeq6GhiwTilNJlvza24yVpVUrBsizE4jG88sorvEEnIiqBEAKDg4M4+8xZtLS0HHRziGiXGOAgqiFaazQ0NOC1i6/hP/9v/7mqpqrocgcAtPY7oP1WHAtn34RluGlHRUhzVbypKhLAtBJoTqfQ0NCY16ZwqnsAwjTgXHoHn3/2CbSUxTveIXD3sUK0awGRUy8gE9yxZd3e/LosiYYENpraEPr4Iy/3hgZMZaH/2h8x+tF7uKP1NmvTfoBpN+e0fw0WJpSpoGCOjYZEA/7m7/4Gzz33HBKJRGUbQkRUw6Ss3FRRIiovBjiIaogXyDh9+jTOnz+PX/ziF/7PquGDuOxtyHZO27++jM7jj2Gqb6S8yy/CmzaSkQbm7QwaHBvaMMufAyS7bdAa2oygYew6jOsfQ2ejLBU7mlpDQ6BtYRxHFu/hVudRQNkIJ9jgfjOlQKS9G2vRXMm9sCdPaAF0zI6j86tP3FFPKC32sKdz+oAvRW+KzTPPPoNXXnmlrKVniYjuF3zfJKpNDHAQ1RjvA/fV117FpUuXMDY2Bsdx6vJpg7c15uoChq7+B+a7B2FLA1pkRziU/ebDz4oBAJiTUXStryHR2gF4Uw/KvV4pYVgpNP7mH6FSG4BhhjMdZgv+JBnHxqmvP8Zk6yFsyAjK20vXgRVptDY2I93W7U2G8adUlJ0/ekMBUmLoi/9AbGESWrg5MOrt1tU7Z6SQ6Ovrw+t/8TqnpRAREdF9hXc+RDVIa43urm68eO5FmKZZt6UfBZCdqgK03foUA3evwTKieck5y7/S3D60DBPjWkIm1/yfl2uNwQkbDZffgx67VfHgRq4xGloYiKwt4cT4NeTlySzHPg4solEConcAaSOSCzCEGNwAANuIoH/iK3Tc/ARaS3cfl3+NByqv5KwUePqZp9Hf3193QU8iIiKi7TDAQVSDhBAwTANnnz6LkydPwghUZai3IIdLApkUjn78/6ElvQaF8gYbCnl7UGqNxUgCs8kUpGPnXrDfTmMuwQOis3cR/ewP0NFYOAGbkrhVZBzDxKGpr9C9OofyjW/IbZOhNVq6erHa2OqOqghRLn2rQIOVwsif/ieQ2gC2qHJSy4JVU4QQGBoawgvPv4BoNFqn7wdERERExTHAQVSjhBDo7evF+fPn80Zx1CcNJQ3Epm7j5Ke/reiweyEE7poNSCc3/C7/vsIQgdwbwrYQv/JHYH7aH8VQ6eMoEBxAIWCmkxic/goJJwN/S8sSeNFoSiSw0T0ApYPjV0KkNYSUOH7tPTSM3YCS5gEGkcInpYSAwLnz53Bk8EidvycQERERbcYAB1ENk1LixXMv4tSpU3mJBOupYxPcJkdG0Hvpt+iduQMtsm9fIU1T8feg1rBMExMOACvjvWD/682O3ohc/xhQqgo63t7EH42eubvoWZlBWcIP2c2KC4FoVy82IlF/qWHm3gAALQ10LE7i8Ce/hi0Nf1X1eH14Bo8O4vXXX88b1UVERER0v2CAg6jGGYaBv/rrv4JpmvU73z5bWUQIQGVSOHLlD4jabrAhzFwcXtfR0BqLMor1jBfgcEdh7HZ/68DoDQiJxKfvQK8uuus64EoXwh/KIWBkUhiauom4VtjXKI7s3wgA8YZGbLR0QAZ+FnbuDVPZOHLtjxBrK+6+DavMbxUQQsA0Tfz93/99fb8XEBEREW2DAQ6iGqe1xvHjx3Hx9YswTdP/WV09pQb8Dqo2TLTeuYq+iS+zv9OhJxzVAGwpMasAbWXypqiU3JEMvE6bETTcuQLj+seAkFUweiNIQwuBtoUJHJkbBWRgJMAe2xmVAkZHD2wzmvthyMENAOiaHUXnrUt+6d28kTl1wCsR7f3/uXPn8NBDD9Xd9U9ERERUKgY4iGqc18m5cOEChoaG6r4spNAaxsYa+q/+B6JWOrxMo976Av+/ICNYTaUg99B59JspBCLJVSTe+SfoTLocTSybvOIpysHxu5fRktnYQzBC54IhWqOlqRnp1s6i6wmF1jC1wuC1PyKyspA/JaYOSSlx+PBhvPLKKwxuEBER0X2tvntCRPeRw4cP49z5c4jH4/Ub5AiMqGgdvYqBsauwzCiEDncUh9ddtIWBSSXcsrF72cfZUQQNl34P3PsaqOI8CVpIRNeXcGrsyr4CA80C0L0DyBhm7ochjt4QWsM2I+ibvOWWhQ1znVXAm5ryzLPPYPjY8EE3h4iIiOhA1WkviOj+4uVv+Na3voXTp0/nJeasp6e5eSMMLAvDf/5XtGQ2oAKBj3BWnN2f0Fj2ysbaubKxO01T8X8vJaIzY4h8+nu/LGy1HSMhRDaoo+FIAz1Tt3B4ZSbXxlKCSN7maoWWnl6sNrZBBHNvhMBrlRICjXYaJz74BZDe8H9fPXt4/woTCo+MjOC55567D6opEREREW2PAQ6iOiGlRG9vL1566SUkEon67eh42yUNRGbu4eTH/wYpAm9lIeezkAIYNRuRSq6X1mn226MhrAzin78HvbocYgvLRwAQtoXByRuI25ncL0rYx0JrtDU0YrV7AFqpwC/Cq5riLl7i1Ke/QXT8FpQRCW+dVcI0TZx/6TwGBwfr95onIiIiKhEDHER15tHHHsVDDz2U97N66vjktkRDSRPdV95D79Qt6JCn5fh5HLSGZUYw7QDaCuTQKNbpz0t6KRCdGYV58zP/d9V6XIIVTrQA2hcn0bMykx/Q2SrIkf1xzJCQXX1ImVEIhDt6w1+1kOiav4fez/4ARxqhjxo5CMFzRgiBEydO4OzTZ1k1hYiIiAgMcBDVncbGRvz8L3/uj+Koy46PP4pDAMl1DH/6G8QzSbd0KxBqLg4Nd+rFvBHFajrjr2vbNWoNoRQSn70DLM+Xv20hCCbmNDMpHJ38EpHgSIwtabcsbFMzki0d+UGGkCunRO0Mjl75A7C2nMuRUqVBpP3wrulIJIK//bu/RXNLc9UGy4iIiIgqiQEOojqjtcbg4CDefPNNGIYBKWXdVVbwO8taA9JA0+h1HLp7zZ1SgfCDHABgC4lpJaCsTG60g85VD9GBxKc6EkXD7cswvvizv4xaOB5eG5UQaFu4h6GFu9mysbkKKTm5bY8a0i0Lm00sGnZwwzvuPdNfo/3WZ4BhuoGVOi0LK4SAYRh49bVX8cADD9RnEJOIiIhoDxjgIKozXqf0269+G8eOHTvg1oQnF+RQEHYG/df+iIbUmt/ZCzPI4VkxIlhJp/1RCkVJicj6MuLv/QLasnNtqyECgNLAA6OfoTW1hqIfHTr7Sq3Q1NyKVHN7YAHhjtyA1ojYGQxcfc+tcKNV3QU3gqSU6O/vx6uvvgqgNoJlRERERJXAAAdRHdJao6WlBa+88gqampr8srH11hEKbk3jxFc4cvtTOJFo6IlGvfU6QmJKS+jkel4J27yklwAaP/oV9NQYYGZLpdbScfBzcQhE1pdwZuwzmMEQjfYnBgHQaDYk0H0YlqxQCdxsWdj+sWtovXM1O0GmvvJuALlrV0qJeDyOl156Cb29vRy9QURERBTAAAdRHRJCQEqJJ5544j4Zwi4Ay8KRS79Da3IVKhvQCW0UR26tWDXjmE6lYdhWoJufJSWik1/DvPQOYET8ttRS5zuYi8ORJrqnbuHw0mR+kCa7waZSaOk5hLWG5ool+NRSoMlKYfijfwPSqZDXdvCUUhg4MoCnzz7NsrBEREREBRjgIKpTQgi0d7Tj3PlzaG5urttRHG5HW7tTQebGceajXwJmxK/cEUp4w8ujAUBAYyzaiExyDTJv32pIK4P45XezIzyyf1eD+18IkW07oLXC0ckbaLCt/BdpjdZEAiu9Q26eCISYewPwj64yojhx+d8Rm7gNbRheg0NZ50HZavRGLZ5LRERERGFigIOojgkh8NRTT+H06dN5ozjqqWMUTDjqmFF0fvp79I/fgMpOkRBAaKM4vKUqaeKeMoBMoGwsBGL3voTx1eeAkKFPm6kIrQFItCxPo2/xXt7ojLghIXr7kRQyl+g11HYAWhjonb2Dvk9+DceM1n1ZWK01jh07hhdeeKGurmEiIiKicmGAg6jOxWIx/OznP0NHR0fddor8rRICyrFx9NJv0ZDeAIC8RJTlXWkuiaXUCgtGFMtewlGtIW0Lsc/eATZW3FbUeNLL3GgMDWFbODL1FRpsN6AjASSaW5BsboehnILXl1kguWjcSmLo8h+gN9bdksGor+BdkBACLS0t+Nu/+1s0NDQcdHOIiIiIqhIDHER1TmuNo0eP4nvf+1595+LIjuJQRgRNY9fRN3rVnSahVe41XhnXcn0hV6JUCYEZJeCkU9CRGBK3PoVx63OgjpJeBrehdXkaQ7N3AMNEwpCQ7T1wDDN/O8u9v719nv3ed+862m5fdqemZMvC1rPXLr6GEydO1Pd1TERERLQP5kE3gIjCJYSA1hrffvXbeP/993Hjxg3Ytu3/vF4IuJU+JDR0JoWBK+9ipv8klprash3iMDu/7n5cMCVatY1DqVXE//BP0JYFyDqLI3tVVZTC8bHLGOseghwYwVpbF+y8lKRhcQMZjZkkBq68B2Nj1Z0CVOMjZIrxrlHDMHD06FFcvHixbkeoEBEREZUDAxxE94lIJIKLr1/E3bt3sb6+7iaCrMcgRzaY0Th5C4/89v/E5JmzQCQOd2JD+EGOprVFtHzxR+ileSA7sqDuOqXeaIl0Cs99/itMRV7GRjo7FSfkfSwAaNtG75d/RvPYDSiIutzH3vYIIRCNRv2Sz7oOt5WIiIioXISup94NEW1Ja43FxUX81//jv+KDDz6A4zh5v6sn2p/KoCAiMcAwEXLayxzbgrIsQBqoh9wbhQpzmgitIMwIYEYq1AIBODaQSfmJZIH6yr3hbYs3euORRx7Bf/pf/xN6enrqajuJiIiIyo0jOIjuE0IItLW14dz5c7h27RqWlpbqLrBRSEsDyrYgLGvnF5eLQHZaijuaod66o36FlGzOEy0ktOMAtrPDX5aPFoAwzFzi2Drt9Esp0dDQgHPnzqG7u5vBDSIiIqId1NnkcCLajpQSjz/+OB599NG8zlK9dZz87fGG88sKfnkjNoSo1363n1g1uK2V3MciG1xxV11fQaTC6/LkqZN49rlnIestlwsRERFRCHjHRHSfkVLiBz/8ARKJRN0FNoKEEH7nt9Jf9TYtZSvBba34V/b41ishBOLxOH72s5/BMIyd/4CIiIiIGOAguh8NDAzgJz/9CUzTnaXGxIVE1cGbNmYYBt74zhsYGRk54BYRERER1Q4GOIjuM17llBdffBGnT5+GlJLBDaIqEKyccmzkGC5cuMDgIxEREdEuMMBBdB8SQqC5uRmvXXwNjY2NeR0rIqo879qTUiKRSODChQvo6uo64FYRERER1RYGOIjuU1prnDlzBt988pt1nXCUqNoVXn8PP/wwHnvssU2/IyIiIqLtMcBBdJ+SUrplY8+dQ2dXJ4McRAeg8Lprbm7GufNuWVhWTiEiIiLaHd49Ed3nTp06hae+9RQABjaIDopXFeaxxx7DI4884icbJSIiIqLSMcBBdJ+LxWJ483tvoqmpCVprdqyIKsy77mKxGH789o/rvoQzERERUVgY4CC6z2mt0d3djb/5279BNBqFlJKVG4gqwKtoJKVEJBLB22+/jcOHDzPISERERLRHDHAQ3ee8QMZLL72Ek6dOHnBriO5Pw8PDeOXbrwDgVDEiIiKivWKAg4gAuElHv/Od76CtrQ2GYQBgR4soLMGysE1NTXj9L15HIpHg6A0iIiKifWCAg4gAuFNVHnzwQTz2+GNQSh10c4juC1655kcffdRPNEpEREREe8MABxEBcJ8oJxIJnDt3Dn2H+vwSlex0EZVP8HqSUqKjowMvvfwSWltbeZ0RERER7RMDHETkk1LizJkzeOKJJ6CUYoeLKCRCCCil8Mgjj/ijN4iIiIhofxjgIKI8pmniu9/9Lnp7e/N+zg4YUXl1d3fjrR+8hVgsdtBNISIiIqoLDHAQUR6tNXp7e/GjH/3ooJtCVLe01njrrbcwMDDAxKJEREREZcIABxHlEUJAa40Lr1zA448/7ufiIKL98a4tbyrYxdcvMscNERERURmx50JEW/r+W99Hc3MzAPeJMztiRHsTTCyaaEjgzTffBACO3iAiIiIqIwY4iGgTLwHiyMgIXnjxBUQiEb+DxiAH0e5414zWGoZh4KmnnsKZM2eYyJeIiIiozBjgIKKipJSIxWJ4/rnncejQIXbEiPbJMAx0dnTixRdeRGNTI6d/EREREZUZ766IaEtSSpw4eQJPn30apmn6HTIGO4hKUzjy6YlvPoFHHn2EwQ0iIiKiEPAOi4i2pbXGyy+/jNbWwJstQgAAIABJREFUViil/J8zyEG0veA1orVGIpHA63/xOvNuEBEREYWEAQ4i2pYQAr29vfj5z3+OaDQKgIkRiUrlXSumaeKnP/spBgYGDrhFRERERPWLAQ4i2pHWGs8+9ywef8ItG8vRG0SlEUJASomHHnoIFy5cYDUiIiIiohAxwEFEOxJCIBqN4oc//CGaW5ohhGBHjWgbwWuksakR3/v+9xCPx3nNEBEREYWIAQ4iKolSCv39/XjxxRdhGAbLxhJtIXhtGIaB559/HiMjI3k5bIiIiIio/BjgIKKSSCkRj8fx3HPPYWhoyH9CDTDIQVSMl7/mhRdeQHNzMyunEBEREYWMd1tEVDIhBIaGhnD27FlEo1F22IgKBEdvmKaJJ598EsPDw0zMS0RERFQB7J0Q0a7EYjFceOUC+vr62Gkj2oLWGi0tLXjjO28gFotxlBMRERFRBTDAQUS7orVGW1sb3v7J24hGo8zFQZQVTCwajUbxs5/9DF1dXQwEEhEREVUIAxxEtCteIOPs2bP41lPfOuDWEFUX7/p4+OGHce78ubyfEREREVG4GOAgoj0RQuD73/8+enp6IKVk2Vi6r3mjN6SU6OjswPe+/z0YhnHQzSIiIiK6rzDAQUR7orXG4OAgzp07d9BNIaoaSik8/dTTGBkZ4dQUIiIiogpjgIOI9kQIAcMw8PTZpzE8POw/rRZCcCQH3Te8811rDcMwMDAwgOeee46JRYmIiIgOAAMcRLRnUkoMDg7imWefQSQSYYeO7ltSSpiGWxb2+APHWUKZiIiI6ADwDoyI9sUwDJw7dw5DR4fyAhwMdlC9KzzfB4cGcfH1i4hEIgfYKiIiIqL7FwMcRLRvnZ2d+NGPfgSl1EE3hehAaK3x1ltvobu7m7k3iIiIiA4IAxxEtG9aazz55JM4/9J5GIbh5yTgKA6qV8FzW0qJp59+Gs88+wxz0BAREREdIAY4iGjfvA7dT97+Cbq6u/gEm+4LXhCvra0NP/jhDw66OURERET3PQY4iKgstNbo7unGxYsXEY/H/aAHn2ZTvQme25FIBBdeuYDBwUEG9oiIiIgOGAMcRFQWXqfvySefxLFjxxjYoLonhED/QD+eeuopmKbJc56IiIjogDHAQURlI6VEf38/nn/+eSQSCb9UJjt+VC+8c1lKiWg0imeeeQYjIyMsC0tERERUBXhHRkRlpbXG2WfO4ujw0byqKgxyUK0LnsNKKfQd6sP58+c5NYWIiIioSjDAQURl5SVdfOuttxCPxwGAHUCqG965HIlE8OMf/xhdXV0M3hERERFVCQY4iKjstNZ49NFH8eKLL0JKyQ4g1Q0hBKSUOPvMWXzrW99i8I6IiIioijDAQURlJ4SAaZr4y7/6S/8Jt1dSk6gWBc/h9vZ2/PSnP0UkEuE5TURERFRFGOAgolBordHQ0IBXX3sVkUgkL+EoO4VUK4Lnq5QSkUgEr776Kjo6OvJyzBARERHRwTMPugFEVJ+8ofzPPvssbn11Cx999BGUUhzSTzXJC3Q89NBDeP6F5xGLxQ66SURERERUQGj2NogoREopTE5M4r333sO9e/c4eoNqktYavb29eP7553Fk8AjLwhIRERFVIQY4iKgiHMeB4zgMcFBN0lpDSgnT5MBHIiIiomrFOzUiqggpJRONUs3SWsMwjINuBhERERFtgyM4iIiIiIiIiKjmcRIxEREREREREdU8BjiIiIiIiIiIqOYxwEFERERERERENY8BDiIiIiIiIiKqeQxwEBEREREREVHNY4CDiIiIiIiIiGoeAxxEREREREREVPMY4CAiIiIiIiKimscABxERERERERHVPAY4iIiIiIiIiKjmMcBBRERERERERDWPAQ4iIiIiIiIiqnkMcBARERERERFRzWOAg4iIiIiIiIhqHgMcRERERERERFTzGOAgIiIiIiIioprHAAcRERERERER1TwGOIiIiIiIiIio5jHAQUREREREREQ1jwEOIiIiIiIiIqp5DHAQERERERERUc1jgIOIiIiIiIiIah4DHERERERERERU8xjgICIiIiIiIqKaxwAHEREREREREdU8BjiIiIiIiIiIqOYxwEFERERERERENY8BDiIiIiIiIiKqeQxwEBEREREREVHNY4CDiIiIiIiIiGoeAxxEREREREREVPPMg24AERHR/UZrDSFE3r+3IoQo+vrgv+n+5Z0LwXOi2Pnk/d57LQD/9UopAICUfO5FRES1jQEOogO0Vaemmjou23W89mM32xhWG4op7CAEOwOVVMr+KXe7qum8C6qn7dRaw7ZtWJYFy7bhOI7770wGtuNAOQ6UUtBaQwOQQkAaBgzDgGkYME0TpmnCME1ETBPRaBSmWV0f5eU6XtV6PlYLbz9nMhlYluV/T6fTyFgZ2JYN27ahtIJycgEMaUhEzAjM7PkTjUYRiUYQjWT/PxLhvi9QzvegWty39XZNV8N9DRGFp7ruiojuM9X+YVgtT4kPog3BdVbDPiimWttVbrW8nRqAbVnY2NjA8soK1tbWsL6+DsuyoJRCKpXyO6e2bUMpVXR7hRCIRqP+92gsBkNKJOJxNDY1obm5GS3NzWhqavKf0h+EannPqGeZTAYrKytYWFjA+vo65ubnkEqmYNkWUqmUf0555xiATaN/pJSIRNygRiweQzweRyQSQSKeQEtLC9rb29He0Y7WllZEIpG8v+XxpVp2EA8siKiyhOaVTlQWWmusrq0inUrDffbqEhD+vwUEpJSwLMu/SXQcp+iy2tvb0dDQUJnGb2FpaQlrq6vuP4rc1Gqt4SgF7PJtRAiBjo4OvzO2nfn5eax6bQiR1w7TNCGEgFJOdrM0bNuBbVlF98Gm5UDAsu0iywcMaQDCPebbbbfWGtFoFIODg1s+nV9ZWcHExETZOhumaWJoaKjqRgMsLCxgfHyi6NB5IQAhJCwrAyllSTeu0WgMw8NHEY1Gw2iu3wFUSvnHaG5uDpZt+0/YLcuC1hqmaeZGa2S/tiKEQCQSQTKZ9PeFUgpSCESiUcRiMQBAU1MTenp60H/4cEnXVznZto3R0VEsLS9vHvmkNSAEBOC+/+2wLKU1Tp48ifb29jCbXDNs28bc3Bxu376NqakpJJNJWJaFVDqFTCYDADAMww9o7HQ+AfADYYXTVKLZ8ykajaKhoQH9h/sxPDyMjo4O/zq7n4IclmXjww8/wPr6RsF2axiGmQ0kOcAOZ7XWGm1tbXjyyW+G9v5TbpZl4erVq7hzZ3Rfx9x9rxZ48skn0dfXV8YW7o7WGh9//DHGxu4hGnVHKmXS6Vwjt/5DCCmhlHKvk8JLSwDQwIMPPYiTJ0/eV9cHUTWqrjtZohpmWzZWVlaRSiYRi8chpRvM8G46vRvOjY0NJOIJrK2tQUr3aazWCk52CHEymQKgoZSDRGIAQlR2TrR387q0tIS7o6NoaGjYcv5/MpWC1hqGYexq+bFYDGtra2hqatr2ZllrjcnJSUQikbygUJi89tiBDqmRPY6l/F0ymYRl24jF4ps6GFpppDNpABpNTU3+3wH5T1gdx0FzczNWVlbQ0dFRdH2Tk5NIpVLY2NjY17x577yMRCLQWmNkZKRqbs5SqRSuXLkKYOugUDKZBIC8p8zFBI9rV1cnOjs7y95epRQyloWpyUncGR3F4uIiTNOEnZ2KUtgey7J2tXzbtiGEyFuWApBOp5FOp6G1RjKZxNz8PK5evYqe7m4MHzuGvt5ed2pCiPkVtNZYW1vDxOQk5ufntzxWyrZhGsaOwUIBIB6Loa2trWrOx0rx3hO01kilUrh58yauX7+OhYUFGIaRN9LHMA3EYjF/BNBu11P4HiWEQCaT8YMmS0tLmJ6exp/+/Cf09vbiwTMPYmhoCPF4/L7J1/H555fx5z9/VDRglMlk4DhOSftCaw2lFLq7u3DixIkwmlp2q6ureP/9DzA1NeUHwPbC+4xxHIXvfe/NMrawdEopfPjhn/Cb3/wG6XTa/zxwHBvRHT4/hBBIp9NQSkMEAln+w6vse1Q6k8bRo0cRi8Xuu/ctomrCAAdRmWit4QQ6xd4Nj5QSEIGhvRpYW1uD4zhIp93XezerWmsoJztEXQvs9EQorO1YXlrC6OgoAPcGp1heCgAQ2dEowaeGhQo/5I1sPoHW1tYdbwC8G0Jvf221jt3aab1SSijHgaOUu31SIpVKbWpbsWUKABEzgvX19W2Xn8oGh4Jf/jICT1W3CgD19/fj0qVL/miAYm0qhbdsL1jS3d2N1tbWXS+n3JRSmJychG3bfucd2HwOyuxTtY2Njbzfe4L7zjAM9PT0+MGlctBaw3EcrK+vY3JqCvfu3cPa2hoAbAps7OvcFcIPsm13zL3fSSkxOzeHe+Pj6OrqwtGhIfT09KC5uTm0jqnW2s3/kH1PyzXdPZ8dy3IDh9lg5VbvFwK5/Xq/jRbwcrTMz89jdHQUN27c8N9LnGB+Fu/L0jAj5r46n4XrD3Icxz8OMzMzmJ2dRWtrK06cOIHho8NoaWnxR73VI8uycOnSJWQymU37xnvvSafTMAwJYOt8TcH3qz//+SOMjIzs6sHAQfECqt727+czxjt3D4JSCteuXcN7772HjY0Nvx1KKUQiURimAa1U3nYWntORSDTvbwF32wzDgGG69zRnz55FPB6v6LYR0WYMcBCVi3CfInsf4t4NvGEY/r+9BG8qGwzRSkEhe1Pr5J6+ucPNi3/IhklrjbXVVUxNTfnD7L2fF74uOCVgu5uWYIdUSoloNIpDhw4hkUjs2J5gh7+cN0aFNyjecfKGn3pPQr0OhVLKvRnNBlx2Wia08kedFGu3t1z3qbqAEBJaO3n7c6eb36amJgwODuLOnTuwbXvP+6dwnaOjozh16tSBD6FeW1vH1NR09qnZ5n3utdtxHH+URLF94P1MSolEIoH+/sP+dI69Cu6zxcVFjE9MYGZmBisrK/5TwcLX7pdWCk72eynXm9Y67yn85ZUVtLa2oq+3FwMDAyUFGPfCe98I7ndojUw6XdJ+0dmpLKZp7jiVq14ERxdNTEzg9u3buHfvHlZWVvwgr/e6YvvNNExYovh7TTna5vFGEC0uLuLDDz/EzZs3MXhkEMeOHUNPTw+klHV1vLTWuHnzJubnFzZ1zr3PDW9koVIam+ct5C/L+3737l3cvXsXw8PDYW9CWXiHdK9BtIMMUnr7/datW/j1r3+N+fn5TdvhTRuMRCIwIxFo78FG9ph7+WoKc9qYpuk+vALQ0NSEt956q2aOKVG9Y4CDKCTBDhiQf0Pk3SgKIaC0hg6M4MhLblnhNieTSczMzMCyrKK5QYK2SoZYTLA04W47V2EFOQpHSxSORJHB+bbZ10khdmyHm7ZDZ6coGXCc4sPGc0+oZfYpkJmdx537/U76+vqwsLCA5eXlXQ9PL8a2bayurmJ+fh6HDh3a9/L2SimFqakprK6u7rgfvONoGIb/pLkYwzDQ1dWF7u7ufbdPCIFUOo2bX36JyakpbGxs+OdKmE8oveldxXK8FHutxzs35ufnsbi4iOnpaRw6dAjDw8MlBRr3yhuNkc5k4Ozy/BRCQKO2E8yWwjtOS0tLuHTpEiYnJ7GwsOC//wRfsxXLshCNRouOMgijvV7gaX5+HsvLy7h95zaGjw7j0UcfRWNjY6jrrxQvQHj58udF96k3VWi3+9sbofP+++9jaGjovpnmcxC8Y3Pnzij+6Z/+BxYWFrZ9vTvy1v0sbmhoQDovKOtO3fICG0K4uba01mjvaMdPfvxjnDhx4r4bcUZUrRjgIKqQYMc4+ATBMAz/Zrbcnfjd0Eph7O7dovkCtuN1LLdddnabHnjgAbS1te2rnfsVDGwA8OezAwWlYZXK2y7HcSBKHFKstYYAYBgCO+1K77g7juOXZ1TK2dTOYmKxGPr6+vxpRPs9d7yb+rm5ObS2th5YkttUKoU7d+6UdB7mOlwSWhfvRAshEIvFMDh4ZMdcHaWYmJjApU8/hdZuzotKXbdaa1jZ4Ohe1ucFYObm57G4tIR74+N44vHHQ8lHArglbtOp1K7eT4LquZsQfK/5+uuv8d5772F9fd0/RqXuM29UR6WH/3vrtSwLi4uLWF9fx5c3v8T5c+dx9OjRuujojY+PY3FxcdPIGT/fgpeccpccx8Hdu2MYG7uHoaHBsrSVihsfn8A//MM/+NMGdxr95jgaSrkjOmKxGAzTRCadhmm692mRaATpdNp/H25qasIbb7yBBx54oC7OeaJ6wdAxUQV4T2m8Jz7BD0GllPskAG5OC2kYUNlh2pWSyWRw69YtP7FmuUdKxONxDA0Nob29PS+/RCUV5rXwtjU4pz34OrvIaABHq10Nwy4lOanXHiCXs0FKw7953ulYdHR0oLOzs2zzuZVSWFhYwNzcXNnm9e+G4zi4cuXqpqkOO/GS+hYSwk3ke/jw4X0H19bW1nD588/x6WefIZVK+QlOK9Wx9AIbkX3kPPA6w7ZtY2VlBb/793/H1atXN80t3zNvOp4QsLIJGPe+qPot8qa1xsrKCt555x388pe/9PMM7eWaU0rBkMaB5HTw3jszmQzW19fxu3//Hf74/h+xtLRU8baUk23buHXra6ytrW0KbkQiEf9p/l45joMvvri2r+uDtqaUwsTEBP75n/+Hn8Mm+BlvGAZM0/QfMHk/N00TpmkiEom4Dz8cjURDAzK2DS2A9Y0NZLI51hoaGvDqq6/ikYcfZnCDqMpwBAdRyLxOiTest1g1BSD3dNXLVVEpqVQKM9NuroPdVnUIJuMq1hnxghtdXV3o6uoqV5NLVnjD4R2H7UbLuKM3dNEpH1pp2HBgGAbENvk4vHUBgGHIkjvqXufTzc8RQyn9u1gshp6eHiwuLpZlmorXhomJCb+UbyVNTExgaWlpT+diMC9M8NjH43EcO7b3udFaa0zPzODmzZuYnZ09uGR52cDnVrkYdrco7SdDvvHll1hcWsIDx4+ju7t77+8/QgDZ4MZeqnpsXlx9dhhs28adO3fwxRdf4N69e/segeEFbA9yf3ltTyaTuHz5MibGJ/DYY4/h2LFjAGrrWPq5dcbvbZr25o2w2+37U+HyLcvC6OhdzM3Noaenp6b2TzXzjtXC/AJ+9atfYXZ2DpGICa0B27ZgWW4VJyklZPa91LZttwy8uwD/IYajFKxMBrYVQcax/JxG3r3DuRdfxNmnn67rJLtEtYoBDqIQ+dUDsjdJXsK9rTrXwZ9p7RYgC/Nj08pkMD83h7W1Nf/Deze8DqUBbOrMeNMC2tra0N3dXdGni4V5O4L5EYLJ3rb6O8veusqDF9QwSuwEGlLCkbsLcvgJzLZJWhd8fXt7O1pbW/0nqfvt/HqVAcbHx3Hy5Ml9LWs31tfXMT4+safpWl5g0E0IK+E4CjqbqPf48RHEYrFdP2Xzzp3R0VGM3r2LhYWFsgQX9kplrzVpGJCB/DD7Wmb2WE9NTWFlZQVnTp/G0aNH97YwrWFlMn5C0XoegbEfX3zxBa5fv54XlCxHwOqgO1neNmQyGdy5cwdra2tYW1vDmTNnyjI1rBK8a358fBxzc/ObghtSSn/k1n4tLi7i7t0xPy/QQR+/3Qn77mTvMpkM/uVf/gU3btyAo1ReVSbHceDYdl6AKhhgLBYozGQysHUulxoAnDt3DufOnWM5WKIqxSkqRCEJdri8myTHcaBRWjbysDsHSinMzMxgcXFxz3OJt7upjsfjSCQSOHKkPHkPSuHt82BgKZ1O55VX3EkpT1O11lBewGqHZWmtEQ1x+71gyMjIiN9Z2u8Nl3ejNz09jcXFxXI0s6R1jo2NYW1tbddPs93jofzjkUqnYdluMt9Dhw6hp6dnT8ENx3Hw5c2bfmf0IMscFip3O7wpK59+9hkuX7685zapQFlRyqeUwnvvvYfPP/8cq6urZZ+eYEjjwJNWaqXh2O7xn5+fx7vvvouPPvqopgJe6XQa16/f2HS9u5V97LIEFr1g9Ndff41kMlkT+8ZLGuy+j4pNwZ/gV+HPvfffMGMB3mf3f/u//huuXr2KZDKJdCqFVCrlJwz1XuMHOwLTwraaPquhEc9W3hJC4OzZs/jOG28gkUgwuEFUpTiCgyhETuBmX2bzMXg/O+h2TU9PY2FhYV/DyIPTazzeHOVYLIbjx49X7AbAG01SOGJjNyMBpJBIZ3YO9njr0YEg1g5/sWOVj/1qaGjAyMgIRkdH9zQap5C3H2/fvo3m5ubsiJJwuEPCl7CwsLhlad2t+KN1IJBKJd3pPXArcMTiMQxmA2y7PQ9t28YX16/jq6++8vfFQfPykng5LpwynkvetZJKpfD17dtwlMLpU6d2/YTSq35COVq7yWg/+ugjjI6O+mUpyzGlLG89B7znveCK9z7nOA5SqRTef/99WJaFp556at8lmsPkXQP37t3D2NhY3ue0d+1ZVnmOmfe5dOfOHczOzu591FQFBfNP+Z+z2s3/Ig3DHc8hAOUo2JYFaUjEotFA4DkF5eQSepfz3kBrjVQqhV/+z1/ixo0bJQX7d/qcCY4ETTQ0wLJtPPjgg7h48SKi0SiDG0RVjAEOohB4H3zBDq33VPygO0pecGMum0tgvwqTbhqGgYaGBgwODvpBhzBvBAoDG3sNIkgpdzXSw9t33vZv9Tfe9kciZuiBrUOHDmFubm7XlXC24jgONjY2MDk5iYGBgVCOo3fcJicnsbKysuvghpcQ1rat7BQwwHZsxONx9Hb3oKOjY9ft3tjYwLUvvsDo6GhVPlkVQkAaBpwyv5d425pOpzE6OgrHcfDgmTOhlpK9H6yvr+Pjjz/GnTt3/KfImX3kcChGKQWpZIkB1/Lzr0Ur/zPOC3R88MEHSKVSeOaZZyqe16dUXhDjk08ubfqdYRgllU8vVXA6z+XLn1dt5Rnv/dm2bRiGhCHdboMG4GgNO2PBkTZMw4SQ2Smhjvt6lVZIJVP+dhmGAXuLsun7lUql8M477+DjTz7eFCQvx3u44zgYOXYMf/H66+js6Nj38ogoXJyiQlRmxYIbAA586DDg3gTPzs5iPlshoyydt+zTZMDdxng8jv7+fsTj8eyvy3PDFkwe6U1F8W7mbdv2v/aTqM9RuwuO+AlBvadX27xOKxX6VJ1IJIKBgQFEA0/N9suyLMzNzfmZ6MvJu/FdXFzE1NRUyeekEAJCCkAgOxXFyo3WQe48OTp8FNFodFftSSaT+Pzzz3Hnzp3cSJ0qC3J4bQqrM6S1Rjqdxti9e/j0s89qanpBtfCOkWVZ+PDDD3H79m1YlgUhpTslMIT96SYnLr3KU7l5yWWDgufq5cuX8fvf/35TZZJqMjY2hvHx8bzPby+AvZ/EosV4wYNr165hfn6+6oIbQDbo47ifc+lUGhsbG1hfX8f6+rpfAtq2bKTTaaSSKaRTaT/AEBwB4S+vzHk7vGP07rvv4t133sX62vqmANt+SSnR2dGJH/zwB+jv79/38ogofAff4yKqI4Zh5CUVDaqG+fuLi4vlDW4AcGwbyp9fKzA4OIjGxsZQbtaCI0K85IjeqJj9PLX0lruXZXhPKGX22G+7HgGYISZb1Vqjra0NLS0tZZsn7jgOFhYWMDMzU/bz19tfX355s+Qno8EqQ16ljrx2abeyzJEjR9DZ2bmr9njTUu6Nj7uLqtJOmFfiMKygqXctpFMpTE1N4Y/vv3/g0+pqkVIKv/71rzE+Pg7LsmAYBpIbG6GPsAieF4W5EbbKM7Af3tN5y9o6EOYFOm7cuOFPWTno0YyFtNb45JNLm6ZcRqPR0IJ83sjODz/8k//vauK9F0ghEIvG/Ol+wSmgwWkrlSaEwLvvvotf/+rXWF1dzQus7LU9wW0yDANt7W34+7//X9B/uL/qjg8RFccAB1GZaK39xHGFT329wMdBPaHx2jY5OZmXVKtcpHDLwY6MjKCpqansc2uDNy1SSn/++m4rbRSTG3GztyCJn5QUpcz3La2DsZ8bs2g0it7eXjQ3N5ftOEgpMTs7i1QqVZblBY2OjmJjY6Ok3BtecMOyLaRSqU3Hy8tPYRgGTp0+VXIbvHNs9O5djN654/+sWgUT5IXJG8mxuLiIL65fr+p9Um0cx8Gf/vQnzM3NIZPJ+O9bYe5DpRQEcqPbgFzwwftZcIRH4b/3+35hZbYf4eBdZ1euXMGVK1fK8v5dLlprTE9P4969e5uCGY7jlCWv0VZs28a1a9ewtLQU2jr2Q8MdvZJMJWFZFiKRCBoaGvLy81R6eo0XGPr444/x3/+f/+4nSi9HcMP7eyklWlpa8Pbbb6O1tdX/fCGi6sccHERlVixxnD/UvcJt8W46VldXMXb3LhBCskQpJaLRKLp7etDe3l7WG9ZgElPviZHjOGW/MdYacBx7TzdH3t/Ytg3TNHdom4ZpGlCB7ShcXzmehnV2dmJmZgapVKosTx6VUkgmkxgdHcWJEyfKNnJgbW0Nd++OlRSsklJCQyOdSW95DiulEI1E8PAjDyMajZZ80y2EwPjEBL788suSqxyVU7DKgPfvQoXDrk3T9HPOhM227Zop83nQvPeoGzdu4Pbt23kVqsIYBeCdO14ZbiEEmhub0djU6L83RyNRGKYBaMBRbmc9k864SUDTKaysrPjvR975tJt2+vmL9M7XjddJ/OCDD9DS0oLjx4/vbcPLTCmFGzdu5AUyvITZGxsboa3Xu+4ty8IXX3yBp556quo60VLk8kx5gVUvOBaLxfyHOt77Udjt99px5coV/OIXv9j0Pr+Xa6zw74UQaGxsxKuvvYpjx44BqI5pxkRUGgY4iMooFosVnV/s/VsfQMdpZWUF09PTSGcy+UOUvTbt44ZbCIFEIoHOri50ZBNvlfvmpljy0P202RtNE5zq4g0fL0cgQMAtJ7hTZ327QIbW2u9Q7mV/GoaBo0ePYmVltSwjXbxjsLCwgLm5OfT09Ox5WR7HcXD37l0kk8kdO+mmacLx7MRrAAAgAElEQVSyrZKegPf29eHQoUMASt93s7Oz+OzTT2FVMAlwMJgRfJLuPe0PBsu8TkMw70xhfoCw2iiEwMixYzg2PBzKOuqJdxwmJydx+fJlv2Psjd4o57nlnT+macKyLHR2dqKvrw/d3d1obW1FIpFANBpFJBJxR3AY2WTMyj2fbNvNm5BMJbG8vIz5+XmMj49jeXnZn/ZXcj4cIZBOpUs+Dx3HQTKZxB/+8AfE43EMDAzsa1/sl9Yay8vLuHdvPO89xjAMZDKZigQRLSuDr766hdOnT6O1tbVqghze+05h8Mp76GDbtlshTrrT5iKRyK7On93ylnnr1i386y//FctLy0V/v5/le/v+pZdfwmOPPRZqBTEiCgevWqIy2u7D9SBuWDY2NjA7O4v19XW3bVoD2acQ/tOI7BO1vdx8JxIJtLS2or29PZTt+//Ze9PmOI40z/PvHhF5IJEAEon7IgCSICleVRJF3SqpShIldVWpq1/11E5Pm82+mH05+yX6I+x0m+3s2MxYm1V3Ve30alulVm3VVEuiWCVSlMRDvECAB+47AeQRt++LSA9EJjKBPCIPkP4zg4mAMiM8PDw8/Hn8ef5Ppe3aC+9ihR/fr9BTHtYqZY3QgsdkDIFAAKpmgLFCn2HZiBKrquoVra2t6O/vx9TUfUiS5PZjpQtA27ahqiru37+Pjo6OssQ7C7G5uYn19Y09jQe+uNZ0bd/qOJRSRCIRjI4ecnezSyGVSuH6tetIJVOQs8Yg76taODv4/eb9Z9s22qJRxONxtLW3IxgIIBAI7DjiANiW5ZYWTafTWN/YcMPZZVlGOp32xfmX305JkjA+NoZTp06JRX4J8Pnkq6++QiaTyTGW/Ize8Do3enp6cOrUKVdcmI8bm9muoKM7xxAA1PleIBhAOBxGjMQw0D8A0zShqioWlxZx/fp1rGSrbO373BEKyyy/chV3mH722Wf48Y9/jLa2tor6wi/m5+extLTkXgfXZfK7lG8hnAhPx9H6+PFjnDlzpubnLBXHuW2BIDumikSXcScsj3oJBAKuI82veZTfm42NDfzyH3+JtbU1X47rPT5/57z3/nt47bXXROSaQHBAESsWgaCGMDj6FN7Q33qhaRoWFxeRSqV2wo7hRJFQSt2dl/ywy1J2hAkhCAaDTinO3t66OG+qNQ4URUEsFsORI0eemlDTkZFhrKysIJlMglIp63SpvC95qtXc3BxGR0cruu/caJifn9+zmgKVnJKvPCWllDbH43HEYrGS22KaJqbuTyGZTDrPqGmCAJAUGfA8B34YpnzxH8g6MDo6OtDf14euri60tLSUfTzLspBIJLCwuIiFhQWoquoa1X4YFLIsY3BgACdPnhTOjRLg/X7x4kU35QNwogCSyaRv56GUQlEURKNRPPvsszh8+HDB+0PJ3nMcQbYSURZZlhGNRhGNRnH0yFHcv38fV7++ikQiAV3XCz4DhDiVjCpx3nBjcmVlBTdu3MALL7zgOmfqCWMMuq5jamo65zoJIb6V2y4F23Z0siYn7+PIkSMIh8PNEcXBGGzGoAQU6NruCjn5aXW8P3kUInfkckdRNYm6jDGsrq7iP/0f/wmbm5u+VEvJ1xAJBoN4+ZWX8c477zSNPoxAICgfsWoRCGqMV+ytXi9MVVUxPz/vip7m493N5ykMEqXu0sO7rMpvMyEEsiwj3NKC4ZGRui3Cqu0/nk7TFIvGOkEpxdDQIO7dm4RhGNk0CApCKq8Yo2kaVldX0dnZifb29rKPQQjB2to6lpdXijouCHVKExrm/mH93HHQ3t6OQ4cOlWWMryyvYH5+PtdAIwSGbkCSnEgcALCzxmslY9Dr2IjFYujp7kZfXx9aW1uLOtr20w7hmgvxeBydnZ2YOHoUq2trmJ+bQyKRwNr6uvu5Sp4ZWZbR3d2NEydOuOWeBfszPT2N+/fvu7vZsiwjk8n4Kobc3t6O8fFxnDp1yteoh3xD7/Dhw+jr78P169cxeW8SqUyqcKQGqzzSiTHmak/09/djrAFpUIQQrK+v42FWXBhw5p9GbEoQQjAzM4OVlVWMjAzX9dxFya4NZFmGZZqwrNx77XUI5X6NuKXbecod16mqBMYYFhcX8atf/gqbm5s596Za5wYAV0/k+eefx49+9KO6i6YKBAJ/EQ4OgaCGEGSNDNuum/6GpmlYWFjI2UUshneH2sq2z9XpcH4B84h68v8XiUQwMDBwoBYAzaTYXy8IIYjH44jH17G4uOgYXgCoJIFSCU46THlGsG3bSKfTWF1dRWtra1npINyhNj09DcPYXXGBjy/LtsqqOCHLMnq6uxHr6Ci5HZZlYXp6Gum8sp38nJZlA5bt6BcQAipJAClcAroYPFy7va0Nw8PD6OnpQTQa3XfxvN9zla/fEggEMNDfj57ubqyvr+PxzAwWFhaQyWTKzoVXFAWRSAQnTpxAR4n9+bTDNRwmJydzdI780m/g+izxeBzPPvtsTYU5vWOvNdKKc8+dQ093D77+5musrq7mjH/uBKgmYsi2bSQSCVy7dg0jIyN1jeLgz+GNGzfdqkyOs1+CYRp1d3DYto3t7W1MTU3h0KGRpjGyCSGwLQuKosCytJy/50e5FUth4dpClfbpxsYGfvvb32JmZsaXCDVvO3layvHjx/HmD99ENBqt+vgCgaCxPB1x2gJBg+AvUSpJIHVIizAMA/Pz80gkEmUvJLihyzUprKxhlF9ysCUSQW9fHxRFaYrFVyU8TY6OYDDoRgwAcCu48JDh/FKRpWBZFhYWFsoOvSeE4OHDh0in07scBa7IpqEXDYkvdDxJkhAMBnH06NGSUo+40TAzM4P19fV9F8tuSVbTAmwGOVtycz8HBY/aGBsbw7lz5zA+Pu7eA7+eG34ejiRJ6O7uxtmzZ3Hu3DnEYjEEAoGSzydJEiRJwvPnzqG7q+upek6qwbZt3Lt3D8vLyzlaBH4YyHyM9/f3480338T4+Piu+14LvFox4+PjePfddzE0NOQ+Y3ze8KP0LWMMMzMzuHv3bl0d0YQQJBIJ3Lx5050HuHN/v5K3tcK2bdy4cR2apjXN+5U7hHkE4H6fLZbORAhBJRkqhmHgo48+wq3vbu0S6/VjrFBK0d/fj59+8FNXLF0gEBxshINDIKgh/GVfzq5vpeexLAuLi4tIJBK+LDjd6iW2DZsxSLLs7BQPDKClpaVpFl+C/YnHO9Ha2ppTmcOJprBgmhYA4u5ilQIfG7Ozs2WNtc3NLTx48BCapuXs+EmSBJvZrphoqXBnxTPPPFOy6CkhBKqq4rub3xWMIil2Hv6MWaYFiVIoslzQ0eF1ujz77LM4c/o0Wltb62aUEkKgyDL6envx5htvYGhoCMFgcN/z83a/+MIL6Orqqkt7nwQYY9jY2MD8/HzOPO+HfgMP7e/s7MQ777yD7u7usiKm/IIQgrZoG9760VsYGx1zoyws0/LFicNTVS5evFhXw54xhuvXr+fMRYGAgnRWy6beOPOME8XxzTffun9rNAw7a4xAUCmpTXzOrFbHyDRN/PrXv8a333zrOr7zI9jKxetEkyQJHR0d+A//238Qzg2B4AlCODgEghriGm81KpkG7CwklpaWsO7Jvffz2IwxhEIhDA4NIRKJ+HJsQf2glGJsbHTXbj53VDgaFI7wYCnRHNwgWVpawtLSUkltME0Tjx8/zjGc+blMy4Su62WHHkuShN6eHvT19pb8HcYYpu5PuddezrPCv2PoBkzDhESc8ojc4OMpKV1dXXjl5ZcxODDQUANFlmWcf/55nDlzBpFIpKjTgovrnT51Cr29vU1hVB0UGGN49OgR1tbWYGcFnAFA1/V9vrk3/F719/fjxz/+cUVCtH7Bx0xLSwtefPFFjI2OgVJa9TV6sW0bmUwG33zzTd3GXyKRwN27d11HJ7+mepWKLoxjfF+5csXVb2k0BDuaGjyCrR6kUin88z//My5/ebmgkG25Tljv5/m/u7q78G//6t+6aSnN0N8CgaB6hINDIKgxtdbeYIxhYWHBXWD7vTiUJAktLS3o7+9veCk/QeW0trZicHCw4AKOa2OYtu04OkqI5uDpSzMzM8hkMvt8FlhbW8f6+rob0s7LMJaTkuKFUopwOIyRkZGyIk+2t7exuLhYtXFm27YTLm1ZIAxQJBkEBD09PTh75gw6OzsbGgXhPe/o6CieffZZdHR07IoA4M6No0eOYHR0tOx0paeddDqN6elpADsObU3T9vnW3vAd5r6+PrzyyituuehmuC+dnZ04f/68m27lJ6ZpYnJyEpubmzV3cjDGcPfuPSSTKQA7Bq+m+ee0qbRdlmW7zpdmcjbyCimKUloURzWk02l8+umnuHL5CiRJcqMPC1HpcxGLxfD+++9jZGSkquMIBILmQzg4BIIawRdMdtaY8xu+wFheXsbm5qZbb97PhYckSW4pWCG8dfAZGRlGe3t7USV7O6vNYZoWGENOZEIhLMtCJpPB3Nxc0XHnRHvoWFxchKqqOSkpulGZCCN3wAz097vpFCV9DwRLi0sViW8Ww7ZtJz+dUPT29OB7Z8823bNCCUF/Xx+ee/ZZBINB9/5znZCR4WFMTEyUnOYj2GF6etotxS1J0i7R2kqJx+M4d+5cwx1lhejq6sKFdy4gFAr5JgrKIwW3t7fx6NGjml4vYwzJZBIPHjxwIza4KGyzOBQsy8KNGzegqmrTtIk73ijNjYTwE+5sv/TFJXz6r58imUzCMAzXEVusEppX3LdY2720tLTg3ffedctgN9PzJRAIqkc4OASCWlLDlyYhBBsbG0gkEq4CvN/HDwaDiMVioprCEwAvLToyMryvOj9fZBqGuacBw1NVNjc3kUgkCn6GEKcsLC/HSimFaZnQNK2qMdve3o6BgQFIZZQdTGfSWFtbq3qH3QshTjlQJaDghRdfcHfbmwnuEIrH4/jB66+7YqKBQACdnZ147rnnmsK54c2tJ4RUokdYVyzLwu3bt3fGdYEw+nLh5SonJibKik6qJ4wx9PT04PXXX/dVX4oxhlQq5UaF1cqwJ4Rgfn7BTel0ng9SldNzPwO7HPj4TyQ2MT8/X/Xx/MJN6wMgK4r7dz+dA4QQ3L59Gx9//LE7T/MqLKqqQtd1hEIhhMNhyLJcUNR0P0eHLMu48O4FvPDCC1A81yEQCJ4cmu/NKRA8ITDmlIettoxeMba3t7GyslKTHR5KKRRFQWtrK3p6enw9dqOotdBrs8MXfB0dHejr6ytZrFDTDDAGUFo8mmNrawtLS0tuZRaOE9Js4OHDB5CzopyqppYs7lnsOmRZRndXF2KxGMpZWm8mNrGZ2Kz43MXaEwwGcf6F8zmREc1Ke3s7XnzxRXR0dKC3txcvnD/f6Ca5UEpBJQmyokDVNEiS1NTP7OzsLNLptPt7tRVF+PPV3d2NM2fONO218538o0eP4nvf+15ZlXpKOfbqyioSG4UdptXCGIOmaZiensLW1parm6Lr1ZWFlSQJ8XjcN4OZMYZEIoGpqWlfHGd+4EalWo7Qsp/zHBcxvXnzJv77f/vvu8oR83PxqEFVVd00xUAg4Fb18faT1+nEnUYtLS14++238cYbb/jWdoFA0HwIB4dAUCP4rmktjJ2trS0sLi76Fg7thbe5vb0d/f39TW2slQMv9/m0EwwG0dPTjVAoVJKYKMDcihCOPgfN2VXmO2jr6+vY2NjwfM9henoaW1vbMLJaG9U6miRJQjgcxtjYWMnf4Yvn9Y11ZFT/doYJIQiFQpg4NoGOjo6mf1b4Qr+3txfnnnsOZ06fRigUapjxxNOVJEmCJMs51Rp4CdJm7VPLsvDgwQPXsKq2ago3xKLRKF599VVfnQa1gI/906dP+zr2GWPY3NrE/MJ8TcalExmRcAWPKaWghFTsdCXEeWcODw/jz//8Axw5ciQb9VZ9W23bxuPHj7C5udlUY8FxChHA416upn38HXLr1i386le/KslRyPVAVFUFAFenIxAIuJEdXiilCLeE8dJLL+GHP/phxW0VCAQHA+HgEAhqSC2iBrhzI5lM+np8brQyxtDZ2YnBwcGiWg0HDUIIwCAcHFni8Tg6OjrK2m20bdvVm7BtBknaiVbgIcRzc3Pu33j5zJmZx9ANHZquw7KrNwAZYzhx4kTRXOxi3zVNE6urqwVDmqtpT6wzVlS8tRkhhECiFJ2dnYhGo3XTd+DnkbJVGILBIAilYACsrGCrYRhZDRiz6XQn8kkmk0gkEu5zkR+9VAmMMZw+fRpdXV0+tLA+9PT04MiRI745ZLjhOjc7V7NqJvfv38fW1rabtpepIgqSj+lz557D8PAwzp4960tfBAIKJEnCwsICHjx4AKDxJWO95zctC4Fg9Wlt/JjT09P4+DcfYzOxueu+71dy1jAM6LruiD7btqsdxtPuGGOQZRmnT53GG2++IdJSBIKnAOHgEAhqgHch72cOdSqVwuLiIra3t6te/HkjTAghoNlw8Gg0WlYKw0GBSv7ei4OMJEk4dGik7EoiPAfbyoqRypLsjiHLsrC1tYWFhQUAjjNpamoayVSq6tB9fm5ZljEwMFBR+dVMJoON9Q1XUNAPWltbMXpotKRomKcRb4g41/yglMIGkM5kcpwaXP+g0UZcKfCIJV3XQQjxRS9CkiT09fXh2LFjPrWyPkiShGeeeabgrnmlMMbweObxvtWZKsGyLFy7dh2m6egL8bFXCYQ4EW2xWAwnTpwAABw9eiQb0VJZ9KYsSwiFgjAMA+l0Crqu4+uvv66ofbXEtqyqozh42sj29jZ+/atfY2lxKWcTotB84HVyeP/Nnd+WZUFVVWiaBsYYIpEIgsEg+vv78ec/+3O0traKuVogeAoQq32BoAZwQ5D/+HG8TCaD+fl5JJPJio/jOjOyhr5391HXNEQiEQwMDDSF4KBfeIULhYNjh9bWVhw5cgTBYLCi7zslXg3YNnMX86ZpYnp6GsvLK7h2/ToWl5d8ay+lFAFFwXg2NaXcRerS0pI73v0wxCRJQkukBb19vVUf64kiGyHCQ8YppZBkGZquI53JQNU0WFlNgf0cGs3s7FhbW0MymXQrA1UD//7o6CgCgUBTX3chOjs78cwzz/i2M87nkpmZGQD+jAN+jGvXruW8Q6vTsHIcd6+99qqrFyNJEl566UV3g6DUsSHLUrb/CFKplOt8tm0bc3NzuHv3rmvENwuWZSFYRRQHIQRrq2v4L//Xf8Hi4iJMy8x5X5dCoc/xftJ1HalUCoODg/j3/+u/b0oBaIFAUBvEal8gqAHckK5m4et90ZumiYWFhbKcG94ybt5IEr4Dr+s6DNN0F1KRSASDg4OIRCIVt7kZ4SkUtRJ7PagwxjA8POSq0Vey+8Z3zCzLdHfRVFXFt9euYW5uDqYPkRscSZLQPzBQdglW3s6N9Q3fygHyiITx8fEnLtKpGrhhiuwzZxgGdMNwjchSIzS4g7jZDDqOpmnY3NzKVhqqfoxTStHR0YHBwcGa6TbVmlOnTkFRFN/SVCzLwuzsnA8tc3Dnpm+vuY6IatKK+Hs1Fovh+PHj7t8AYGJiAh0d7SU51CmlbiqoYehQ1cIlrC9duuSmbjULlmlCkisvE7y4uIhf/vKXePToUc67uZLnKX9u4W0aGRnBz/7iZ24luGbqP4FAUDuEg0MgqAHlLOYL4Q3tNk0Tjx49wvb29r7H9H6PL5R3Sn7uhIPruu4somwbsiwjFAphZGQEbW1tlV5yU+LtQ26AC3YIBAIYGxvbsxTsfjjGqPNjGCZUTYOqZnxV/qeUoqWlBQP9/WVHF3n1N6qp3uJFlmW0tLSgt1dEb3jh99swDBimCbOIRtB+44IQAtOymtLBsbMznPRlPPHnLhaLIRaLVX28RsAYQzwe91W3iTGG9bU134x6xhimp6exubnpOhCqd045mineqBvGGMLhMM6ePbuPQ51AURRQSmCajhOwWHts28bMzAwePHjQ8Och//yWaeZE7ux3r7jTZ3V1Fb/56De4d++eb9pY3nMTQjA0NISf/PQnGBoaKqltAoHgyUE4OASCGsAzUyuJGOC7V7ruVJ2YmZmBpmlFBUX5brLXseHunmaPwRX+86MYKKUIBAI4dOgQWltbq7ji5iTfuSEWODvsGFYd6O7urrhv+JgzLRMZNQMCuDukfkVLBINB9Pb2Viy+mE6nXePBr3D3oaGhJ0aE1y+KiQBWchw5u8PejM/s1tYWEgl/ypjy8d3T03OgtVwIITh+/Lhvxqpt25ibn8spw1sNpmni7t270HW9au0NAKCUoLMzjqNHj+Q4z/l/jx8/jng8DkpJTkUV531NEQoF93VsADvPkmmauHr1asXtrRWWZUGSSo86WlldQSqVwieffILr16/vGi/VbAp5/93e3o733n/PU9XmYD5XAoGgMsTqTCCoBWSn7nolL2zTNJFMJnHnzp0cI53D6717DQruAOELBn7uYufnzo3+/n60tbU9cREO/Fr44tG2bWxvbyOVSjWlFgcvcVdvFEVBb28PEokEUqlUyePVcRgBICTrgDMBEBBK3TKfkiRVrUPDq34cHh+v+BgbGxv+RgMwiOiNIvgxh1BKoWmar4KwfsDn15mZGWxvbwNA1eOKOwMP8nji96ivrw+RSMSdR6rpF+64X19frzqykDGGhYUFrK2tu1pMpll59I1zuQSjo4fQ0dGx691p2zai0SgOHz6Mr79OwLadcttSVuiaMSCZ3Hbbth98/pydncXs7CyGhoYa+lx4r9eZ3x0BaB7RVOyZsCwLt2/dxt/8zd9ge2vb/Vy5uhv55OtsRSIRvPveuzh9+nRFxxMIBAcf4eAQCHzG69ioZoGXrybuXdAwxmDZNuBxaOTnrO+XysIX1V1dXU1lRPgFr+zB4WkKyWSyqULfeWRJS0sLzpw505A2dHR0oKOjA5qmlRR2z9XznVQE7+7jTti3aZqu5gWPKioXQpww7pMnT1YkEMfbtbm56e7aVmt0ybKMjlgHQuHQE+cUbAb43ORH2VW/4WM5Eom4TmavoQeUZ6Tx78qyjHg87n+D6whPzejp6cGjR498ieSwbRtra2sYHR2tql08zTORSECW5WzVm8rbRQhxHRjBYHDXHMA3D8bGxjA5OYnNzU1QuiN8WenY5pse/f39DY8e80ZFWpYJSkvXIkpuJ3OcG35F1UmShNbWVly4cAEvvfRS1ccUCAQHF+HgEAhqACEElBCwCl7efNHAF8ySJME0DCC7M+51YBSqF1/q8fv7+9Hb29uU0QzV4i0Z5+0TvsBsNiilrmOgEQazLMsYGRnG6urqnmKs3rFpWkbByCKJUjBZhmmabilG/ne7TKefJEno6elBf39/RdfF+zKT9rfcZDQabbiB8STDd2KbzXnE59x0Og2GnflFkiQ3DJ4LGpdquHHnRqXVjJoJSZLQ3t7uW5oKpdTp62w/VjIeCCHY3NzCw4ePAACWZVYtLgo4lWNGRkb2/Nzg0CAGBwextbUJwzCqErrm1c4ePnyIRCKBeDzeFM8HAwCPs8N7r/ZKu/E7ZZRSinA4jDfefAMvvfyScD4LBE85YoUmEPiMd5Fbznfy/821DLj+hiRJvi0ce3t7MTAw8EQ6N4Cd6I1Ci0m/+tAv8kVhG0VraysGBwcwOzsHXdd3LU557riuG9CN3f/f88Gc73AjkFfyKeSYK4QkSQgGgzhy5EhV49SyLPcZqha+GxwOhRt+v55U/JznaoFt28hkMs6YlAFDN1yDmUf4BAIB9x3gdUjnjxf++c7OzgM/lnjkTXt7e8URW4Xg6WWVwPt8ZuYx5ufnQSlFJlOds9O5ZwqOHZtAS0vLnm2LtrZiZGQYk5P33JSramCMYW5uDnNzc00Y8cOgKErBDYRKhIbLRZZlfO9738NLL70k9LYEAoEQGRUI/MQ1Vkt8wfLPez/LS7eqmgbdMNxFkR+L/vxF6JMK131oljSUUmlkewkhGBsbQyAQ2CXKxo35dCazp3OD7zLyvuef8xp73pLF+zE4MIBoa2vF/cIrJfCqQdXCn5+WlpYn+vlpJHwMNeuzyxhDJpPJ0ZnxVs3SdR2qqsLOVqiSZbnomOfOvielehWlFK2trb5WUslkMlVFXNi2jVu3bkNRlGyUXPVtkmWKkydP7vtZQgiOHj0KWZZ90ZPh4+XWrVtN8YwwxsCvyElJlHL6t15OBkIIQqEQBgYGEAwGxdwsEAiEg0Mg8BP+Qrf2MK69FU94GgUv3aqqKkyPorpfVR+8cME1VVV9PW6zwBc3fu0gPk1IkoTx8XFXO2Mnx9pCRs2U7DQqJJbKxzpf6O8VAUEIQVtbGwayZSerqfDCKwr55eCglB7oahfNTH6YezNi2zZ0Q88KVZqQFRmS5OgPeOdtwzByIod4Gku+89AwDEQikfpfSI0IBoO+pNtwY56XNq8EQggePXqEhYWFqo7jhVKKc+eeRzQaLenzsVgMZ8+ehaIovswZlmVhamoKKysrTTcHWZaFQFDZ/4M+wxjD9vY2rnx1BctLy+LdLxAIhINDIPATbgDxf3t/+N95uVa+s8y1CryL+lq9oLmRmUql8Pjx46YOBa8E3tfVlgB8monHOxGLxVxDUzd0aLpWsnNjL6ccT/HgGgWFdtoI2SkL2+7Dzra33X4YzrIsg0ri1VkruHO42Yw3DmMMhm64/7Ysq6gTjo930zRznGySJLlRDowxhEKh+l1AjVEUxRdjns8/XLuikmfXsixcunTJjeirrpoTIElOhMr588+7bSyF5557zjeNFR4ldPnyZV+O5yemaSKg1N/BwZmbncPFixfFu18gEAgHh0DgLyTHoOK5yLZtQ9M0x6GR3UniizbvT72wLAvpdBpLS0t1O2c9qET/RJCLoijo6+sFlSg0Xa0oFNo0zT0X/3xnltl2jjHEHVSKLGN8bMzdGa8G27Z9OQ5HkiRIZVQMEJQGT+Owm/jZzS9nyR0cINhzjCOvQTIAACAASURBVPFoBO7o8OoqhcNhKA00Cv2GR6n4QSGh6HK+Ozs7i8XFJRDilLKu7h3rzE3PPHOi5OgNTmdnJ06dOlVxv3jnx2AwCFmScevWraZ4f+f3qWmaORF89XJUcmfYlStX8NWVrwq2TSAQPD0IB4dA4CPe2vamaUJVVei67obm8/KujX7xMsagqio2NjawsbHR0Lb4jaZpTbv7exBgjKGzsxPxzk4QUv4rgutUlGK0WVnnnzdnPxAI4MSJEwiFQv48Jwy+5mQTQgAxvHyH3+tmdk66mjIsd4fYsixQqTRtGe918gi+J00zwM/5t1ItJcYYbt686URKalrV7XBKeUdw/Pjxir777LPP5qT+7QdP4eMlZ2VZRjgUhqE7DjJN1XD1q6tNFa3A1z1SnSPcvOVmNU3DL3/1S8zOzop1gEDwFPNkvVUFgobj7Ezn5/w346Ldtm1sbW1haWkJmg8LwEZDCIFtOX3eaAfSQYY7KA4dOoRoNFq28VVO3/MFsWEYbth+R0cHBgcH3bZUC4P/GjZifPmLV3vjIPStd0cd2EkprERc0zAM/xrWJPh5DyupVsQYw/LyMubm5iFRCt2ja1VNO8bHx9DV1VX2sRhjiMfjGB8f31Njhs+9lFIoiuKK1FqmBVM3kEql3OhPXdcxOTmJjY2Nhj8z+WV87WxkHqeeYqMAYFs2Pvrnj7C1tdXwvhEIBI1BODgEAp9gjEFRAmDMBsByXvrNupNACEEqlcLq6mqjm1IVTv8SGGb1C1mB05/t7e3o7+uryGjjaVmljHsevm/bNoLBII4eOVJJk4tCKfXNwVhqiVtBeXDD7kAY+6RwRBCvqlLq8+Kdp/wQv2wWqtW68FKoyth+8Gf04cOH2N7eRkatviwspQShUBDj44f3LQ1b7BjBYBDHjh1DMBjcdU2yLLtRb5RQEDjOekM3oGacKFC7gPNve3sbk5OTTffOs20blNZ3zePtA8YYpqan8Plnnz8RmzcCgaB8hINDIPARvrjzam/k7/Y1E7ZtQ9d1LC0tYXNzs9HNqQICxhqf+vMkQQjB+Pg4WiOR8pwcjLnRGKWOeb6rOdDfj46ODl+fFa7L4texLMtyI4UE/sDvUbM7j5yymGRX1RT+b9MyoQSUkqOeeATTk2SE8YgsPyCEuGV2y5kTkskkHjx4CFVVYVX5rCqKDEVR0N7ejuHhoarmpkOHDqG3txeAo1WiyDKCwaCj6cMAQ3eEx0spbc1L6E7dn8LW1lbDn518kXRCSi8HXou26JqOL7/8Eg+mH4h1gUDwFCIcHAKBj3hDrJ1FO3MXe80aycFV2e/du3eAF9qVi9EJiqMoCiYmJspbPPMQ7DLuBSEE8Xgcg0NDFUWM7AUXr+TnqQa3dKV5ACINDhgHIXqDz+GyIhdMfeJCouWIhsqyjEwmc2DSc/aDp2j6cS2EEAQCgbLEOQkhWFlZcUvDVookSQgGg64g8uHDh9HZ2VnxHEIpRTwex+HDh51KM7IMy7KRSatQVXVXtZhS+292dhaLC4tNoeOS22YGRZHrGsma72RJJpP47W9/e8A3bwQCQSU0fkYUCJ4gvLnklJJsugrcyh48FLvZcNpLMTs7e+DCpXl/N6POyUGH544PDw+X5XiwbdsVEN0Pvkvb3d2N9rY2XxfBzBNN4pcBYJomMplMw3dMnxS4kKJfRnGtIZQgFAyB2YXbats2GFhJzwshBIqiYHNzs2kd4OXAGEM6nfbNWUUpRSgUKsthxBjDrVu3kUqlKjrnznxBkMmkkclkEAqFcOrUKV90PI4eOYpgIIh0OpN911bu2LJtG5ubm7h1+5YPVWL8hesqoc5jmjsKebTdwwcP8dE/f9R0/SMQCGqLcHAIBDWCL9yBndQVXk3Fu6vcDHD18c3NTSwvLx+YhQAhBJT4p7EgyIU7Hwb6+8vKPeeOhVKceZRStLW1YXR01Pdngrc/EAiAUlr1uOYLZzWjHphnpNmhlB6YSiJ8vmkJtxS9/zzKR5Klkq7Jtm0kEgm/m9oQLMvC5uamb/MxIQThcBhA6RENa2trmJ6eLqu8NQEgZYU9AQbD0N2oGlmWMTExge7u7gqvIpf+gX4MDw9DkiRfIsoA4N69e0hsJOriICvHEWfbNgKBxpVAZozBZjauXr2KL774omHtEAgE9af5VxQCwQGlkEAad3LwaI5m27XTdR2rq6vIZKoTZqsXhBDYzC5vMevp92b48e44NSM8faQrHi9LV6PUFBVCCMZGR9GSNWT8RpIk18FRbR/zCKx0Jl1x+UpBLoSQsp7fRsIddy0tLXs+s3xslPK8GIaBlZWVAxc5lw9/t21vb/viTASc/o5Go2V959q1a9ja2ir58zzliEoUhqG7pXs5sizj5Zdf9mX+AJy0v/Pnz/s2f9i2jVQyhe+++w6A/xXECCEFozBK6QvTNBEIBHLaVM/3HH+/2raNS19cakpBVoFAUBv8TXYWCAQAdnZ6C73LuUFrGAYURSk757aW8HbNzc3h6NGjjW7OnnAHgWEY7kKmFMoy0uuAU31Hga7rjW5KUWRZxvDwMJbLMMTMbLTSXgQCAXR2duLQoUN+NLMoPPrEjwgOy7KwmdgsW2tBsBsuLtoMc18p8HkjEonsW53HNE0EA8E9n2t+3alUCslkEu3t7U01N5UDj8RZX1/37Zi2bSMej5fcJ4lEAt9+e63k9DHu/NR1DaqagRPLsQM3jk3TzAqWWu7fZVkuO02Nf8+0TF9T3EzTxJdffomXX3kZoVDIt+MCAJjzw4XTvRSaU72OP8YYLNNEMLjzHNT7WedzzMrKCn73//0OPT09aGtrOxARYwKBoHKEg0MgqBG2bUOSJNh28RxbwzDcdBXvbn4pcAPfz4UST1XZ2NjA7OwsBgcHm3bBzXNsSxUX5fnuXV1dTXdNtm1XJWBXD2KxGAb6+/Hw0aOS9BLkbIqKaZoFDUE+7p85caJWTXbb2Nbe5lY0qnaBbVkWtra2sLW15YbPC8qHwUkLOEgODk4kEkEkEkEymdxz/jVMA+GW8L4pTZZlYXFxER0dHbVobt3Y2NjA2tqab9EoXAOoFGzbxo0bN5BOp0HI3gFkkkRBqQTGbCST29l7s9u5wR3of/u3f+uWd5Wo5DpzKo08UlXVl7nISzqdxtdXv8bLr7zs2zEBgIFl7yeBLCuwrNxr9jozCmGaJmRZyfl8/me9x+Cpvd7nqpx+yn+HetMl79y9g0uXLuHtt99uuuhZgUDgL8LBIRDUCP7y9KYieOG/8xc5f7GXkr/MQ+WDwSA0TfO9goht21haWkI4HC55gdkIyrluRVHQ29vbtJEpB2GxNTY2hoePHpW0OM/GJRU1AAkh6OvrQzQarVmKDj9mLBbzJQ1iR0CYYmF+wS35KCgf6gkfP2gOjlA4hEgksq+QJd/9d6IE9KLXqes6FhcXceTIEd+rCNUD/vxOT0/7WpI5Eomgvb29pM9vbCRw586d7Hgq/BmJUlBJArNt6JoKa4+xxzcdJElyIht1w03DAaqLRKjFeLdtG9988w3Ofu8sIpGIr8cmlLibMYFAoKjTmuOdz537YTuRK1nHl/f94Z33KaUIh8Po6OjA/Pz8zvlLdAYVeodIsqMDlUqnYFkWPv30U4yOjuKZZ55p6tRQgUBQHSJGSyCoEfyFvF8oKw975z9cfGyvF68syxgYGMDY2BhaWlp8D7fkC/Pl5eWK1ehriTd6oxy48dBo3Y1CPweBQCCAQCBQUnsdYd3CEUk88kiSShNirJZIJIJgMFhxHr3XWSlJEizbxuzcLFRV9bupTx0HUSA4FAy5JUT3w7IsgKCo4C6f/9fW1rC1tXXgnD2A81yoqop79+75YjQS4ogD9/f3l5wGNj09hY2NBApVJXGi95xKSpqmQtM1mHnOcT4PK4riVG6RFVBCYRomDM1wy99ywXBvamm5P37Dj7uxseHeg1pgWRY0TYck7a5KVeye83f1XnMvYwyUOBVzPvjgA/zlX/4lDh8+DEpoznH2Iv//83tpmiZSqRRM00kLWl9fxy9+8QskEvURZRUIBI1BODgEghriLDRYSYrpfDeT75QU+3woFEJ/fz+GhobQ1taGkZERBAIB39tuWRY2NjYwNzfXFAJ4+Yu2SnZ+m0nv5CBS7gK9mDOk3v2vKAo64505mjd74d1d5E4NmjVQM6qKTCYDVdUwNzdXM6PlaeGgldslhLi7zKVWwrAsC7Ii7+nkWFlZwdra2oEzuvj4n56eRiqV8iUihzt9hoeH9929t20b29vbmJqazpZvzv2sE+noRB1k1EzBqD9FURAIBNASDsO2LOiaU0VF0zTHMGaFS14303Nv2zbS6TRu37oNVa1NlScewaKqKiRp93j2jt38eZFSAkpJzmf55ymlIJTg7bffxvPnn8fwyDAuvHsB8a54SQ7wQmkpiqIgo2aQTqd3RYssLy/jF7/4RZlXLxAIDhLCwSEQ1BjGUHLYMV8U8HBmbzlZQgiCwSDi8TiGhobc77S1taG3txfhcNj33XBKKZLJJBKJRMMXc97FEHcGCZoXxhhYE6Qf8PPH4/GSxgzfPSbcyUgINN0xeNKZjGvAaZqG+/enYJrmgTNKGw2l1NVnOYhIkoR4Z9zVZdgPbhgSWnwH2zAMTE9PQ9O0hj8z5UCIUwXn+vXrvqVK8vHB33N79TGlFCsrK5ifnwf/mOOUpAgEFEiS8w7jukGUUkiUQpZlKIqClpYWZ2NBN7C9nYRh7J1+0cwQQrC8vIylxaWajCGvVoaqqqBUgqIoOffH67jwfp5rYbiqpfCKsROcO3cOL7z4Aihx5t3Dhw/jhRdfgKzIOccrdK78SJxgKIhUOgVd1wuuiWzbxu3bt/H73//+wM5BAoFgb4SDQyCoIc4LHNmf8owgy1OFglLq7EJ3dmJgYGDXOfr7+9He3u5bKTsOjyhZWFhAOp327biVwBdD3LkhHBzNj2Gavo/JcuHn7u7q3jMlyE2XIYCVHfeqpiGdTruh6d5dSb5z/PjxzIEySJsB/uweVEOSMYbu7u5dJTD3wrYdHYJizm7GGB4/fozV1dUD5TBjjOH+/Smsra1nn3XHOaEojnNhPwpdKyEEPT09iMVi+57bsixMTk5ie3sbtr0jKEkIga7rSKVS7kZBQAlknScywADTMJFKpmDoRo6he1CfZ14t5P7U/ZpEluUfT1VV2Hbhcsj5v5tumgoFF3Tlnzl9+jTee+89RCIREEpcJ/OLL7yIk8+cLDpG8n+XZAkMDJtbmzAMo2jbGWNIp9P4wx/+4KtujEAgaB6Eg0MgqDE8TaXc6Aq+eOPiiNFotGBOMjfYBgYGEI1GfY/isCwL6XQaDx48aIhBUiifWuy6HAy4KF2jdUYYY2htbXXTCrzRUdyxYVkWdMOApulQVRWGYewpKMgjrWZmZpBKpQ6sUVRvXB0Tn4WR6wkhBLFYDG1tbUXTTvLhURr5O94c27ahaRouX758YBw/jDFsbydx584dpNNpmCZ3ypNslRJnDgiFwm4apSzvpDbk7/R7jzs0NORG6xWDEIJkMonbt++AUkdnw3k/6DB0J2KDa1RR4lQ+MXQDmqZB1/UDPQaLYds2bt+6jVQqVZc5l6fx7OW4y/4DQK4WDaUUp0+fxs/+4mfoiHXsam+0LYqf/PQn6Ovry1nXFHRuSBIMw0A6nYZtFXZY5N/rtbU1/Ou//quYvwWCJxDh4BAIaozz4nQMvHKdD27+P6UYHR3ds8Z9KBRCX18fWltbayI6ahgGZmZmfD1uOfBIAOHcOBgQkq3V2CS6J5IsobOzE7ZtO44NWQYDg27oSGcyUDUNZjY8vdS2WpaF+fl5N4qj0ddYKqlUCtvb2w07Py+zeZAiFfKRZRmHRg6VrMPBMS0TwWCw4P+zLAtLS0v45ptvADT+mdkLHkk3PT2F6WknVYs7DXSdOwlNGIbpatZYliMsHFAC7i59JBJxIwC4wzESiWBkZKSkvr1+/bobpaHrOnRdgywrkBUnSiOVTEFTHYcG3yx4UnfsueN2ZmYG9+7dc//m9zm8OO9kC4ZhItzSsuvz3vtnGAaCoaCbrnL06FH8m5//G8RisaJaTfF4HD//+c9dR3mh84dCISRTSWQymV3nzG+zV4fLNE188803uHTp0r5aLwKB4GAhHBwCQR3gqSrlwHe9A4EAzp49W3RR7CUWi6Gjo6PkShelwnNut7a2sLq6WreFAF+weY3HUsp9eq+dFsgJFtQexhgs24bpSbVqFNx4infFEQqFYJgmkskk0ukMDMPcqXCA8kVrGWOYnJxselV+3ta1tTV89NFH+P3vf4/Z2dm6O2YopbsqURxECCE4cuRIzu/7wY1rBlZwx5vPs1euXMkpk9mMOHoPK/jqq6swTWuXEckdhfzf/H6n0xmk0mkYhglV1ZBMOloJJFtFQ5YVxGKd6Ojo2Hd8ZDIZ3Lhx0zVWZUkGsxnUjIpMKuPqbvA2PenwqDQCgs8/+3xXmoZfFJozLMtCJp1BMBjaMy3RtiyEw2GMjo7iZ3/xM7QUcIpw+DEGBgdw4cKFXesaR/yZYn1jHbZtFxQ5LRZ9xx0apmniww8/xP3795t6/hYIBOUhHBwCQR3gL9R8JfH9CIfDGB8f3zNyI5/e3l5Eo9GSQ6dLhTGGVCqF5eXluulxePU2vLu+u4XGdv7NQ6AlSXLM1axxa1k2TPNghH4/KVBKEQwGy97lrgWEELS1taE1GvXV8LFtG6lUCl99dRVbW1t+NNV3+PyzsrKCzz77DOl0GhsbG7h69SoWFhbq2pYnKQqrtbUVxyaOlTXXcqNKkouXSLZtG1euXGna8QQ4UUCff/4ZVldXy3Jgeo1O7vywLBu6rmN7OwnTNDE46KRb7jdn3LhxA2trq1DVDHRNd8uBWpZVtrPyyYDBskxouoaZmRl89913NZ13Czk50pk0CKEFdTn4Z7q64nj3vXfR19dX0vxLKcW558/h7NmzrpNDkiWYluOorhTePsMw8Itf/ALLy8sVH0sgEDQXwsEhENSJnWiE0j4fCoUwPDyM9vb2ss4jyzKGh4fR2tpadJFRDalUCisrK3XJEyeEuM4NrxI7NwwopaASBaUSbMZgmo5miWGa0LPh0YZpwTBNWPaTl299EGimHdSWlhZ0dTnVL/xqDzfSlpeX8dVXV7G9vd0U1+qFOzeuXr2KRCLhVmlKJBL46quv6raw57umT5L2wcmTJ8uOmHPnMrmw4880TSwsLODGjRvuvWomDMPAZ599jgcPHlYUAVQoZYDT0tKCsbGxfZ1GqVQKN27ccBwaplXwfdRs/VZrCHEc+fyeXPz8Ys2iODi7+pgh60DOrR7HnayBQAAX3n3XjX4q5bnhzulXX3sV8a44ZEV206Dyz1/qeMwfg7Ozs/jkk09yysoKBIKDi3BwCAR1g7mhm3u91AkhUBQFbW1t6OzsrEhPgztHZFn2VY+DC+UtLS1hfX3dt+PuBSEkG+LMYNvMdVgYpgVV06GqOlRNh2GYMC3L+f+G6aaymKaZTUNA2WlCgurg46VZFoyUUgwODu4S6q0Wvqien5/HlStXmmaRzNuwtraGP/7xj1hcXHQNHu5kWF1dxRdffFEXJ8d+opEHDcYYYrEYRkdHy55nTcN0SmKisPaApmm4fv06bt682fDoJw6PqPvTn/6EO3fu+JpmxI3foaEh9Pf37/v5+fk5rKyswrIZQqFQU0SJNRJCnEprPJqGMYa5uTlMTU3V/Jkr5GRw9FhsN/qU64mdPHkSJ0+erEh4enh4GO+//z62t7ezFVxyI4cqvU4+rr/++mvcuHHjiZqjBIKnFeHgEAjqBGNO6HEp4cxcM6CaBVtrayt6e3t9X/TxKhRTU1N1SVWxbdsRidN06LoO27ZzdqnyS8buveh+ehfAjYDfh6DPmjDV0NHRgeHh4Zro1DhGhePkqCZ02q/2WJaFx48f45NPPsHq6uquUpiWZUGWZSQSCfzpT3/C2tpazRf3pmk2XJPFL3hK3MTRCYTD4fKcHASwbAvBULDg97iRePHiRVy/fr0k7aFawsfLjRs3cO3adWiaVnV7eDSeIy7q/Jw7d27PdyTXKblz5w4sy4BpGMioKhRFgaIovgtsHxQYs6HrjpgqR9d1XL92vS56N/mRE7btpB1lMqqry8EYc1MWK4EQgjNnzuDP/uzPEAqFcoRBK7k+/h1+nFQqlaNNJBAIDi5P55tAIGgQToqF89jV2uAjhKC7uxtdXV1uiT4/sG3bNZQePnwITdN8O3Y+hBAYhglCqZtTbZmmq7bvTVcRNC8MzRUufuzYBAKBgO9jh1/j7OwcLl++gqWlpYYY87ZtY2trC9988w1++9vfIpPJFDSQvWH9Kysr+PLLL7GxseF7e7yifk+Kc8NLT09PyVU/vDDGYFpm0YginqL3+eef4+uvv3arRNT7WeKRcNeuXcMXX3wB09Ah76EhUgzutHdSJ7mz3AZgQ9NUnDhxHP39ffseZ3Fx0TVCZVl2xEszGdiMQQkEipbifZJxHEXSLn2TBw8eYH6ucYK1vPyxJDnpsnzkVnJ3+D39yU9+grNnz+ZsAlV7v/lYmp2bxW9+85umTA0TCASlIywDgaCO8EU+X5TVmkAggL6+PgSDQV/0OLxaGIZhYGtrC/Pz8zXV48ipiJJdUNuWBTt7TolSyFlHx9O2qG0k5fS1bVlN5YiKRqM4efIZAP47GrkRv7S0hMuXr+Dmze+Qyai+nqPQOb2GzdTUFL744gvcunVrT6cCIQS6rrtRWQsLC7h48SLW19d9nZ94H1ei13AQCIVCmDg6gdbW1rK+5703+VVVeAi/oiiwLAuXL1/GF1980RDh0a2tLfzhD3/ApUuXkEqloGfTnAIBBbJceDeet5+nnkgSzc4BDKapwzB0pNMpaJoKTdPQ2dmJ8+fP7zk+vEb72toaLMtCKLSjp8N1GRxHh1ITDapmhI8TVc2dZ3gK2r3Je3XTvfFGRfC+5yWEdcNwozeqbcmFCxdw6NChnL9Vc68JISDUcSheu34N//LJvzwVY0cgeFJpnhWnQPAUwBf49TTGW1paMDQ05EuIM4+c8JZYW1tbw+bmZk0XT7yvvP3GGIPtWbTxiA7v5wW1o9T7TSh1K9s0E2NjY+jv76tZu0zTxObmJm7fvo2LFy9idnbO/X9+CpwCO+N9YWEBH3/8MS5fvoz5+Xk3jaDY+bxpXrwfVlZW8Lvf/Q6JRMJXfYVmcnDVgsHBQRw5cgSBYPmCo5Zt7aqqwo3zTCYDTdOQSqXw3Xff4cMPP8Ti4qL73VpMu15n2aNHj/Dhhx/iu+++y9GW4aVfnWc7dyddlhX3XSHLFKqahqpmkE6noKoZqKoK0zRhmkb2WiW88MKL6OiI7dt3mqbi7t072eorFhizEQjsRMDw95Km6SDUKT273/u2mcZmpc8Kj6zMv07TNHH3zl2kU/WpfAbsdmTySCSJSrCs6iO4CCEYHBzE22+/jY6Ojl1V1SqFEpodlyZ+97vf4dtvv30iHbICwdPA7kLsAoGg5vBUFa4lUWtisRgOHTqEpaWlXbs85cAXtbzNtm3DMAwsLi6itbW15qHBxcrOEULAslECAUWBZe9odOT0r/B7VEUlwnBgDDZjYE2WmhAIBDAxMYH19fVdOi5+wfPQV1ZWsLy8jMHBQZw6dRKxWMw1uvKdFMUoNE9wY251dRV3bt/G3NwcDNMsy5nJjxEIBNxnKZlM4uLFi3j99dfR1tbmyzNNKXVTLMqBp7c0O5RSPPv9Z3Hv3j0YumO4l3oPbNt2DNuso4BSCk3T3FRAb4TC0tIS/ut//W94440f4MyZMwiHw66Tw69+4mPi5s2b+NOf/oRMOgNCScFUR8YYIpEINE2HaZpQFAmaprmpCd52FeoPSimOHTuOiYmJfdtECMHU1DQWFhZyHC2Oc87I+Szg9JclSQgEA7BME6ZZOIohGAy696BZKOc9zdNe8yuDcMfC9LTTZ23tbb63cy/y5zbnfezPPCtJEp577jlMTk7is88+cyNU+DuqlGcvPzrUsi23nel0Gh/+vx9icGgQ8c54UznBBALB/ggHh0BQZ5yXMEp+CfvFwMCAqzxeSWWLYmHmhmFgfX0dc3NzbshoLRaKey1evDuOhmE4KUCez/EUGt72ZlrI7kWpxm+9cRx0UkmpSdwhZjfhTlh3dw8OHRrF5OT9mqVPcGOREIKFhQUsLy+hKx5HT28vuru6EAqH3RQyr4aDd5zyPrQsC4auI6OqSCaTWFtdxfLyMtbW1hxnSva5ruQ6eDlmfq7V1VVcvnwZ58+fr9rJwSshlQO/3nwhwEZTrB+4gOKFdy7gXz75FySTyX3b63VyMcYQDAShqqpb/tK5H16jFdmKUAxffPFHTE5O4vTpMxgcHER7exsCgcCu+a3QfFfoM4Azl29ubmFm5jFu3bqFpaVlUEog7ZFSSakzv1IKmKaBdDpZ9Pj5SJKErq44nn/+ebS17W18O3pMBq5cueLOPbzfJEkuOB/xZ8+yLEebIyDByhO5jUaj+MlPf4K2tjYwu7HvBn7PNzY28E//9E+uo2j/7wG6UVwLy7Zt/PGPf8TRiaOVOan9xMdHmBCCH//4x3j06BEePHhQ1bFCoRAy6o4DlhCCxcVF/OEPf8BPf/JTtxqMQCA4GAgHh0DQIPhOXb1E9wgh6OvrQyaTcUtFlvt9YKeKSv5u0fLyMsLhMPr69heJqxQeEl1M2DTfocF3XWRZhm3bWF1dQzAYBKVS05eMZQygxIm+iUQijW4OgB3NAN7PvF/57mcxQ4bniDebcFswGMDx48ewubmJ+fnaCvFxY4sxirm5OczNzSEUCqGtrQ3hrJMjFA67lSAoF+XMOu3UTAaZTAa2bSOZTGJ7extmVnDXNE1I2ZSGSuYTb5oK/75t25idnQUAvPzyy2hpaanIMOLlIcsRI+Z9NT8/j6tXCA3iKQAAIABJREFUr7qRA5Zt+WoglQUBbMtGV1cXDh06tKsv+Pjv6+vD97//fVy+fHmXgco/wx1Ztm3DtmwYpgFmM2gZzdW34DjPCwHAcpwhuq5hbm4By8sr6OnpQXd3FwYHh9Db24OOjo4c4dJi0T+OBouBRGIDS0vLWFhYwOLiopsCwyNI9tq9liQKTVOzcwB13w/7jUN+/efOncfQ0PCen+VMT09jfn4ux/HFowIURS5aLYQxBl3Tsikzcs44P/f8OZw+fdrpD5CGR/kxxjByaAST9yfx7TffluSwpJS6UUP8GF5s28bdu3cxPz+PoaGhA+Xk3wtCCKLRKP76r/8af/d3f5cT2VMONCtizmzmzC9kZ7Pkyy+/xOihUVcf5knoN4HgaUA4OASCBuCNRqgnLS0t6O/vRzqdzolqKAVvvn6hCArDMLCwsIBwOIz29nbf2853twC4C9S9tAWAnfQV7kxKp9N4+PAxFEWu2Y693yRTKUwcPdo0IbLevuXh4Yosw8oaDHvdk2bs72g0ijNnTmNjY6PkHdNKkSQJhq7Czu4Up9NpZDIZdz5QFGWnMhBjACGwbBu2acLM9rdX6JdHORBCQKucT7iDw2tEM8YwNzeHTz/9FD/84Q+r2sWsJIJjc3PTzYMntLGGBXdMRFuj6O3tRTgc3vUZ3nfHJo5hdXUVd+/edSNjGGNQZMVxGjC4zipgp+8ZK/b85JbC3LlHFnTdxvz8PObn5zE5eR+BQADhcBjd3d3o6OhAJBJBKBR0RUwdfQoNqVQaGxsbWF1dRTqdzpb0zLjzKh+TXmcF/52PM1mWYBi66wgJBGSkUioC2UomxSIFudPr+eefx/e///2SdHAsy8SVK1eKOlOdaBjnsSl+DMstjSxRivaOdnz/+99329RMvP7667h546bb93tFwVj23gKijDFomobPPv0MP/9fft5011oNhBAMDAzggw8+wN///d9je3t7X4c7/x6HO2CZx3vKHXBbW1v4p//nnzAxMYGOjo6aXotAIPAP4eAQCBoEN7pL2e3y85zxeBxbW1tYWFgoOc0A2HEw8MVsPnxn+dGjRzh+/HhN9Di8i+tyHTM8NcgiBJZpwDBN2Iw1esNuX2KxjqZ0DAA7aQTcaKBZg5z/P06+M6rZFtg9PT144YXzuHTpj+71+IkjvCjD0DXXAMt3+BBCoGlawb7xfq5o26p0cPB76Q3/5/dte3sbqVQKwWCw7HO4xkMVY1g3Gh/5ww2mSCSS4wAo9LlgMIhzz53D6uoq1tbWQOAYS+l02k1Xyp/zuQOz3OA6ft8AIJVKIZlMAgCWl5fdaAquncTPw51opkevxevY8h47/1z8v4FAAKqagWHsjGnLstxILUVREFACMExjVxSLoig4duwY3nvv/ZKvcWZmFktLiwXfl855ubjr/uPENE3YlOLYsRNob29vqp15fh96enpw7NgxfPfdd0XfuYAjjGkX0bXwXpdpmvj222/xxptvoL+/vy7XW3Auq0EIlm3bOHnyJF577TV8/PHHOYK3wP5rhUAwgFQq5fziaTL//tr6Ov7P//yf8b//x//YdGLZAoGgMM2xJSgQPCGUs2hwdvYak1c+MjKCtrY2d0e4lOgAHgmx3zVmMhksLy/7fl3eBbgsle+bdRbGTqSJaRpOedm8qizN9pO9ch970X94Ww3DgJkdT/ljhRs13rKNzWJQcEZGRnDq1EkEg0FfF7GOc0OCbZn7Rh1x4y3/Z/eY2P3dvY5dKvnOE0mS0N7ejnPnziEej5d9zwrpiZQKH0earu3qg0b9lJoCRAhBW1sbfvD6DxAMBKFpGpLJpBvRUOg+OdpIxQ3ZUvD2k2EY0DQNuq7DMAx3LPEIDp6q6B13pYwfHn2hZtI5zg0gq8WRnacNw0BGVXO0Zfg8MDo6irfeervk67IsC3fu3EY6XbwSiGWZJUcYUUoRjUZx7NjRpi4le+rUqX3bx8BKijzj789r167VdEOl0DrB6xijxH+zg1KKQCCA1157DWfOnNk1f+/Vf47juXCkEU9pYpaNW7du4f/+H/+jametQCCoD8LBIRD4iKqWnmcOOOG0XmHBeiFJEg4fPoxoNOr+rRQnh3cnMB9+DYZhYG5uDuvrG/40Not3kcTAXOX4So5j2wyWZ+eS72g2XIDtAFHcSDPcfuXOM0IIWJEojmZaKk5MTGB8fAzBYLBgxYhy4X1glVnZpBKYT5VgTNN0jdL2dieE//DhwxUdy9WZKNP5QikFleVdu//NACnR4cg1j9599110d3e7KSLA7meHG1J+4nWW8d/3dqSWBqUUuq5mo2p2/39CSY4Oh/NO3HFw9vf34803f1hyuD9jDGtra3j8+LETeVFkPDDGtU32fi/weWd4eBi9vX1NOd+7bRwZxsjISNF3MyEElm3lVIDJv5/e3w3DwL2797CyslLTdgOO44VHaxBCICsyTMuExfyNjvOeOx6P4/3339/XGevtK0opTGu3Y1GRZciSDE3Toek6bNvGxYsXcePGjZq0XyAQ+ItwcAgEPsEYr5ZAy1g07ehK1HuhFQ6H0d/f75aH5C97Sne3nxtqwG5HiNeQBQBdN5BKpfHgwYM9Q2vLJX9HqFpbkSG745n94WkElDZnhMFBgqd58IU3IcQpFcsYKHV+N3QDpmHunTRfZxRFwTPPPIPBwUEAqNrJ4Vz73o5Bv/AjgsN7nFAohFOnTmF0dLSi43gjHsppFyEEVJJc4cpmwXWwlumSGxwcxOuvv47u7u6Ccys/drOVKS2EosjQdXXPNEUnMlHK+ZthGNA1A11dXbhw4QIGBgZKPidjDDMzj7G8vLzv52zbQkvLbm0UL4QQhMNhjI2NIRptbeo+j0ajGD887goPe+HvXYlKjjhmCRBCsLKygunpaV+drYU2BggIKHEiK6hEoWqOU8wrhuo3jDGMjo7igw8+yPnbXu1m2J3ypCgKGAjSWU0aHv2STCbx6aefYmVlRURxCARNjnBwCAQ+Eg6HYZpWwRd+MbjB14gXZiwWQzwez8nHBnIdGt7f8xfo3moPmqZD05ydDsuyoKoq7ty5W5N2Ozue/kS+uDudlgXLNCFRCYFAoCmiOSrZYW0muNPPsp3c/FAwCF0zkElnPAKEzWNgEEIQCoXw0ksvor/fqQbES29WcixFkaHXWLiUY1p7Cw2WAh/zsizjxRdfxMTERMXpOnxOK8fJyaOpdF0DayLnBqdSJ8Tw8DB++MMfIh6PF0zX4akjfjqE/SYQCCCdTu1bYtwZ91KO416WZXTGO/Hv/t1fY2houOS51XmvaJicnNzXUcbTYmRZ2jMakTGGlpYWnDhxvOHz+35QSjE+Po72jt2i3Yw52iqapjnVhbC3wDPgjLNUKoW7d+8imUz6Mi/l9yEf34qiQAnISKVT2Nza3EntqGGX8znn/PnzuHDhQs56pVDKDI/cdPstO/+bpuWKP3uPbVkWbn73HT799NOaaDUJBAL/EA4OgcBHnJeeCdMsXbiTCzQ2YrFFKUVfXx/a29vdsGIeSs8jOng7TdN0c7m9bTVMC6qamycPAJqmIZFIYHZ2zldDfaeNvhxu17Ety4JpGKA8daWBjg7HsdR4R0shikX55P8XDJBAYeg6UqkkTNOAIss51UCakR/84Ac4cuSwWxGiHHZ0CjI1al3h81XzfX6/YrEYXn31VYyNjVV8PO/cUbqj1xG/bIa0FK9RxNvlzAUUlllZNM7Q0BDefvttV+DR2y+SJCGgVJ8SVQu4hkwqtV2SQbeTiuVcXzAYxJEjR/BXf/VXZZW75oby0tIiHj58uK9zyU0HswwEAoWfV0opZFnGiRPH0dXV1ZTzqhdCnAohgwODu8YMdxzxv5cyj/L5dur+FJaWliqqzOXV2ODn5ecm1ElFIZQgo2WwntiAbug756lDd/P3yltvvYVTp07lzIv57QbZGa/OM6hAzajQdb1gn/Lff/8//ydu3rwpBEcFgiZGODgEAh9xw/FtG5Zl74qEKP4dVtFio1oIIQgEAhgZGUFLS0tOKUF30ZJ90eenqFiWDU1zBOyAwrm/mqZhbm4OiUTC98Ukpfv3bSVwR41lWWCWBSpJkLJGTr0XxI2K7NkL70Lbu+PPxzqzGcAA27SccGTGkE6nkE6nnN1G04SmazBNA4BT2aZZOXPmDI4fP46WlnDJ958bhNY+oqJ+4oSql5MalwvfcR0YGMDrr7+OQ4cO+dIuHs1Vyvmp5OTCN3JX1Ovo4bu7lmVB13Rk0hlXmLPSfh4eHsZ7772Ho0ePOqH7HgeyXm75lDrgRO0RqGqmrPvCGIMSkCHLMs6cOYP33nsPnZ2dFT0LX3311Z7irPnnNU2r4LPKf1cUBc8++1zZ7WgUkiTh7NmzRd91uq4D2N+RyB1GPNXi2rfX3L9Xgvd7XLOHMYaMmsF2ctupCNWg6DxCHJHft99+G11dXUU/w9ssy85Y1TQdZrbsNv9M/ncYY9B1Hf/wD/+AmdnZml+LQCCoDOHgEAhqAE97cJwcexsezsKDViyaWS2EELS2trpGDW+rV0fBm57iRHKYrm7HXjDGoKoq5ufna6A+TiBJpVWAqRSb7YiRIrvL460IUHs8528SeFsooQgoiiNuaVqwTQumbsC2LBi67vZZRs1AN/WssZ81ek0T9gEI71UUBRMTR3Hu3DlEo9F9HZYEgESdXX6rjukGxbRzSiUQCODo0aN45ZVX0N3dXdXY9oZ/l+rckGQ5W92ofn1WyEknUef5Ng0TmqpBzajQVKcSiV+Ol66uLrz11ls4d+4cWltbQSlFMBhseNRKPtwAzGQyZacZAUAwEMSFCxfw1ltvuaKP5YwrQgjm5uZw9+7dsvueEEcvJB9JknD8+HH09fU21Zy6H+OHxzE4OLjLceMVkS0Hxhi+/uZrbG1tlX1POJQ4TsBA0CkFnM6kkMqmMOWfq1EcPnwY77zzDkKh8G49JbITNQYQpNOlOfH42m5xaQn/+I//iK2trQM1lgSCpwXh4BAIagTfcTJNM7sbWHwhwRcpjYji4MRiMQwNDeX8zRXW46kbppN+w50epTg4dF3H4uISFheXfHUKOAZzfSIc+ELSMh1RzICiuDu8tYAb0qZpgqF5BE8JIW50hmWaSKfSsEzLrW7AIxZ46G46k4ZpGmD2js5JNRUc6g038oaGhvDee+9iYGAgJ8y5wBfAwGAYet2urZqoDR6x9dxzz+GVV15BW1ubL2MtX9NnrzZIsqO50YjIDX5/FVmBZVrQdR3bW9tQVdV1uHgj2fw6ZyQSwauvvoof/ehHCAaDME2roXN/PlyLJpncgm2Xfl+4o62rqxs///nP8corr5SVlpLPl1/+KecdVAqOX5UVLEnNGMMrr7zcVH1dCoqi4Adv/CBnLAaDQVieaINy55tMOoOLn18s+fPe+VqWZShBBYZlYH1j3ZnnCzy/jZzfeVTa66+/jnPnnkNG1RAOtyAYCoFSCkV20ph03YCqqm6EiyRJUBQFgUDA/eEir7yvZVlGa2sEM48f48qVK03/HhMInkYO1iwvEBwwuNFnGOa+O1j1iwooTk9PD7q6unJe5oZhIplMIZ3O/P/t3dtvXVedB/DfPlfbsR3bbeI6TkNCIaFJE6VqoYiZ9G1GgFTEvCBg6N81SPwDvKNhkAaGF0ZixCA1UyCtptCWTqM4TpP4fjmXPQ/n7ONjx06c+LrK5/MSJT453meftS/ru9f6rU21NiKi+7rd1QD4+OOPY2FhYV+3t1Lp/M7D3G9FaBN53pu6clA3zAe9tOjTyvO8M/KiG3j1/3t/m2i3W7G6uhJ5vvF0sf9pY6+tH6PPtpP+oe03bvx9XLt2rbe88tZCvNVqJZqHPNWg3W4/1X4swrNarRaTk5Px1ltvxZUrV/Zte3pTlfLHT7srpqUcZs2NogPe6+DkEY31RszPz8fy8nJvuP9BK9rUxYsX4wc/+EGcO/dib8rKUV8DSqVSVKuVePjw/q7PPcWT8BMnhuOVV16J73//+3Hu3LltC6ru1uzsbLz//vuxvv50YWGWRTeA3xhtlXeXY7948cvxwgsv7Gm7DluxnZcuXYrp6eneZypqYm193eP078c8z+O3//XbXV+Ti2t8uVKOtcZaPJx7GCsrK9u22eMWXn/ve9+LL5x7MRYXF2N9bT2yrBRDQ0MxODAY5e75oNVsRLPRiCzyyCI6NbhKWZSyiCzPI/J2tJqNaKyvxfLSYtybnY3P7s3GL37xb/Huu+8euxFY8LdufxdeBx7RHwhUKuVt5+UXN1zFnO+jUq/XY3JyMubn52Npabn3ZL6oK1Iul6LdzjdVEO8EG53RFMXfi4t98bmKzu37778fV65ciYGBgT3fYPYXaD3Moe3Fd1c8PeufHrAfIxOKzn+zubGE6nG6WYyIaLc35nMXNra7EevbjGAolzvLGR63m9+n0VlG9uWYnDwdH3zwQdy5cydWVla7nz0ObcWUflm2sQTvkxTtdGJiIs6fPx8XL16MEydO7HuHr1QqPXa1jWL0SKPZiNYuCzI/63b0/86NqYOtWF1ZfeRce9jtMs/zeP755+M73/lOvPvuu3Hr1nvx6aefbhz/h6yo5bK0tPjEfVG0lyIsm54+G9evX49Lly5FvV7f9Jqn1Wq14g9/+EO0Wq1uYPp0x1RR5LSYJlUqddrbK69cPbKC3ntRhIWvf/X1uHPnTu/vW0Pmp9Fut2NxYTHeeeeduHHjxmN+eTecztvRardibXltx4Kvx/G8nuedJa9/9KO34yc/+UnMzMxEuVyOhYWFaDTWI4uIZqPRm3LbajViN9VQsyyLZqsVt2/fjp///F/j7NmzMTExkVzbgs8rIzjgEPTX5CgKt23VuWk42ukIeZ7H6OhoTE1N9UKMYtuLm8b+IcPFFJxmc6NeRzHqoOhMFSM7ms3OSJC//OXDfb15P+r91dtP7XZvREfsw2ic9fW1OH63i11bPloxkmdtfTVW11YfudHtD4JSVy6X4/Tp0/Haa6/F17/+9XjxxRe74U27d+N/2G1y8zG6WbHvK5VKDA0NxdWrV+PGjRtx9erVGBoa6r1mvzSbjy8UWoQbB7Usan/Huxil0W61ezU1VldWY31t/2pq7EXRVmq1Wly/fj2+9a1vxptvvhkTE+O9kWGH1Z467SSL5ZWlJ35/xYiNarUaU1NT8Q//8I/x1ltvxbVr1x6tdfCU8jyP+fn5+PDDv/RW7XoWrVYzarVqL7x74YUX4ty5F5PsgBbh3EsvvRSTk5NRrVZjdXV1z+/barXinXfeeXwdie5KIyurK5umcmx1HMONiI1j7Pz5L8S3v/3tGB0djVqtGsvLS7GyshJr6+vdKSn17ud6dDTK4+R5Hrdu3Yqf/exnSbYt+LwyggMOSf+ohmq1Enn+aJHOXrG7I1p+rLgZmJ6ejvn5hZidne0VBy3mNe/UKem/KS5uyIrQo/g8eZ7H7OxsjI+Px5kzU/uyzf1DZI/qJmvrqI5apdIpUFp8509xk148vU3hZmmj85XH6trqpjnh2732qEco7ad6vR5nzpyJycnJmJmZif+5eTPu3LnTXRo3j+Ib7+8QbK3nsF/ttd1uR7Ov6G//d1Cr1SLLsjh37ly8+uqrMTIycqBBU6vV2rGgcHF+W2/sT8CwXVsr6oo0Go1YWlrqrXpyXDtghXK5HBMTE/HGG1+LV1+9Hjdv3ozf/e6/Y3V1tXc+OKjRT6VSOWq1SszPz+0YKPQv+1sqleLkyZPxjW/8XVy+fDkGBwd7r9vreSvLsvjkk09iZuZuVKu1WF9fe6b36YTsWa/9nz9/PiYmJva0bUdtdHQ0Lly4EDMzd545+Ok/H2VZFp/d+yw+/ujjuHrt6o6vb7U3aidtNx0lBaVSKb72ta/GRx99GL/5z9/0jql2ux0rKytRq9XixIkTsbKyuqnuzOPO1cXPWq1W/PrX/xFf/OKFuHHjzU0/A46GgAP2UX8HY7vwotPpb0dEMyqVcuR5O9rtjf/TeQJc2tUKJQcpy7K4fPnl+P3vVzY9aW21WtuujrD18xbhRsRG7YWi+GSWRXz88UcxPDwco6Mju96m7fZH8d7lcvmR6u2Hpf+zb52iUimXI4+Idmwu2Pqk92g2G8d6nnixbVkW0Wy1Yn1989SMbaevxMaT9c/TfOVyuRxnzpyJM2fOxMzMTHzwwf/GzMxMrK2tRbO72lCpVIqslEW71d5Um2K/lpHNSqXI+oaNF0Uia7VaTE1NxaVLl+LUqVMRcfAdkizLtg0vitFcjWZjX1fQKZVKvbbVbrdjdWW1Nz3mIILPgzwmi/ceGBiIN954I65cuRLvvfde3Lp1q1sHqVMnpKhxsh/HUWc0Rhbzcw+j/936R47keR61Wi2Gh0/E2NhEXLt2NS5fvrLn0Rpb5Xln1a333nsvFhcXo1KuRL0+sKlob/G9Pu47LX7eaDRicGgwTgydiEuXLh7Zg4P9UISDl75yKW7evBlzc/O9nz1L+y6uUw8ePIg//umP8eWLX456vb5j+y7aw7P+rv7j9ChkWacw6ze/+c3O8dRXeyTLst5KSZ3ire1oNhu989hO+6S/LTYajfjpT38a09Nn48KFC8f22g1/KwQcsI+eZrnGItioVKoRsTkcaDQ6gcJRXSSLC/eXvvRS/OlPt2J5ebkXJLRazT3dKLbbeSwuLsdf//rXePnlrzzxvYpgZLunl726D41mbwm94/REqdj2UpZFqxvGFG1kp+1stVub29AxCjqK/VuskhGRR7PRKcz4pO+x3Vdnpvjess/BlJWIjeNlcnIyTp06FXNzc3H37t24fft2zM/PxcLCQudmOdsY5RPdIKBcLkelUunVhih3awS0u6OfdrJ16kIpy6JWr8fIyEiMj4/H6dOnY2pqKk6ePPlI2HRQihBja1vI805wm0fnGC7t4fxRdOxL3eV48+55tNlo9GqRHOTqRjvVH9jP31EYHh6O119/Pa5evRq3b9+OTz+9HXfv3o0HD+7H3Nx8rK+vbwoh+ov4bmdrAN/5nvJOzY3otKGse35qt9sxMDAQY2NjMTY2HtPT03H27NmYmprqjYrY7xA2y7J4+PBhfPTRR51rTbuzsk2nrtPOo8N2kuedgpHFtqeuGF05fXY67t27t+eAq+jA//nPf4779+/H1NSjoyr7zx17Pa6OQ8hx+vTpePvtt+PHP/6XePDgwaZjpgjYarVat1ZLRKu1u2mHpVIpFhYW4pe//Pf44Q//OYaHh4/NdRv+Fgk4YJ9UKpWo1+sx0F2G7HH6k/9qtRKdeZ+dGhftdiuq1eqeltfbq+LCPDIyEufPfyE++eT/eh2zzg1BHs+aI/Rf9HdzAzAxMR7z8ws7Pi0snhgXK3Yco3wjIjYXNyyVsoisqOy/zYbmeecJd7cDkWVZjI2NHZsbpVKpFJOTk3H//v1YW1uNPPIYHBp88n+M7vfSnbaTRScQGR8fPxYrR+zVpqChVIqxsbEYHx+PCxcuxMLCfMzNzcXc3FwsLi7G7OxszM/PR7M7yqBarkZW6i6/m+fRbjS6xXzbkbfzqFY7yxn2nzM2iid2VgM4efJkjIyOxsTERIyNjXXnmde23b6D3Af1ej3GxsZidXV1U9hYTE1q53vrkGVZZz8Vo8r6l9c+rGDz7NmzvQ7+YanX63H+/Pk4d+5cLC0txcOHD+PBgwdx795n8eDB/bh377NN03H6pwRu/bM4r3RGv22cN4vvb2RkJE6dOhXPPfdcPP/88zEx8VyMj49v22E7iH1QTH8ZGBjY9J12grOnH/1VqVTi9ddf6xU+TV29Xo/r16/H3Zm73WXEn63dl7JStPN2rDfWY3BocMdOfL1ejwvnL8Ta2rNNFerJI8qVclz44oWIONopHJcvX47vfvef4le/+uW2KycVx0dRkHY3tYKK812tVv/cTMOElGX5cXrcCYnrv+neje0u8sVN6EEuP/o0+guHbhTg2utpo1PQrui8Pc5u9+nxP5V1pnR0NnPnbc3zvLPWYXT29lHWZNlOo6/i/F5kEVGpVns1Ez6viv1UjNBotTrLOz58OBfz83OxvLwcS0vdgndra52pLX2rF5VKpShXylGtVGNkZCRGR0/G4OBgDA4OdoKNkZFeG9m6ashRWFtbe+IUtr06ylo7tVpt36dmPO02FH8W5+ZmsxnLy8tx//79mJ+fj4WFhVheXo7V1bVYX1/fdA4tl0tRqVRjcHAwsixiePhEDA+PxNjYyXjuuedicHCoV0D0MIucFoqaCPv1HWdZFoODg8fiWrpfWq1WLC8vF89E9qQYmTk0NLTtPipGNezHFNA8z2NoaGhX1/2D1mw2Y2lpaZev3v2OrlaLYyvt0B5SJ+AAgAO2XQHQ7V5ThANbn7ofl8CT46EISnfTkeqf3rebwGI3bRUAjisBBwAcsq3FEnUm2aunrbWytSaHNgjA54GAAwAAAEie8a4AAABA8gQcAAAAQPIEHAAAAEDyBBwAAABA8gQcAAAAQPIEHAAAAEDyBBwAAABA8gQcAAAAQPIEHAAAAEDyBBwAAABA8gQcAAAAQPIEHAAAAEDyBBwAAABA8gQcAAAAQPIEHAAAAEDyBBwAAABA8gQcAAAAQPIEHAAAAEDyBBwAAABA8gQcAAAAQPIEHAAAAEDyBBwAAABA8gQcAAAAQPIEHAAAAEDyBBwAAABA8gQcAAAAQPIEHAAAAEDyBBwAAABA8gQcAAAAQPIEHAAAAEDyBBwAAABA8gQcAAAAQPIEHAAAAEDyBBwAAABA8gQcAAAAQPIEHAAAAEDyBBwAAABA8gQcAAAAQPIEHAAAAEDyBBwAAABA8gQcAAAAQPIEHAAAAEDyBBwAAABA8gQcAAAAQPIEHAAAAEDyBBwAAABA8gQcAAAAQPIEHAAAAEDyBBwAAABA8gQcAAAAQPIEHAAAAEDyBBwAAABA8gQcAAAAQPIEHAAAAEDyBBzGGlghAAACZUlEQVQAAABA8gQcAAAAQPIEHAAAAEDyBBwAAABA8gQcAAAAQPIEHAAAAEDyBBwAAABA8gQcAAAAQPIEHAAAAEDyBBwAAABA8gQcAAAAQPIEHAAAAEDyBBwAAABA8gQcAAAAQPIEHAAAAEDyBBwAAABA8gQcAAAAQPIEHAAAAEDyBBwAAABA8gQcAAAAQPIEHAAAAEDyBBwAAABA8gQcAAAAQPIEHAAAAEDyBBwAAABA8gQcAAAAQPIEHAAAAEDyBBwAAABA8gQcAAAAQPIEHAAAAEDyBBwAAABA8gQcAAAAQPIEHAAAAEDyBBwAAABA8gQcAAAAQPIEHAAAAEDyBBwAAABA8gQcAAAAQPIEHAAAAEDyBBwAAABA8gQcAAAAQPIEHAAAAEDyBBwAAABA8gQcAAAAQPIEHAAAAEDyBBwAAABA8gQcAAAAQPIEHAAAAEDyBBwAAABA8gQcAAAAQPIEHAAAAEDyBBwAAABA8gQcAAAAQPIEHAAAAEDyBBwAAABA8gQcAAAAQPIEHAAAAEDyBBwAAABA8gQcAAAAQPIEHAAAAEDyBBwAAABA8gQcAAAAQPIEHAAAAEDyBBwAAABA8gQcAAAAQPIEHAAAAEDyBBwAAABA8gQcAAAAQPIEHAAAAEDyBBwAAABA8gQcAAAAQPIEHAAAAEDyBBwAAABA8gQcAAAAQPIEHAAAAEDyBBwAAABA8gQcAAAAQPIEHAAAAEDyBBwAAABA8gQcAAAAQPIEHAAAAEDyBBwAAABA8gQcAAAAQPIEHAAAAEDyBBwAAABA8gQcAAAAQPIEHAAAAEDy/h8zu05szdu7AgAAAgtpVFh0WE1MOmNvbS5hZG9iZS54bXAAAAAAADw/eHBhY2tldCBiZWdpbj0n77u/JyBpZD0nVzVNME1wQ2VoaUh6cmVTek5UY3prYzlkJz8+Cjx4OnhtcG1ldGEgeG1sbnM6eD0nYWRvYmU6bnM6bWV0YS8nIHg6eG1wdGs9J0ltYWdlOjpFeGlmVG9vbCAxMC44MCc+CjxyZGY6UkRGIHhtbG5zOnJkZj0naHR0cDovL3d3dy53My5vcmcvMTk5OS8wMi8yMi1yZGYtc3ludGF4LW5zIyc+CgogPHJkZjpEZXNjcmlwdGlvbiByZGY6YWJvdXQ9JycKICB4bWxuczpwZGY9J2h0dHA6Ly9ucy5hZG9iZS5jb20vcGRmLzEuMy8nPgogIDxwZGY6QXV0aG9yPkpvYW5uYTwvcGRmOkF1dGhvcj4KIDwvcmRmOkRlc2NyaXB0aW9uPgoKIDxyZGY6RGVzY3JpcHRpb24gcmRmOmFib3V0PScnCiAgeG1sbnM6eG1wPSdodHRwOi8vbnMuYWRvYmUuY29tL3hhcC8xLjAvJz4KICA8eG1wOkNyZWF0b3JUb29sPkNhbnZhPC94bXA6Q3JlYXRvclRvb2w+CiA8L3JkZjpEZXNjcmlwdGlvbj4KPC9yZGY6UkRGPgo8L3g6eG1wbWV0YT4KPD94cGFja2V0IGVuZD0ncic/PqoIoBEAAAAASUVORK5CYII=;imageBorder=none;" vertex="1" parent="NBEOzvU_pRrIGNWXIiWT-9">
          <mxGeometry x="27.5" y="15" width="105" height="70" as="geometry" />
        </mxCell>
        <mxCell id="NBEOzvU_pRrIGNWXIiWT-8" value="Keycloak Authentication&amp;nbsp;&lt;div&gt;OpenID Connect&lt;/div&gt;" style="rounded=1;whiteSpace=wrap;html=1;strokeColor=none;" vertex="1" parent="NBEOzvU_pRrIGNWXIiWT-9">
          <mxGeometry x="11.25" y="80" width="137.5" height="40" as="geometry" />
        </mxCell>
        <mxCell id="NBEOzvU_pRrIGNWXIiWT-11" value="&lt;font style=&quot;font-size: 18px;&quot;&gt;&lt;b&gt;API Server&lt;/b&gt;&lt;/font&gt;" style="rounded=1;whiteSpace=wrap;html=1;" vertex="1" parent="1">
          <mxGeometry x="540" y="420" width="120" height="60" as="geometry" />
        </mxCell>
        <mxCell id="NBEOzvU_pRrIGNWXIiWT-12" value="" style="rounded=1;whiteSpace=wrap;html=1;arcSize=4;dashed=1;fillColor=#d5e8d4;strokeColor=#82b366;" vertex="1" parent="1">
          <mxGeometry x="790" y="119" width="330" height="251" as="geometry" />
        </mxCell>
        <mxCell id="NBEOzvU_pRrIGNWXIiWT-13" value="&lt;span style=&quot;font-size: 18px;&quot;&gt;&lt;span&gt;Categories&lt;/span&gt;&lt;/span&gt;" style="rounded=1;whiteSpace=wrap;html=1;fillColor=#f5f5f5;strokeColor=none;fontColor=#333333;fontStyle=0" vertex="1" parent="1">
          <mxGeometry x="800" y="214.5" width="150" height="60" as="geometry" />
        </mxCell>
        <mxCell id="NBEOzvU_pRrIGNWXIiWT-14" value="&lt;span style=&quot;font-size: 18px;&quot;&gt;&lt;span&gt;Product&lt;/span&gt;&lt;/span&gt;" style="rounded=1;whiteSpace=wrap;html=1;fillColor=#f5f5f5;strokeColor=none;fontColor=#333333;fontStyle=0" vertex="1" parent="1">
          <mxGeometry x="800" y="290" width="150" height="60" as="geometry" />
        </mxCell>
        <mxCell id="NBEOzvU_pRrIGNWXIiWT-15" value="&lt;span style=&quot;font-size: 18px;&quot;&gt;&lt;span&gt;Product&amp;nbsp;&lt;/span&gt;&lt;/span&gt;&lt;div&gt;&lt;span style=&quot;font-size: 18px;&quot;&gt;&lt;span&gt;Attributes&lt;/span&gt;&lt;/span&gt;&lt;/div&gt;" style="rounded=1;whiteSpace=wrap;html=1;fillColor=#f5f5f5;strokeColor=none;fontColor=#333333;fontStyle=0" vertex="1" parent="1">
          <mxGeometry x="960" y="140" width="150" height="60" as="geometry" />
        </mxCell>
        <mxCell id="NBEOzvU_pRrIGNWXIiWT-17" value="&lt;span style=&quot;font-size: 18px;&quot;&gt;&lt;span&gt;Brand&lt;/span&gt;&lt;/span&gt;" style="rounded=1;whiteSpace=wrap;html=1;fillColor=#f5f5f5;strokeColor=none;fontColor=#333333;fontStyle=0" vertex="1" parent="1">
          <mxGeometry x="800" y="140" width="150" height="60" as="geometry" />
        </mxCell>
        <mxCell id="NBEOzvU_pRrIGNWXIiWT-18" value="&lt;span style=&quot;font-size: 18px;&quot;&gt;&lt;span&gt;Product Dimension&lt;/span&gt;&lt;/span&gt;" style="rounded=1;whiteSpace=wrap;html=1;fillColor=#f5f5f5;strokeColor=none;fontColor=#333333;fontStyle=0" vertex="1" parent="1">
          <mxGeometry x="960" y="290" width="150" height="60" as="geometry" />
        </mxCell>
        <mxCell id="NBEOzvU_pRrIGNWXIiWT-19" value="&lt;span style=&quot;font-size: 18px;&quot;&gt;&lt;span&gt;Product&amp;nbsp;&lt;/span&gt;&lt;/span&gt;&lt;div&gt;&lt;span style=&quot;font-size: 18px;&quot;&gt;&lt;span&gt;Variant&lt;/span&gt;&lt;/span&gt;&lt;/div&gt;" style="rounded=1;whiteSpace=wrap;html=1;fillColor=#f5f5f5;strokeColor=none;fontColor=#333333;fontStyle=0" vertex="1" parent="1">
          <mxGeometry x="960" y="214.5" width="150" height="60" as="geometry" />
        </mxCell>
        <mxCell id="NBEOzvU_pRrIGNWXIiWT-20" value="&lt;font style=&quot;font-size: 18px;&quot;&gt;Receiving&lt;/font&gt;" style="rounded=1;whiteSpace=wrap;html=1;arcSize=4;dashed=1;fillColor=#dae8fc;strokeColor=#6c8ebf;" vertex="1" parent="1">
          <mxGeometry x="790" y="390" width="160" height="60" as="geometry" />
        </mxCell>
        <mxCell id="NBEOzvU_pRrIGNWXIiWT-21" value="&lt;font style=&quot;font-size: 18px;&quot;&gt;Common&lt;/font&gt;&lt;div&gt;&lt;font style=&quot;font-size: 18px;&quot;&gt;Service&lt;/font&gt;&lt;/div&gt;" style="rounded=1;whiteSpace=wrap;html=1;arcSize=4;dashed=1;fillColor=#dae8fc;strokeColor=#6c8ebf;" vertex="1" parent="1">
          <mxGeometry x="1140" y="119" width="160" height="60" as="geometry" />
        </mxCell>
        <mxCell id="NBEOzvU_pRrIGNWXIiWT-22" value="&lt;font style=&quot;font-size: 18px;&quot;&gt;Putaway&lt;/font&gt;" style="rounded=1;whiteSpace=wrap;html=1;arcSize=4;dashed=1;fillColor=#dae8fc;strokeColor=#6c8ebf;" vertex="1" parent="1">
          <mxGeometry x="960" y="390" width="160" height="60" as="geometry" />
        </mxCell>
        <mxCell id="NBEOzvU_pRrIGNWXIiWT-23" value="&lt;font style=&quot;font-size: 18px;&quot;&gt;Picking&lt;/font&gt;" style="rounded=1;whiteSpace=wrap;html=1;arcSize=4;dashed=1;fillColor=#dae8fc;strokeColor=#6c8ebf;" vertex="1" parent="1">
          <mxGeometry x="790" y="470" width="160" height="60" as="geometry" />
        </mxCell>
        <mxCell id="NBEOzvU_pRrIGNWXIiWT-24" value="&lt;font style=&quot;font-size: 18px;&quot;&gt;Packing&lt;/font&gt;" style="rounded=1;whiteSpace=wrap;html=1;arcSize=4;dashed=1;fillColor=#dae8fc;strokeColor=#6c8ebf;" vertex="1" parent="1">
          <mxGeometry x="960" y="470" width="160" height="60" as="geometry" />
        </mxCell>
        <mxCell id="NBEOzvU_pRrIGNWXIiWT-25" value="&lt;font style=&quot;font-size: 18px;&quot;&gt;Inventory&lt;/font&gt;" style="rounded=1;whiteSpace=wrap;html=1;arcSize=4;dashed=1;fillColor=#dae8fc;strokeColor=#6c8ebf;" vertex="1" parent="1">
          <mxGeometry x="790" y="550" width="160" height="60" as="geometry" />
        </mxCell>
        <mxCell id="NBEOzvU_pRrIGNWXIiWT-26" value="&lt;font style=&quot;font-size: 18px;&quot;&gt;Shipping&lt;/font&gt;" style="rounded=1;whiteSpace=wrap;html=1;arcSize=4;dashed=1;fillColor=#dae8fc;strokeColor=#6c8ebf;" vertex="1" parent="1">
          <mxGeometry x="960" y="550" width="160" height="60" as="geometry" />
        </mxCell>
        <mxCell id="NBEOzvU_pRrIGNWXIiWT-27" value="&lt;font style=&quot;font-size: 18px;&quot;&gt;Movement&lt;/font&gt;" style="rounded=1;whiteSpace=wrap;html=1;arcSize=4;dashed=1;fillColor=#dae8fc;strokeColor=#6c8ebf;" vertex="1" parent="1">
          <mxGeometry x="790" y="630" width="160" height="60" as="geometry" />
        </mxCell>
        <mxCell id="NBEOzvU_pRrIGNWXIiWT-28" value="&lt;font style=&quot;font-size: 18px;&quot;&gt;Transpotation&lt;/font&gt;" style="rounded=1;whiteSpace=wrap;html=1;arcSize=4;dashed=1;fillColor=#dae8fc;strokeColor=#6c8ebf;" vertex="1" parent="1">
          <mxGeometry x="960" y="630" width="160" height="60" as="geometry" />
        </mxCell>
        <mxCell id="NBEOzvU_pRrIGNWXIiWT-29" value="&lt;font style=&quot;font-size: 18px;&quot;&gt;&lt;b&gt;Camunda&lt;/b&gt;&lt;/font&gt;" style="rounded=1;whiteSpace=wrap;html=1;" vertex="1" parent="1">
          <mxGeometry x="1360" y="119" width="140" height="60" as="geometry" />
        </mxCell>
        <mxCell id="NBEOzvU_pRrIGNWXIiWT-30" value="&lt;font style=&quot;font-size: 18px;&quot;&gt;&lt;b&gt;Apache Nifi&lt;/b&gt;&lt;/font&gt;" style="rounded=1;whiteSpace=wrap;html=1;" vertex="1" parent="1">
          <mxGeometry x="1360" y="200" width="140" height="60" as="geometry" />
        </mxCell>
        <mxCell id="NBEOzvU_pRrIGNWXIiWT-31" value="" style="rounded=1;whiteSpace=wrap;html=1;arcSize=4;dashed=1;fillColor=#dae8fc;strokeColor=#6c8ebf;" vertex="1" parent="1">
          <mxGeometry x="1140" y="270" width="160" height="420" as="geometry" />
        </mxCell>
        <mxCell id="NBEOzvU_pRrIGNWXIiWT-32" value="&lt;span style=&quot;font-size: 18px;&quot;&gt;&lt;span&gt;Tally&lt;/span&gt;&lt;/span&gt;" style="rounded=1;whiteSpace=wrap;html=1;fillColor=#f5f5f5;strokeColor=none;fontColor=#333333;fontStyle=0" vertex="1" parent="1">
          <mxGeometry x="1152.5" y="290" width="135" height="60" as="geometry" />
        </mxCell>
        <mxCell id="NBEOzvU_pRrIGNWXIiWT-33" value="&lt;span style=&quot;font-size: 18px;&quot;&gt;&lt;span&gt;Shopify&lt;/span&gt;&lt;/span&gt;" style="rounded=1;whiteSpace=wrap;html=1;fillColor=#f5f5f5;strokeColor=none;fontColor=#333333;fontStyle=0" vertex="1" parent="1">
          <mxGeometry x="1152.5" y="370" width="135" height="60" as="geometry" />
        </mxCell>
        <mxCell id="NBEOzvU_pRrIGNWXIiWT-34" value="&lt;span style=&quot;font-size: 18px;&quot;&gt;&lt;span&gt;Orderhive&lt;/span&gt;&lt;/span&gt;" style="rounded=1;whiteSpace=wrap;html=1;fillColor=#f5f5f5;strokeColor=none;fontColor=#333333;fontStyle=0" vertex="1" parent="1">
          <mxGeometry x="1152.5" y="450" width="135" height="60" as="geometry" />
        </mxCell>
        <mxCell id="NBEOzvU_pRrIGNWXIiWT-35" value="&lt;span style=&quot;font-size: 18px;&quot;&gt;&lt;span&gt;SAP&lt;/span&gt;&lt;/span&gt;" style="rounded=1;whiteSpace=wrap;html=1;fillColor=#f5f5f5;strokeColor=none;fontColor=#333333;fontStyle=0" vertex="1" parent="1">
          <mxGeometry x="1152.5" y="530" width="135" height="60" as="geometry" />
        </mxCell>
        <mxCell id="NBEOzvU_pRrIGNWXIiWT-36" value="&lt;span style=&quot;font-size: 18px;&quot;&gt;&lt;span&gt;MS Dynamics&lt;/span&gt;&lt;/span&gt;" style="rounded=1;whiteSpace=wrap;html=1;fillColor=#f5f5f5;strokeColor=none;fontColor=#333333;fontStyle=0" vertex="1" parent="1">
          <mxGeometry x="1152.5" y="610" width="135" height="60" as="geometry" />
        </mxCell>
        <mxCell id="NBEOzvU_pRrIGNWXIiWT-38" value="" style="image;aspect=fixed;html=1;points=[];align=center;fontSize=12;image=img/lib/azure2/other/Managed_Instance_Apache_Cassandra.svg;" vertex="1" parent="1">
          <mxGeometry x="1550" y="476.25" width="98" height="98" as="geometry" />
        </mxCell>
        <mxCell id="NBEOzvU_pRrIGNWXIiWT-39" value="" style="sketch=0;outlineConnect=0;fontColor=#232F3E;gradientColor=none;fillColor=#C925D1;strokeColor=none;dashed=0;verticalLabelPosition=bottom;verticalAlign=top;align=center;html=1;fontSize=12;fontStyle=0;aspect=fixed;pointerEvents=1;shape=mxgraph.aws4.rds_mysql_instance;" vertex="1" parent="1">
          <mxGeometry x="1550" y="345.75" width="89" height="89" as="geometry" />
        </mxCell>
        <mxCell id="NBEOzvU_pRrIGNWXIiWT-40" value="&lt;font style=&quot;font-size: 18px;&quot;&gt;&lt;b&gt;Admin Portal&lt;/b&gt;&lt;/font&gt;" style="rounded=1;whiteSpace=wrap;html=1;" vertex="1" parent="1">
          <mxGeometry x="70" y="360" width="150" height="60" as="geometry" />
        </mxCell>
        <mxCell id="NBEOzvU_pRrIGNWXIiWT-41" value="&lt;font style=&quot;font-size: 18px;&quot;&gt;&lt;b&gt;Customer&amp;nbsp;&lt;/b&gt;&lt;/font&gt;&lt;div&gt;&lt;font style=&quot;font-size: 18px;&quot;&gt;&lt;b&gt;Portal&lt;/b&gt;&lt;/font&gt;&lt;/div&gt;" style="rounded=1;whiteSpace=wrap;html=1;" vertex="1" parent="1">
          <mxGeometry x="70" y="440" width="150" height="60" as="geometry" />
        </mxCell>
        <mxCell id="NBEOzvU_pRrIGNWXIiWT-42" value="&lt;span style=&quot;font-size: 18px;&quot;&gt;&lt;b&gt;Customer&amp;nbsp;&lt;/b&gt;&lt;/span&gt;&lt;div&gt;&lt;span style=&quot;font-size: 18px;&quot;&gt;&lt;b&gt;Mobile&amp;nbsp;&lt;/b&gt;&lt;/span&gt;&lt;b style=&quot;font-size: 18px; background-color: transparent; color: light-dark(rgb(0, 0, 0), rgb(255, 255, 255));&quot;&gt;App&lt;/b&gt;&lt;/div&gt;" style="rounded=1;whiteSpace=wrap;html=1;" vertex="1" parent="1">
          <mxGeometry x="70" y="530" width="150" height="60" as="geometry" />
        </mxCell>
        <mxCell id="NBEOzvU_pRrIGNWXIiWT-43" value="&lt;span style=&quot;font-size: 18px;&quot;&gt;&lt;b&gt;Operator&amp;nbsp;&lt;/b&gt;&lt;/span&gt;&lt;div&gt;&lt;span style=&quot;font-size: 18px;&quot;&gt;&lt;b&gt;Mobile App&lt;/b&gt;&lt;/span&gt;&lt;/div&gt;" style="rounded=1;whiteSpace=wrap;html=1;" vertex="1" parent="1">
          <mxGeometry x="70" y="620" width="150" height="60" as="geometry" />
        </mxCell>
        <mxCell id="NBEOzvU_pRrIGNWXIiWT-44" value="&lt;font style=&quot;font-size: 18px;&quot;&gt;&lt;b&gt;Elasticsearch&lt;/b&gt;&lt;/font&gt;" style="rounded=1;whiteSpace=wrap;html=1;" vertex="1" parent="1">
          <mxGeometry x="1360" y="285.75" width="140" height="60" as="geometry" />
        </mxCell>
        <mxCell id="NBEOzvU_pRrIGNWXIiWT-45" value="&lt;span style=&quot;font-size: 18px;&quot;&gt;&lt;b&gt;Observability&lt;/b&gt;&lt;/span&gt;" style="rounded=1;whiteSpace=wrap;html=1;" vertex="1" parent="1">
          <mxGeometry x="1360" y="370" width="140" height="60" as="geometry" />
        </mxCell>
        <mxCell id="NBEOzvU_pRrIGNWXIiWT-46" value="&lt;span style=&quot;font-size: 18px;&quot;&gt;&lt;b&gt;POS&lt;/b&gt;&lt;/span&gt;" style="rounded=1;whiteSpace=wrap;html=1;" vertex="1" parent="1">
          <mxGeometry x="70" y="700" width="150" height="60" as="geometry" />
        </mxCell>
      </root>
    </mxGraphModel>
  </diagram>
</mxfile>
